<svg id="Layer_1" data-name="Layer 1" xmlns="http://www.w3.org/2000/svg" viewBox="0 0 585.34 494.12"><defs><style>.cls-1{fill:#fff;}</style></defs><g id="VoDrSN.tif"><path class="cls-1" d="M381.27,489.05c-3.46.68-4.63-.17-4.65-3.1-.05-8.58,0-17.16,0-25.73q0-53.84,0-107.66,0-23.87,0-47.71v-2.6c-1-1.66-2.35-1.53-3.59-1.52-6.74.07-13.48.18-20.22.22a18.4,18.4,0,0,1-3.7-.42c-6.29-1.33-9.11-9-8.34-13.63,1.25-7.55,2.23-15.14,3.41-22.7,1-6.25,2.06-12.47,3.09-18.71,1.33-8,2.62-16.08,4-24.11,2-12,4.13-24.09,6.16-36.14,1-5.91,1.81-11.84,2.82-17.74.78-4.59,1.81-9.14,2.59-13.73,1-5.82,1.8-11.68,2.78-17.5.82-4.83,1.79-9.64,2.67-14.46.86-4.66,1.69-9.33,2.55-14,1.09-5.89,2.29-11.76,3.3-17.66,1.54-9,2.95-18,4.44-27.07,1-6.23,2-12.47,3.22-18.67a22.59,22.59,0,0,1,3-8.13,11.32,11.32,0,0,1,10-5.57c6.49,0,13,.05,19.45,0,9-.06,18-.24,27-.28,4.4,0,8.82,0,13.22.32,6.07.38,10.18,3.43,12.27,9.3a52.11,52.11,0,0,1,2,10c.72,4.68,1.73,9.32,2.48,14,1.51,9.44,2.89,18.9,4.41,28.34,1,6,2.16,12,3.15,18,1.23,7.38,2.35,14.78,3.54,22.16,1.77,10.92,3.58,21.84,5.34,32.76,1.53,9.43,3,18.87,4.5,28.31q2.28,14.42,4.55,28.82c1.14,7.14,2.35,14.28,3.46,21.43.88,5.67,1.59,11.36,2.5,17s2.06,11.45,3,17.19c.57,3.53,1,7.08,1.41,10.63A11.43,11.43,0,0,1,495.54,301c-11.33-.06-22.65.05-34-.08-2.69,0-5.5.1-8-1.5s-4.77-3.46-5.52-6.47a85.59,85.59,0,0,1-2-9.75c-1.16-8.48-2.12-17-3.19-25.49-.57-4.62-1.14-9.25-1.8-13.85-.44-3-1.22-3.66-4.28-3.69q-14.23-.1-28.48-.12a30,30,0,0,0-3,.3,34,34,0,0,0-1.19,4.29q-1.26,8.38-2.32,16.8c-1,7.67-1.85,15.35-2.8,23-.26,2.06-.58,4.12-1,6.16-1.28,6.93-4.93,10.06-12,10.33-1.15,0-2.3.12-3.26.17-1.33,1.45-1.2,3-1.2,4.47q0,19.48,0,39,0,61.95,0,123.9c0,5.83,0,11.66,0,17.48A27.13,27.13,0,0,1,381.27,489.05Zm43.16-379-.95,0c-.48,2.41-1.07,4.8-1.42,7.23-1.2,8.14-2.29,16.29-3.45,24.43-.86,6.09-1.77,12.17-2.63,18.25-1.12,7.9-2.26,15.79-3.3,23.7-.36,2.77-1.22,5.54-.37,8.76a10.9,10.9,0,0,0,2.85.79c5.49,0,11,0,16.47-.08a4.21,4.21,0,0,0,3.67-1.68,31.68,31.68,0,0,0,0-4c-.87-7-1.82-14-2.75-21q-2.19-16.44-4.39-32.86c-.74-5.52-1.39-11.05-2.2-16.56C425.6,114.65,424.94,112.35,424.43,110Z" transform="translate(-191.68 -30.44)"/><path class="cls-1" d="M279.23,136.14a22.32,22.32,0,0,0,3.4.56c10.24,0,20.48-.06,30.72-.08,3,0,6-.15,8.95.09,5.24.43,9.72,6.34,9,11.82-.55,4.42,0,9,0,13.46q0,6.38-.05,12.73c0,2-.33,4-.19,6,.35,4.68-6.13,10.73-10.59,10.49-2.24-.12-4.49,0-6.74,0q-15.48,0-31,0c-1.06,0-2.12.19-3.44.31a16.32,16.32,0,0,0-.68,3.19c0,2.24.18,4.49.19,6.73,0,1.74-.19,3.48-.19,5.23q0,37,0,73.93c0,3,0,6-.05,9-.2,6.81-4.65,11.09-11.51,11.1-8,0-16,0-24,0-3.74,0-7.48.07-11.22,0-1.49,0-3-.26-4.4-.4-1.59.64-1.4,2-1.4,3.2v69.82q0,32.71.05,65.44c0,1.33,0,2.66-.05,4-.07,2.93-1.45,3.73-4,2.3a5.14,5.14,0,0,1-.75-.68c-.06-.71-.18-1.6-.18-2.5q0-64.81,0-129.63c0-45.21,0,39.58,0-5.63,0-2.83.06-5.66,0-8.49-.07-2.23-.4-4.46-.46-6.7q-.21-7.73-.25-15.45c0-5.41.1-10.82.07-16.23-.05-7.07-.24-14.15-.27-21.22q-.06-14.49,0-29c0-5.57.23-11.14.26-16.7.05-8.15,0-16.3,0-24.44,0-7.07,0-14.14,0-21.21-.07-10.65-.24-21.31-.25-32,0-7.9.25-15.81.24-23.71,0-14.89-.21-29.78-.26-44.66a52.59,52.59,0,0,1,.47-7.21c.51-3.75,3.15-6,6.26-7.55a14.42,14.42,0,0,1,6.05-1.21c13.32-.1,26.64,0,40,0q25.73,0,51.46-.14c3.73,0,7.47.06,11.21,0,6.05,0,12.1,5.69,11.93,11.9-.3,10.65,0,21.31,0,32,0,1-.12,2-.07,3,.21,4.51-4.49,8.94-8.36,9.15-2.4.13-4.8.44-7.21.46-9.74.09-19.48.06-29.22.14-6.57,0-13.14.19-19.72.29-.58,0-1.17,0-1.74,0-2,.21-2.62.83-2.71,2.86s-.06,4-.05,6q.08,17.1.2,34.21C278.73,132.43,279,134.07,279.23,136.14Z" transform="translate(-191.68 -30.44)"/><path class="cls-1" d="M674.24,243c3.84.22,7.15.55,10.46.57,13.74.11,27.48.12,41.21.17a33.74,33.74,0,0,1,3.49.09c5.78.67,9.58,4,10.2,10.39.34,3.54.24,7.12.29,10.69,0,2.66,0,5.33,0,8,.07,4.4.34,8.81.22,13.2a35.75,35.75,0,0,1-1.17,8.1,9.13,9.13,0,0,1-8.33,6.41c-1.83.09-3.66.05-5.49.15a23.29,23.29,0,0,0-2.75.49c-.07,1.19-.18,2.16-.18,3.14q0,74.17,0,148.35c0,1.49.14,3-1.07,4.58H717.4a28.85,28.85,0,0,1-.51-3.89q-.06-20.24,0-40.46V311c0-2.25,0-4.49,0-6.74,0-.89-.15-1.79-.26-3a32.75,32.75,0,0,0-4-.53c-7-.05-14,0-21,0h-40c-8,0-16,.1-24-.06a18.56,18.56,0,0,1-7.28-1.37c-3.87-1.82-6.56-5-6.69-9.51q-.43-15.09-.43-30.2-.09-51.19-.06-102.4V49.31c0-2.42,0-4.83,0-7.25.08-6.64,4.27-11.1,10.86-11.17q18.48-.2,37,0A11.12,11.12,0,0,1,671.71,38c.91,2.13.95,4.72,1,7.11.13,8.49.11,17,.12,25.47q0,25.23,0,50.45c0,8.65,0,17.29,0,25.93q.21,42.81.46,85.62c0,2.25-.11,4.5,0,6.74A22.53,22.53,0,0,0,674.24,243Z" transform="translate(-191.68 -30.44)"/><path class="cls-1" d="M548.88,301.29c-1.63-.24-2.75-.52-3.88-.56-2.33-.08-4.67-.13-7,0-5.22.25-12.16-5-12.1-12.13.15-17.07,0-34.14,0-51.21l-.09-104.66c0-9.57,0-19.15,0-28.72,0-3.66-.25-7.32-.23-11q.16-25.84.41-51.69c0-3.7,3.16-8.25,6.68-9.42a18.2,18.2,0,0,1,5.36-1c9.57-.13,19.15-.14,28.72-.18,2.16,0,4.31,0,6.47,0,7.57-.05,11.6,6.89,11.6,12.46q0,19.86,0,39.72c0,5.57-.29,11.14-.27,16.72.07,22.56.26,45.11.3,67.67,0,30.14,0,60.28,0,90.42,0,8.58.08,17.15.11,25.73,0,1.58,0,3.16-.07,4.74a14,14,0,0,1-5.33,10.6,8.44,8.44,0,0,1-5.57,1.89l-14.48,0c-.75,0-1.5,0-2.25,0-2.52.09-3.25.82-3.26,3.35,0,5.41,0,10.83,0,16.24l0,155.61v2.54c-2,2-2.75,2.05-5,.25C548.85,419.83,549,360.75,548.88,301.29Z" transform="translate(-191.68 -30.44)"/><path class="cls-1" d="M349.79,504c2.93-1,3.92-.39,4.31,2.14.31,2.05.61,4.11,1.07,6.13a8.63,8.63,0,0,0,1.23,2.15l.7-.07c.95-3.54,1.9-7.07,2.87-10.72h2.86c2.35,3.22,1.9,7.23,3.22,10.7,1.86-.33,2.07-1.64,2.29-2.83.29-1.55.39-3.13.63-4.69a4.91,4.91,0,0,1,2.49-3.75l1.85.86a6.43,6.43,0,0,1,.17,1.63c-1.13,5.35-2.26,10.71-3.49,16-.55,2.38-1.68,2.92-4.46,2.37-2.08-3-1.79-6.84-2.85-10.2-1.67-.5-2.19.45-2.47,1.54-.44,1.77-.77,3.58-1.16,5.36-.54,2.49-1.53,3.64-3.1,3.64s-2.35-1.1-2.93-3.75c-1-4.79-2.17-9.55-3.21-14.33A10.91,10.91,0,0,1,349.79,504Z" transform="translate(-191.68 -30.44)"/><path class="cls-1" d="M513.8,523.94l-3.58.42-6.9-10.87c-1.55.28-1.84,1.27-1.85,2.42,0,1.83.06,3.66,0,5.48-.08,2.7-1,3.3-3.92,2.41a12.21,12.21,0,0,1-.46-2.46c-.05-4.91-.07-9.81,0-14.72,0-3.18,1.27-4,4.61-2.73l6.74,10.43c1.56-.27,1.49-1.27,1.51-2.16,0-1.74,0-3.49,0-5.24a10.59,10.59,0,0,1,0-1.49,2.16,2.16,0,0,1,2.37-2,2.22,2.22,0,0,1,1.9,2.28q.07,7.59,0,15.18A22.69,22.69,0,0,1,513.8,523.94Z" transform="translate(-191.68 -30.44)"/><path class="cls-1" d="M313.88,513.2c-.28,3.56-.54,7-.85,10.44,0,.22-.49.4-.91.72l-2.48-.68c-.45-6.62-.1-13.13-.06-19.47,2.86-1.31,3.91-1,5.28,1.21q2.68,4.35,5.4,8.67a4.45,4.45,0,0,0,.76.72,2.8,2.8,0,0,0,1.09-2.68c0-1.83-.07-3.66,0-5.49a26.06,26.06,0,0,1,.44-3h2.74c1.41,1.15,1.22,2.58,1.17,4s0,2.81,0,4.21c0,3.15.08,6.3,0,9.45a10.62,10.62,0,0,1-.94,2.82l-2.48.19c-2.46-1.5-3.12-4.08-4.55-6.08-.77-1.08-1.34-2.3-2-3.45A2.67,2.67,0,0,0,313.88,513.2Z" transform="translate(-191.68 -30.44)"/><path class="cls-1" d="M772.19,480.67c1.26-4.13-.16-7.91,1.27-11.52h2.86a7.35,7.35,0,0,1,.7,2.09c0,4.47-.09,8.93-.13,13.4a14.73,14.73,0,0,1,.09,2c-.15,1-.46,2-.63,2.68-2.22,1-3.54.36-4.49-1.14-1.54-2.44-3-5-4.51-7.42a34.19,34.19,0,0,0-2.54-3c-1.32,4.21.25,8.21-1.16,11.94h-2.76a9.68,9.68,0,0,1-.68-2.42c0-5.94-.24-11.89.19-17.68,2.84-1.06,4.1-.64,5.31,1.49,1.31,2.3,2.59,4.63,4,6.87A23.53,23.53,0,0,0,772.19,480.67Z" transform="translate(-191.68 -30.44)"/><path class="cls-1" d="M756.23,489.54c-2.43.45-3.43-.08-4.6-2.34l-2.4-4.57h-2.71c-1.27,1.37-.72,2.85-.82,4.21-.17,2.25-.73,2.83-3.39,2.94a9.52,9.52,0,0,1-.92-2.82c-.07-5.57,0-11.13,0-16.69a2.16,2.16,0,0,1,.23-.66c.16-.14.27-.32.41-.35,3.53-.68,7.15-.95,10.54.23,4.57,1.58,5.55,6.41,2.31,10.07-1.41,1.6-1.46,2-.45,4,.53,1,1.06,2.06,1.67,3.05A2.67,2.67,0,0,1,756.23,489.54Zm-9.69-11.29c3,.54,4.41.22,5.31-1.21a3.06,3.06,0,0,0-.28-3.49c-1.45-1.65-3.24-1.23-5.16-.73C745.39,474.71,745.23,476.51,746.54,478.25Z" transform="translate(-191.68 -30.44)"/><path class="cls-1" d="M409.13,523.12c-.05-.7-.16-1.44-.16-2.18,0-4.66,0-9.32,0-14,0-3,.6-3.61,3.69-3.64,1,0,2,.08,3,0,3.88-.35,8.29,3.77,8.9,7.38s.39,7-1.78,10c-2,2.71-5.06,3.44-8.16,3.62C412.88,524.43,410.91,524.85,409.13,523.12Zm4.45-3c2.63,1,4.68.32,6-1.81,1.79-2.87,1.61-5.83.21-8.76-1.12-2.35-3.06-3.08-6.17-2.18C413,511.48,413.34,515.75,413.58,520.1Z" transform="translate(-191.68 -30.44)"/><path class="cls-1" d="M615.64,514.54c0,1.37.11,2.7,0,4-.38,3.74-2.61,5.79-6.41,5.82-2,0-3.92.27-5.83-.78-4-2.2-5-5.88-4.9-9.93.07-3,.34-6.15,2.94-8.44,3.31-2.93,8.69-3,11.79,0,1.14,1.11,2.14,2.37,1.23,4.19-1.6.86-2.78.11-3.68-1.05-1.14-1.47-2.52-2.28-4.31-1.7a4.51,4.51,0,0,0-3.36,3.95,25.58,25.58,0,0,0-.11,5.46c.46,4,2.68,5.32,7.18,4.41l1.35-2.43-4.13-3C609,512.8,612.73,512.56,615.64,514.54Z" transform="translate(-191.68 -30.44)"/><path class="cls-1" d="M295.79,510.66a17.14,17.14,0,0,0,4.76-5.11c1.06-1.54,2.35-2.56,4.33-2.31,1.31,1.39,1.36,1.63.39,2.85-1.19,1.49-2.46,2.93-3.6,4.46a16.9,16.9,0,0,0-1.28,2.44c1.14,1.79,2.15,3.5,3.3,5.12s2.41,3.19,2.66,5.25c-1.51,1.18-2.45,1.34-3.67.22a21,21,0,0,1-2.62-3.28c-.8-1.12-1.5-2.32-2.17-3.37-2.4.49-2.63.7-2.84,2.48-.16,1.46-.31,2.93-.49,4.73l-3.05-.14c-1.28-3-1.14-18.06.17-20.41l2.05-.09C296.14,505.52,293.9,508.6,295.79,510.66Z" transform="translate(-191.68 -30.44)"/><path class="cls-1" d="M329.64,514a11.88,11.88,0,0,1,1.49-6.54c1.44-3,4-4.3,7.28-4.4a7.67,7.67,0,0,1,7.64,4.66c1.89,4.31,2.13,8.79-.53,13.11a8.38,8.38,0,0,1-14.43-.91A9.42,9.42,0,0,1,329.64,514Zm11.4-6.63c-2.78-1.12-5.38-.54-6.19,1.65a12.38,12.38,0,0,0,.13,9.7,3.86,3.86,0,0,0,6.27,1.06,6.35,6.35,0,0,0,1.67-3C343.44,513.42,343.45,510.1,341,507.33Z" transform="translate(-191.68 -30.44)"/><path class="cls-1" d="M440.28,517.84l-4-2.89c2.45-2.77,5.15-1.06,7.71-1.46.93,2.93.41,5.61.29,8.14-4.22,3.39-9.07,3.91-12.78,1.2a8,8,0,0,1-3-3.83c-1.1-4-1.36-8.21.76-12.12,2.71-5,11.11-5.2,14.1-.34a2.62,2.62,0,0,1,.28,2.81,2.22,2.22,0,0,1-3-.15c-.39-.31-.75-.66-1.11-1-2.92-2.72-6.78-1.63-7.44,2.32a20.63,20.63,0,0,0,.13,6.92c.5,2.86,3.79,4.33,6.49,3.25C439.9,520.26,440.24,519.4,440.28,517.84Z" transform="translate(-191.68 -30.44)"/><path class="cls-1" d="M737.79,489.72a3.15,3.15,0,0,1-3.72-1.72,5.85,5.85,0,0,0-7.74-2,5.18,5.18,0,0,0-1.48,1.6,14.37,14.37,0,0,0-.91,1.86c-1.25.56-2.31.67-3.16-.26s-.39-1.86,0-2.81l6-16.11a9.35,9.35,0,0,1,.63-1.07l3.49-.34a40.21,40.21,0,0,1,1.79,3.61c1.49,4,2.89,8,4.35,11.93.26.7.67,1.34,1,2A3,3,0,0,1,737.79,489.72Zm-9.2-13.44-1.33,4.23c1.74,1.38,1.74,1.38,3.53.94C731.63,479.25,731.12,477.84,728.59,476.28Z" transform="translate(-191.68 -30.44)"/><path class="cls-1" d="M625.22,503.64c2.86-.45,3.41-.34,4.34,1.79,1.56,3.58,2.88,7.26,4.31,10.89.45,1.16.91,2.31,1.38,3.47a5.05,5.05,0,0,1,.32,4c-2.21.71-2.92.45-3.88-1.36-.31-.59-.58-1.19-.93-1.75a4,4,0,0,0-.82-.71h-5.75c-2.08,1.31-2.09,5.38-6.19,3.88a11.32,11.32,0,0,1,.31-2.73q2.64-7.38,5.45-14.7A26.2,26.2,0,0,1,625.22,503.64Zm-.36,11.14c1.48,1.82,2.89,2,3.69.65.5-.85,0-3.38-1-4.34l-1.71.17C625.49,512.52,625.18,513.62,624.86,514.78Z" transform="translate(-191.68 -30.44)"/><path class="cls-1" d="M268.62,523.69c-2.1.77-3.25.72-3.76-.56-1.41-3.57-4.26-3.46-7.26-3.21a6.48,6.48,0,0,0-1,.17,3.1,3.1,0,0,0-.58.26c-1.34,1.46-1.27,5.3-5.38,3.31a14.16,14.16,0,0,1,.46-2.78c1.17-3.19,2.46-6.33,3.66-9.51.7-1.86,1.29-3.76,2-5.62a3.19,3.19,0,0,1,2.39-2.32c1.38-.26,2.5.35,3.24,2.12,1.28,3.07,2.4,6.2,3.57,9.31.74,1.95,1.48,3.89,2.12,5.87A21,21,0,0,1,268.62,523.69Zm-7-8.94c-.54-1.45-.52-3.09-2.14-4.38-.79,2-2.61,3.39-1.43,5.62C259.62,516.74,260.72,516.41,261.59,514.75Z" transform="translate(-191.68 -30.44)"/><path class="cls-1" d="M212.78,477.64c-1.5,1.23-1.26,3.7-3.43,3.95a7.5,7.5,0,0,1-2.31-.45c-.09-.73-.35-1.31-.18-1.67,2.87-6,4.11-12.58,7.19-18.24,3.35-.76,3.9-.49,5,2.37,1.78,4.73,3.57,9.47,5.25,14.24a13.76,13.76,0,0,1,.39,3.22c-2,.82-3,.81-3.44-.49-1.35-3.68-4.23-3.44-7.2-3.18A10.23,10.23,0,0,0,212.78,477.64Zm4.42-4c.8-2.63.59-3.55-1-5.47-2.1,1.49-2.53,3.2-1.32,5.47Z" transform="translate(-191.68 -30.44)"/><path class="cls-1" d="M406.32,505.84c-2.56,1.63-5.28.74-7.94,1a2.51,2.51,0,0,0-1.56,3.17c.38,1.48,1.56,1.82,2.89,1.86.92,0,1.84-.05,2.74,0a23.41,23.41,0,0,1,2.6.54c-.31,1-.53,1.78-.82,2.72l-6.62.38a10.65,10.65,0,0,0-.81,1.85c-.44,2.11.55,3.36,2.73,3.45,1.49.07,3,0,4.48.06,1.78.12,2.12.61,2.13,2.86-4.3,1.25-8.7.44-13.4.55-.78-7-.23-13.6-.21-20.24a9.24,9.24,0,0,1,2-.63c3-.14,6-.26,9-.28C405.23,503.11,405.69,503.6,406.32,505.84Z" transform="translate(-191.68 -30.44)"/><path class="cls-1" d="M718.37,472.21l-8.35.36c-1.22,2.38-1.16,2.86.35,4.6,2.1.87,4.68-.69,6.54,1.09.32,1.77-.62,2.32-1.92,2.45-1.57.15-3.14.19-4.63.28a2.88,2.88,0,0,0-1.32,3.73c.55,1.48,1.85,1.73,3.28,1.7a33.47,33.47,0,0,1,4.48.08c1.59.17,1.87.7,1.7,2.92a39.13,39.13,0,0,1-13.09,0c-.83-2.17-.93-17.59-.27-19.86,2-1,10.8-1,13.4,0C718.5,470.27,718.45,471,718.37,472.21Z" transform="translate(-191.68 -30.44)"/><path class="cls-1" d="M550.66,521.18c.08.83.16,1.53.26,2.52a16.75,16.75,0,0,1-2.94.65c-2.57.07-5.15,0-7.73,0-2.23-.06-3.24-1.11-3.21-3.24q.12-7.46.31-14.91a18.74,18.74,0,0,1,.26-2.05c2-1,9.7-1.18,12.94-.37.08.64.17,1.39.25,2.14-2.73,1.69-5.66.31-8.29,1.29-1.3,1.2-1.29,2.51.06,4.2l6.87.82-.7,3.12c-1.57,0-2.88,0-4.2,0-2.33,0-3.1.68-3.11,2.58s.83,2.81,3.16,2.9c1.49.06,3,0,4.48.06A12.25,12.25,0,0,1,550.66,521.18Z" transform="translate(-191.68 -30.44)"/><path class="cls-1" d="M553.73,518.33l1.87-.87c2.25,1.82,4.08,4.79,7.68,3.07,1.42-2,1.12-3.53-1-4.55-.82-.39-1.77-.51-2.58-.92a20.7,20.7,0,0,1-4.07-2.34,5.06,5.06,0,0,1,.75-8.25c4-2.41,8.61-1.76,11.28,1.54.77.95,1.1,1.84.2,3-1.46.82-2.58,0-3.66-1-2.13-1.93-2.49-2-5.27-.69-.89,2.15-.49,3.19,1.6,4.08,1.6.68,3.26,1.24,4.82,2a5.9,5.9,0,0,1,3.49,6,6.27,6.27,0,0,1-5.13,4.84,9.65,9.65,0,0,1-8.43-2C554.21,521.39,553.11,520.35,553.73,518.33Z" transform="translate(-191.68 -30.44)"/><path class="cls-1" d="M462.61,506a32.6,32.6,0,0,1-3.64.77c-1.32.12-2.67,0-4,.05-1.6.1-2.4.91-2.46,2.27a2.52,2.52,0,0,0,2.4,2.67c.9.1,1.83,0,2.74.06s1.89.33,3.1.56c-.16,1-.28,1.78-.44,2.78-1.92.06-3.64.05-5.36.18a2.45,2.45,0,0,0-2.42,2.63,2.51,2.51,0,0,0,2.26,2.79,10.69,10.69,0,0,0,1.5.05c1.16,0,2.33,0,3.49,0a19.21,19.21,0,0,1,2.31.41c.35,1.64-.09,2.82-1.47,2.88-3.56.14-7.13,0-10.69,0-.37,0-.72-.37-1.23-.65a14.63,14.63,0,0,1-.3-2.12c0-4.83,0-9.66,0-14.49,0-2.91.61-3.47,3.56-3.49s6.13,0,9.34,0Z" transform="translate(-191.68 -30.44)"/><path class="cls-1" d="M670.36,503.9c.36,2,0,2.69-1.66,2.85a22.15,22.15,0,0,1-3.73-.07c-3-.19-4,1-3.32,4.1,2.09,2.21,5.25,0,7.44,1.66.06,2.2-.43,2.77-2.45,2.89-1.56.09-3.13.12-4.53.18-1.13,1.53-.82,2.91-.51,4.38,2.69,1.93,6.07.1,8.79,1.38.42,2,.16,2.88-1.25,3a60.05,60.05,0,0,1-11-.14c-1.22-2.23-1.29-18-.22-20.31C660.14,503.11,668.21,503.16,670.36,503.9Z" transform="translate(-191.68 -30.44)"/><path class="cls-1" d="M526.62,524.22h-1.93a6,6,0,0,1-2.66-3.63c-1.51-4.57-3.2-9.08-4.73-13.63a19,19,0,0,1-.49-3.35l3.48-.21a25.37,25.37,0,0,1,1.5,3.13c.8,2.54,1.44,5.12,2.21,7.67a15.24,15.24,0,0,0,1,2.08c1.77-.28,1.95-1.51,2.28-2.61.76-2.55,1.44-5.12,2.25-7.66s1.77-3,4.78-2.15a7.91,7.91,0,0,1-.15,2.05c-1.37,4-2.81,8-4.21,12a12.47,12.47,0,0,0-.83,2.6A5,5,0,0,1,526.62,524.22Z" transform="translate(-191.68 -30.44)"/><path class="cls-1" d="M286.89,517.77c.69,2.16-.38,3.66-1.75,4.71-5.63,4.32-13,1.28-14.14-5.12a18.18,18.18,0,0,1,.49-8.6c1.05-3.57,3.79-5.28,7.41-5.7,3.36-.39,5.77,1.22,7.65,3.75a7.1,7.1,0,0,1,.7,2.44c-2.08,1.22-2.83,1.16-4.11-.18a6.57,6.57,0,0,1-.6-.79,3.59,3.59,0,0,0-4.15-1.5A3.76,3.76,0,0,0,275.3,510a40.26,40.26,0,0,0-.05,7.2,4,4,0,0,0,3.08,3.56,3.76,3.76,0,0,0,4.34-1.65C283.66,517.75,285,516.94,286.89,517.77Z" transform="translate(-191.68 -30.44)"/><path class="cls-1" d="M194.91,481.43a3.62,3.62,0,0,1-.9.26,6.53,6.53,0,0,1-1.13-.08,3.61,3.61,0,0,1-1.19-3.24c0-4.65,0-9.3,0-13.95a25.19,25.19,0,0,1,.59-3.55h11.41c1.28.2,1.55,1.11,1.1,2.52-2.39,1.94-5.64-.05-8.61,1.58l-.4,3.23c1.32,1.43,2.65,1.39,4,1.41s2.57.12,4,.2l.21,2.47c-2.5,1.53-5.55-.23-8.1,2,0,1-.12,2.28-.17,3.58S196,480.37,194.91,481.43Z" transform="translate(-191.68 -30.44)"/><path class="cls-1" d="M577.13,523.33c-.81-5.38.6-10.83-.84-16.16l-5.45-.89.53-2.92c.8-.08,1.36-.16,1.92-.17q4.73-.06,9.45-.09c.75,0,1.5-.06,2.24,0,2.38.16,2.89,1.34,1.41,3.52-.4,0-.89,0-1.37,0-2.69-.08-3.67.81-3.69,3.46,0,3.16,0,6.32,0,9.48,0,.66,0,1.33,0,2C581.13,524.21,579.76,524.85,577.13,523.33Z" transform="translate(-191.68 -30.44)"/><path class="cls-1" d="M638,505.72c.34-2,.58-2.28,2.46-2.33,3.15-.09,6.31,0,9.46,0h3.53c1.13,2.43.7,3.27-1.45,3.43-1,.08-2,.12-3.25.19a28.14,28.14,0,0,0-.43,3.19c-.05,3.58,0,7.15,0,10.72,0,1-.21,1.93-.34,3.13h-3.47a28,28,0,0,1-.53-3.58c-.07-3.32,0-6.65,0-10,0-1-.17-1.95-.24-2.75C641.92,506.11,639.41,507.53,638,505.72Z" transform="translate(-191.68 -30.44)"/><path class="cls-1" d="M702.1,487.4c-.08,1.82-1,2.47-2.3,2.5-2.9.05-5.81,0-8.71-.11a8.17,8.17,0,0,1-2.23-.83c-.23-6.53-.15-12.95-.12-19.16,3-1.47,4.38-.69,4.43,2.14.06,3.65,0,7.31,0,11,0,1.17-.06,2.35,1.09,3.2C696.71,487.12,699.71,485.39,702.1,487.4Z" transform="translate(-191.68 -30.44)"/><path class="cls-1" d="M256.39,481.65H244.51a13.75,13.75,0,0,1-.82-3.19c-.08-4.73-.05-9.47,0-14.2a25.3,25.3,0,0,1,.6-3.59l2.9.33c1.29,3,.67,5.88.68,8.75,0,2.56.09,5.11.13,7.56,2.79,2,6,0,8.82,1.76Z" transform="translate(-191.68 -30.44)"/><path class="cls-1" d="M389.83,523.63c-4.4,1.32-8.63.73-12.69.35-1-2.84-.94-17.87-.14-20,2.7-1.08,3.9-.15,3.77,2.65-.17,3.73-.2,7.47-.15,11.21,0,2.12,1,2.91,3.16,3,1.24,0,2.5,0,3.74,0C389.16,520.91,389.43,521.23,389.83,523.63Z" transform="translate(-191.68 -30.44)"/><path class="cls-1" d="M228.29,461h3.06a32.62,32.62,0,0,1,.37,3.28c0,3.24,0,6.48,0,9.71,0,1.14.22,2.27.32,3.32,2.63,1.74,5.45.47,7.93,1.22.7,1.39.7,1.39-.23,3H228.41a15,15,0,0,1-.64-3c-.09-5-.1-9.95-.06-14.93A13.28,13.28,0,0,1,228.29,461Z" transform="translate(-191.68 -30.44)"/><path class="cls-1" d="M489.66,524a13.13,13.13,0,0,1-.69-2.89c-.07-5-.06-10,0-15a13.22,13.22,0,0,1,.7-2.75l2.82.21a7.92,7.92,0,0,1,.53,1.84c0,5.49.06,11,0,16.46C493,523.9,492.27,524.28,489.66,524Z" transform="translate(-191.68 -30.44)"/><path class="cls-1" d="M591.16,524a10.28,10.28,0,0,1-.56-2.32c.07-6,.2-11.9.31-17.7,2.85-1,3.92-.36,4,2.13.06,5.24,0,10.48-.05,15.71a10.71,10.71,0,0,1-.52,2.18Z" transform="translate(-191.68 -30.44)"/></g></svg>