<svg id="Layer_1" data-name="Layer 1" xmlns="http://www.w3.org/2000/svg" viewBox="0 0 819.39 481.63"><defs><style>.cls-1{fill:#fff;}</style></defs><g id="crVTeJ.tif"><path class="cls-1" d="M418.42,306.65c-1.64-.11-2.8-.25-4-.25-2.65,0-5.31.22-7.95.06-4.71-.3-7.54-2.82-7.54-7.69q0-18.22,0-36.45v-74q0-42.08,0-84.17,0-25.51-.07-51c0-2.41.23-4.61,1.81-6.63a4.66,4.66,0,0,1,3-2,40.1,40.1,0,0,1,6.33-.78q24.09,0,48.16.12c2.79,0,5.57.46,8.35.67,1.84.14,3.7.07,5.51.35,6.17,1,12.4,1.7,18.47,3.12a56.67,56.67,0,0,1,14.69,5.93,47.58,47.58,0,0,1,10.85,8.23c2.77,2.83,4.62,6.23,6.51,9.64a56.46,56.46,0,0,1,5.63,16.63A82.13,82.13,0,0,1,529.81,103c.07,4,.2,8.09.24,12.14a103.88,103.88,0,0,1-2.23,21,44.53,44.53,0,0,1-4.38,11.74c-3.91,7.58-10,12.71-17.51,16.46a13.65,13.65,0,0,0-2,1.62,13.56,13.56,0,0,0,1.54,1.22,62.31,62.31,0,0,1,5.8,3.17c3.16,2.25,6.25,4.63,9.19,7.16a41.92,41.92,0,0,1,10,13.61,57.59,57.59,0,0,1,4.87,17.12c.69,4.74.75,9.52,1.08,14.29.55,8.11-.11,16.17-.58,24.22a70.82,70.82,0,0,1-6.31,25.56c-4.14,9-10.27,16.5-18.9,21.58-3.85,2.27-7.8,4.46-12.23,5.55-3.56.87-7.08,1.89-10.62,2.82-2.34.62-4.68,1.21-7,1.81a6.45,6.45,0,0,1-1.08.21,178.76,178.76,0,0,1-20.7,1c-3.09-.07-6.19-.25-9.2.72a3.64,3.64,0,0,1-1.1.11l-20.75.16c-1.3,0-2.67-.33-4,.85,0,.61-.15,1.4-.16,2.19,0,4.93,0,9.86,0,14.79q.22,33.13.46,66.26.21,36.56.31,73.12c0,2.11.38,3.74,2.18,5.17,2.6,2.08,2.63,6.46.39,8.93a6.58,6.58,0,1,1-9.65-9,5.74,5.74,0,0,0,1.8-4.51c-.09-12.22-.05-24.45-.1-36.67q-.21-46.61-.45-93.22c0-7.21-.15-14.43-.22-21.64C418.45,310.72,418.44,308.84,418.42,306.65Zm27.85-113.81c-1.14.81-1,1.89-1,2.9q0,8.06-.05,16.09,0,22.3.07,44.6c0,1.69,0,3.39.09,5.07s1,2.63,2.83,2.71c1.17,0,2.35-.06,3.52-.11,4.63-.16,9.25-.5,13.87-.45,5.05.05,10-.34,14.72-2.21a14.22,14.22,0,0,0,7.76-7.46,34.31,34.31,0,0,0,2.82-13.25c.2-4.18.14-8.38.12-12.56a125.26,125.26,0,0,0-.32-13.44c-.41-3.53-.55-7.13-1.87-10.59a15.63,15.63,0,0,0-8.45-8.77A27.52,27.52,0,0,0,469.91,193c-7.56-.4-15.15-.27-22.72-.34A3.73,3.73,0,0,0,446.27,192.84Zm-1-42.11a2.61,2.61,0,0,0,2.48,1.25c1.18,0,2.36,0,3.53-.1,3.74-.22,7.48-.62,11.22-.68s7.2,0,10.69-1.13c3-.95,6-2.08,7.62-4.9a22.61,22.61,0,0,0,2.91-8.73,121.47,121.47,0,0,0,1-13.86c0-6.62-.34-13.23-.58-19.85a19.51,19.51,0,0,0-1.78-8.12c-2.06-4.16-5.48-6.28-10-7.19a59.11,59.11,0,0,0-11.41-1c-4.41,0-8.81,0-13.22.09a2.94,2.94,0,0,0-2.82,2Q445.06,119.07,445.24,150.73Z" transform="translate(-68.33 -40.02)"/><path class="cls-1" d="M108.37,306.94a9.46,9.46,0,0,0-1.53-.4c-3.09-.09-6.18-.21-9.27-.21-4.19,0-8.39.14-12.58.14s-6.55-2.18-6.86-6.42c-.08-1.17,0-2.36-.06-3.53-.15-11.18-.47-22.37-.39-33.55,0-5.8-.14-11.59-.09-17.39,0-2.35.28-4.7.34-7.05,0-1.76-.07-3.52-.13-5.28,0-.44-.13-.88-.1-1.32.43-6.23-.23-12.47-.08-18.7.22-8.46.39-16.92.45-25.37,0-3.73-.26-7.46-.38-11.19,0-.88,0-1.77,0-2.65.12-7.06.28-14.12.34-21.18,0-2.12-.3-4.25-.37-6.37a34.49,34.49,0,0,1,.24-3.51,13.14,13.14,0,0,0,.12-1.53c-.08-2.86-.26-5.71-.26-8.56s.24-5.58.26-8.38c0-2-.23-4-.23-5.95,0-3.08.12-6.16.17-9.23q.06-4.2.09-8.39c0-3.61,0-7.22,0-10.83,0-1.53-.22-3.07-.32-4.6a11.68,11.68,0,0,1-.09-2.43c.82-5.71.28-11.46.4-17.2.11-5.07,0-10.16,0-15.24a12,12,0,0,1,.41-3,4.08,4.08,0,0,1,3.37-3.07,47.68,47.68,0,0,1,11.6-1.19c5.75.08,11.49.06,17.24,0a33.93,33.93,0,0,0,4.38-.39,7.34,7.34,0,0,1,8.23,6.6c1.45,19.35.44,38.71.77,58.07q.21,12.47.26,24.93c0,3-.17,6-.22,9,0,2.27-.05,4.55,0,6.82.12,3.06,1.23,4,4.19,3.54a49,49,0,0,1,9.22-.55c5.66.14,11.34.22,17,0a95.23,95.23,0,0,1,13.62.5c2,.2,3-.65,3-2.77,0-7.06-.17-14.12-.19-21.18,0-5.22.16-10.45.15-15.67,0-3.52-.25-7-.32-10.54,0-1.1.18-2.2.22-3.3,0-1.69.06-3.38.07-5.07,0-2.71,0-5.43,0-8.14a3,3,0,0,0,0-.66c-1.21-4.59.35-9.17.07-13.78s-.08-9.28-.07-13.92c0-2.64-.05-5.29.1-7.92a5.74,5.74,0,0,1,5.56-5.22c8.76,0,17.53-.15,26.29,0,3.87.07,7.72.77,11.59,1.18a9.25,9.25,0,0,1,2.49,6.43c0,11.56,0,23.12.08,34.69,0,5.51.23,11,.25,16.55,0,4.34-.2,8.69-.18,13,0,9.64.19,19.28.21,28.92,0,5.22-.19,10.43-.23,15.64,0,5.74,0,11.47,0,17.2q0,19.32,0,38.62c0,9.78,0,19.57,0,29.35,0,6,.18,12,.2,18.06,0,4.26-.17,8.52-.16,12.78,0,5.58.16,11.16.17,16.74a69.41,69.41,0,0,1-.33,8.16,4.67,4.67,0,0,1-3.59,4.24,24.67,24.67,0,0,1-7.18,1c-9.2,0-18.41,0-27.61,0a8.06,8.06,0,0,1-2.83-.33c-3.55-1.37-4.91-2.32-4.87-6.57.08-6.25-.14-12.51-.15-18.76,0-5,.15-10,.17-15,0-4.56-.11-9.12-.1-13.68,0-4,.13-8,.11-11.92,0-5.89-.18-11.77-.17-17.65s.14-12,.2-18.08c0-2.57,0-5.13,0-7.7,0-.64-.11-1.29-.19-2.15a12.73,12.73,0,0,0-2.36-.46q-21-.06-42,0a19.46,19.46,0,0,0-2.18.25,15.69,15.69,0,0,0-.39,2.58c0,2.8.23,5.59.24,8.38q0,14,0,28.05c0,5.21-.21,10.43-.19,15.65,0,9.79.17,19.58.22,29.37,0,6.48,0,13,0,19.45a21.54,21.54,0,0,1-.31,3.29,6.12,6.12,0,0,1-5.49,5.2c-1.5.18-3.11-.24-4.65.86,0,.65-.15,1.36-.15,2.08q.09,25.19.19,50.37.21,38.33.47,76.65c.06,9.79.17,19.59.14,29.38a5.28,5.28,0,0,0,2.11,4.11A6.36,6.36,0,0,1,115,480.12a6.5,6.5,0,0,1-7.48-10.57,5.71,5.71,0,0,0,1.75-5c-.17-2.13-.2-4.27-.21-6.4q-.1-39.21-.2-78.43-.12-34.78-.32-69.58C108.57,309.13,108.45,308.12,108.37,306.94Z" transform="translate(-68.33 -40.02)"/><path class="cls-1" d="M331.56,257c-.89-1.51-2.26-1.67-3.7-1.66H315.93c-9.5,0-19,0-28.5.06a18.84,18.84,0,0,0-3.12.53c-.58,3.05-1.12,5.77-1.62,8.51-.3,1.66-.53,3.33-.83,5-.52,2.82-1.08,5.63-1.6,8.44-.27,1.44-.5,2.89-.73,4.34-.16,1-.26,2-.45,3.06-.75,3.89-1.46,7.79-2.31,11.66a35.64,35.64,0,0,1-1.79,5.91,4.15,4.15,0,0,1-2.06,2.09,3.17,3.17,0,0,0-2.12,3.43c.05,5.67,0,11.34,0,17q0,49.61-.05,99.2a20.19,20.19,0,0,1,0,2.2,7.8,7.8,0,0,0,2.4,6.73c2.72,2.8,1.44,8.95-3.1,10.24a6.56,6.56,0,0,1-7.68-2.81,7.07,7.07,0,0,1,1.3-8.48,5.28,5.28,0,0,0,1.78-4.28q0-50.58,0-101.18c0-5.89,0-11.78,0-17.67,0-.86-.11-1.73-.2-2.91-1.28-.08-2.42-.21-3.55-.22-7.52,0-15,0-22.54,0h-.88c-5-.11-7-3.11-6.36-7.73.81-6.11,2.2-12.13,3.27-18.21.46-2.59.72-5.22,1.12-7.82q.57-3.6,1.26-7.17c1-5,2-10,2.89-14.93.44-2.38.69-4.78,1.09-7.16.52-3,1.11-6.07,1.67-9.1.78-4.18,1.52-8.36,2.35-12.53.53-2.66,1.18-5.3,1.78-7.95.11-.5.23-1,.32-1.5.59-3.33,1.18-6.65,1.76-10,.75-4.34,1.48-8.69,2.24-13q.93-5.33,1.9-10.64c1-5.49,2-11,3-16.47,1-5.27,2-10.53,3-15.8.4-2.17.73-4.35,1.13-6.52q1.51-8.35,3.07-16.7c.74-4,1.59-7.9,2.27-11.87.73-4.2,1.33-8.42,2-12.62a2.84,2.84,0,0,1,.09-.66c1.55-3.65,1.41-7.63,2.27-11.43,1.38-6.09,2.36-12.27,3.5-18.41.74-4,1.5-7.93,2.19-11.91.35-2,.51-4.07.87-6.09a21,21,0,0,1,.85-2.5c.75-2.47,2.76-3.34,5-3.76a22.47,22.47,0,0,1,4.18-.26q20.21,0,40.42.06a43.45,43.45,0,0,1,4.84.23c2.86.33,4.8,2.16,5.48,5.24s1.3,6.47,1.9,9.72c.87,4.68,1.69,9.38,2.57,14.07.94,5,1.71,10,2.93,14.91,1.29,5.21,2,10.52,3,15.76,1.55,7.78,3.26,15.52,4.78,23.3,1.24,6.35,2.28,12.73,3.47,19.09.84,4.48,1.81,8.93,2.66,13.4.88,4.7,1.67,9.41,2.54,14.1.47,2.53,1.08,5,1.57,7.56,1,5.49,2.08,11,3.06,16.47.51,2.89.84,5.81,1.38,8.7.67,3.61,1.5,7.19,2.2,10.79.85,4.4,1.63,8.82,2.47,13.22.7,3.68,1.46,7.34,2.15,11,.59,3.11,1.08,6.23,1.68,9.34.95,5,2,9.93,2.93,14.91,1,5.21,1.75,10.44,2.68,15.65.52,2.89,1.37,5.73,1.74,8.64.43,3.42,1.52,6.73,1.31,10.25-.23,3.76-1.27,4.55-4.84,5.57-4.9,1.4-9.79.58-14.68.74-6,.21-12.08.13-18.11.1-4.61,0-7.09-2.05-8-6.61-.65-3.16-1.12-6.37-1.72-9.55-.75-3.89-1.59-7.77-2.32-11.67-1.16-6.21-2.27-12.44-3.37-18.66C331.65,258.82,331.64,257.86,331.56,257Zm-6.8-43.41c-.2-1.78-.32-3.15-.54-4.51s-.54-2.43-.75-3.66c-.31-1.82-.52-3.64-.82-5.45-.75-4.5-1.55-9-2.3-13.5-.5-3-.93-6.09-1.45-9.13s-1.15-6.22-1.7-9.33q-1.23-7.06-2.42-14.13-.76-4.45-1.52-8.91c-.46-2.74-.89-5.47-1.36-8.2,0-.29-.22-.55-.29-.84-.19-.84-.38-1.7-.52-2.55s-.23-1.9-.38-2.84c-.48-2.89-1-5.79-1.49-8.68a12.41,12.41,0,0,0-.55-1.66H308a16.3,16.3,0,0,0-.61,1.91c-.13.72-.06,1.47-.2,2.19-1.18,6.13-2.39,12.26-3.57,18.39-.8,4.18-1.85,8.34-2.25,12.57-.33,3.4-1.3,6.63-1.87,9.95-.61,3.55-1,7.12-1.65,10.66-.81,4.55-1.75,9.08-2.6,13.63-.78,4.18-1.58,8.37-2.27,12.57-.57,3.55-1,7.12-1.43,10.34a3,3,0,0,0,3.12,1.88c8.91,0,17.82,0,26.73,0A19.38,19.38,0,0,0,324.76,213.59Z" transform="translate(-68.33 -40.02)"/><path class="cls-1" d="M825,308.3c-2.81,0-5.31.18-7.78,0-4.54-.4-9.06-1-13.57-1.6a47.34,47.34,0,0,1-6.88-1.48,67.67,67.67,0,0,1-13.94-6c-6.55-3.68-11.57-9-16.38-14.6-3.84-4.45-6.3-9.7-8.28-15.22A57.44,57.44,0,0,1,755,257.71c-.64-4.79-1.71-9.54-1.41-14.45a35.94,35.94,0,0,0-.49-6.36c-.35-3.09-.49-6.13.75-9.11a6.7,6.7,0,0,1,5.22-4.24,47.31,47.31,0,0,1,10.08-.87c7.44,0,14.88,0,22.31,0,4.28,0,6.19,1.78,6,6a94.64,94.64,0,0,0,1.22,17.81c.76,4.79,2.18,9.55,5.46,13.29a17.45,17.45,0,0,0,5.86,4.16,26.46,26.46,0,0,0,12,2.45c4.06-.19,8.11-.79,11.56-3.13a17.22,17.22,0,0,0,5.7-5.72,36.46,36.46,0,0,0,3.23-6.72,32.16,32.16,0,0,0,.64-15.08A34,34,0,0,0,837.09,221c-1.7-2.3-3.2-4.75-5-7a33.43,33.43,0,0,0-3.93-4.14c-4.71-4.33-9.47-8.61-14.22-12.88q-3.62-3.24-7.3-6.39c-3.29-2.8-6.63-5.55-9.93-8.35-1-.81-1.82-1.71-2.7-2.59-3.47-3.5-7-7-10.37-10.52a95.85,95.85,0,0,1-7.18-8,66.18,66.18,0,0,1-8.69-14.27c-.59-1.42-1.47-2.72-2.08-4.14A92.72,92.72,0,0,1,760,122.1c-.27-1.58-.15-3.23-.29-4.84-.2-2.27-.51-4.52-.68-6.79a26.26,26.26,0,0,1,.1-3.31c.14-2.42.37-4.84.43-7.26a64.41,64.41,0,0,1,6.12-26.68,45.35,45.35,0,0,1,10.79-14.9C781.3,54.13,786.16,50,792,47.06a64.33,64.33,0,0,1,16.39-5.61,63.26,63.26,0,0,1,19.29-1.12,82.11,82.11,0,0,1,20.79,4.78,52.87,52.87,0,0,1,10.29,5.7c10.17,6.78,16.73,16.16,20.64,27.54a54.81,54.81,0,0,1,2.8,10.42c.7,5.37,2,10.72,1.31,16.22-.13.94.06,1.92-.08,2.86-.3,1.94-.73,3.86-1,5.4a8.77,8.77,0,0,1-8,4.19q-13,0-26.07,0a21.58,21.58,0,0,1-2.63-.29,4,4,0,0,1-3.5-2.67,26.35,26.35,0,0,1-1.39-5.28,34.9,34.9,0,0,1-.31-6.38,25.49,25.49,0,0,0-1.28-8.26,15.15,15.15,0,0,0-10.53-10.67c-.14,0-.3,0-.44-.1-5-2.06-9.9-.8-14.57,1.16-4.14,1.73-6.67,5.11-8.27,9.28-2.22,5.75-2,11.72-1.59,17.66.47,6.44,3.05,12.15,6.39,17.66S818,139.48,822.44,144c2.41,2.48,4.94,4.84,7.54,7.12s5.58,4.55,8.35,6.85c3.27,2.72,6.45,5.57,9.79,8.2,7.38,5.81,13.79,12.63,20.15,19.46A62.56,62.56,0,0,1,877,197.77a108.89,108.89,0,0,1,6.69,15.59,36.43,36.43,0,0,1,1.13,4.25c2.18,9.14,3.43,18.4,2.71,27.79-.39,5.11-1.36,10.19-2.23,15.26a44.42,44.42,0,0,1-3.7,10.57,70.06,70.06,0,0,1-4.66,9,54.74,54.74,0,0,1-11.08,12.51,60.45,60.45,0,0,1-16,9.65,110.53,110.53,0,0,1-16.46,4.87c-.83.2-1.62.55-2.5.85a18.12,18.12,0,0,0-.22,2.1c0,10.39.13,20.77.16,31.15q.1,37.88.18,75.75c0,9.13.09,18.26.06,27.39a5,5,0,0,0,1.83,4.25,6.7,6.7,0,0,1,2.51,5.83,6,6,0,0,1-3.49,5.25,6.76,6.76,0,0,1-8.19-1.82,6.39,6.39,0,0,1,.17-8.32,7.15,7.15,0,0,0,1.87-5.22c-.07-19.44-.06-38.88-.12-58.32q-.12-37.56-.32-75.1C825.34,310.25,825.15,309.47,825,308.3Z" transform="translate(-68.33 -40.02)"/><path class="cls-1" d="M706.67,88.09c0,.39-.11.83-.11,1.26,0,4.77,0,9.54,0,14.31,0,6.84.13,13.68.15,20.53,0,2.57-.17,5.15-.15,7.72,0,4.77.22,9.55.22,14.32s-.19,9.26-.19,13.89c0,5.59.18,11.17.19,16.76q.06,47.26.06,94.53c0,7.15,0,14.29-.05,21.44a50.13,50.13,0,0,1-.39,6.82c-.71,4.87-2.26,5.4-7,6.43a25.78,25.78,0,0,1-3.3.09,21.56,21.56,0,0,0-2.25.44c-.06.86-.16,1.58-.16,2.3q0,29.16,0,58.32c0,14.88,0,29.76-.08,44.63a4.28,4.28,0,0,0,1.78,3.75,6.86,6.86,0,0,1,.73,10,6.69,6.69,0,0,1-9.17.13c-2.45-2.4-3.13-5.89-.67-8.73a8.81,8.81,0,0,0,2.12-6.25q0-48.37,0-96.77c0-2.34,0-4.69,0-6.85-1-1.1-2.05-.92-3.05-.92-5.6,0-11.2.08-16.79,0a18.24,18.24,0,0,1-4.29-.81c-2.74-.72-3.62-2.85-3.66-5.37-.09-6.41-.08-12.81-.09-19.22q0-26.73,0-53.47,0-31.26.07-62.52,0-35.13,0-70.26c0-1.39.08-2.8,0-4.19a30.29,30.29,0,0,0-.4-3.05,35.09,35.09,0,0,0-3.56-.39c-10.38,0-20.76,0-31.15-.06a29.35,29.35,0,0,1-6.26-1c-2.54-.58-3.47-2.56-3.7-4.91-.14-1.46,0-2.94-.07-4.42-.09-6.91-.26-13.82-.22-20.73a35.1,35.1,0,0,1,.89-7.43c.62-2.76,2.52-4,6.39-4.49a35.6,35.6,0,0,1,4.85-.1l96.33,0c6.55,0,13.11-.06,19.66,0,4.95.08,8.09,2.89,8.18,7.91.16,9.12.1,18.24,0,27.36a15.61,15.61,0,0,1-1.27,5.09,3.69,3.69,0,0,1-1.9,1.64c-2.69,1.22-5.62,1-8.47,1.11-3,.12-6,0-9,0l-20.76,0C708.9,86.9,707.66,86.68,706.67,88.09Z" transform="translate(-68.33 -40.02)"/><path class="cls-1" d="M559.84,306.35V452c.43.36.86.77,1.33,1.12,2.52,1.83,2.7,7.14.32,9.34a6.86,6.86,0,0,1-9.55,0,6.39,6.39,0,0,1-.23-8.8c.43-.5,1.07-.87,1.37-1.43a7,7,0,0,0,1.18-3c.11-12.29.11-24.58.13-36.86q.08-57.33.15-114.67a10,10,0,0,1,.23-2.63c.84-3.11.64-6.28.64-9.43q0-55.12,0-110.25,0-53.91,0-107.81c0-5.08-.09-10.17.12-15.24a22.69,22.69,0,0,1,1.41-6c.57-1.74,2.24-2.3,3.83-2.6a25.22,25.22,0,0,1,4.83-.42c7.22,0,14.43.15,21.65.22,2.79,0,5.58,0,8.38.06a9.66,9.66,0,0,1,2.4.27,3.3,3.3,0,0,1,2.8,2.76,45.5,45.5,0,0,1,.85,6.31q.09,45.41,0,90.8,0,39.33,0,78.65,0,33.48-.05,67c0,2.65.05,5.3,0,7.95a10.63,10.63,0,0,1-1.68,6.08,3.46,3.46,0,0,1-1.58,1.42,26.49,26.49,0,0,1-6.44,1.34c-9.2.15-18.41.07-27.61.08C563,306.24,561.59,306.3,559.84,306.35Z" transform="translate(-68.33 -40.02)"/><path class="cls-1" d="M575.28,500.82c-.41-.82-.74-1.47-1.1-2.17-1.7-1.32-3.61-.67-5.3-.61-.87,1-1.44,2.29-2.39,2.7s-2.26-.07-3.41-.07c-.57,0-1.14.26-1.72.33-1.79.21-2.53-.24-3.32-1.86-.48-1-1-2-1.54-2.92a1.62,1.62,0,0,0-2.14-.8c-1.41,1.38-.28,3.38-1,5-1.59.86-1.59.86-3.66-.09-.1-5.05-.15-10.21.09-15.2,2.63-1.46,8.63-1.19,10.7.3,1.91,1.37,2.43,5,1,7-1.68,2.31-1.68,2.31-.2,4.79.55.91,1.07,1.84,1.6,2.77h.55c1-2.64,2-5.29,3.09-7.91s1.51-5.38,3.26-7.52c2.65-.52,3.18-.25,4,2,1.32,3.5,2.65,7,3.93,10.51.4,1.09.64,2.23.94,3.3C577.55,501.35,576.49,501.08,575.28,500.82Zm-20.93-8.9a3,3,0,0,0,3.72-1.42,2.2,2.2,0,0,0-.16-2,2.9,2.9,0,0,0-3.56-.91C553.58,489,553.06,490.41,554.35,491.92Zm17.33-1.34c-1.91,1.92-2.23,2.94-1.13,3.87l1.74-.66C572.07,492.66,571.9,491.72,571.68,490.58Z" transform="translate(-68.33 -40.02)"/><path class="cls-1" d="M661.32,454.45c2,2.86,6.24,14.42,6,16.19-2.36.79-2.46.74-4.8-2.61l-4.56-.48-2.16,3.07c-1.2.94-2.47.44-3.61,0a1.61,1.61,0,0,0-.34,0c-3.57,1.37-4.89-.87-6-3.63a10.13,10.13,0,0,0-1.71-2.12c-2.46,1.36-.85,4-2.32,5.93l-2.41.19c-.77-1.94-.89-13.95-.21-16.47a10.87,10.87,0,0,1,1.95-.38c1.55-.05,3.09,0,4.64,0a6.51,6.51,0,0,1,4.33,1.94c1.43,1.26,1.53,4,.4,5.95-.51.88-1,1.75-1.55,2.62,1,1.87,1.36,3.88,3.47,5.22.66-1.67,1.27-3.12,1.82-4.6,1.14-3.1,2.22-6.23,3.4-9.32C658.34,454.26,659,454,661.32,454.45Zm-17.52,2.72a3.22,3.22,0,0,0-1.15,3.59c1.61,1.37,2.15,1.37,4.45-.12.07-.54.16-1.24.28-2.22Zm17.82,6.64-1.66-3.5c-.7,1.57-1.62,2.64-.3,4.06Z" transform="translate(-68.33 -40.02)"/><path class="cls-1" d="M760.87,454.57c.6,1.95.63,13.79.06,15.93a2.15,2.15,0,0,1-3-.08c-.24-2.06-.48-4.19-.73-6.32l-.63-.09c-1.35,2-1.55,4.62-3,6.82l-1.77.21c-2.33-2-1.78-5.26-3.95-7.32-1.57,2.17.49,5-1.18,7.07h-2.49c-.79-2-.91-13.79-.24-16.08,1.78-.76,2.21-.77,4.47,0,1.15,3,2.36,6.19,3.73,9.78a11.26,11.26,0,0,0,1.34-1.91c.69-1.71,1.33-3.43,1.87-5.19C756.32,454.28,757.44,453.65,760.87,454.57Z" transform="translate(-68.33 -40.02)"/><path class="cls-1" d="M678.46,463.11c1.44-3-.26-6,1.33-8.45,2.2-.73,3.26-.24,3.29,1.69.06,4.41,0,8.83-.06,13.24a6,6,0,0,1-.29,1.18l-3.27.32c-1.82-2.84-3.59-5.59-5.5-8.58-1.74,2.66,0,5.59-1.25,7.93-1.65.67-1.65.67-3.29-.15a29.51,29.51,0,0,1-.37-3.13c0-3.16,0-6.31,0-9.47a30.13,30.13,0,0,1,.39-3.2l3.31-.31Z" transform="translate(-68.33 -40.02)"/><path class="cls-1" d="M868.7,496c-1,3.12.18,6-.93,8.81h-2.59c-.79-2-.91-13.49-.25-16.11,2.17-1,3.27-.63,4.39,1.26,1,1.64,2,3.27,3,4.84a18.88,18.88,0,0,0,2,2,18.77,18.77,0,0,0,.24-2.05c0-1.54-.16-3.07-.14-4.6,0-1.8,1.12-2.29,3.32-1.57.84,2.08.68,14.14-.21,16-2,.64-2.75.5-3.79-1-1.16-1.7-2.14-3.51-3.25-5.24C870.1,497.67,869.52,497,868.7,496Z" transform="translate(-68.33 -40.02)"/><path class="cls-1" d="M407.68,510c1.74,1.78,1.56,3.81,1.2,5.79a5.22,5.22,0,0,1-5.09,2.58c-2.18-.1-4.36-.05-6.7-.07a17.68,17.68,0,0,1-.42-2.6c0-3.67,0-7.34,0-11a2.9,2.9,0,0,1,1.44-2.94,19.89,19.89,0,0,1,6.82.18c2.65.54,5.3,3.48,3.24,6.66A8,8,0,0,0,407.68,510Zm-6.9,4.91c1.69.59,3.13.66,4.39-.47.38-2.66-1.3-3.69-4.39-2.59Zm0-7.19a3.34,3.34,0,0,0,3.79-.13c0-.57.08-1.24.11-1.86a3.23,3.23,0,0,0-3.9-.13Z" transform="translate(-68.33 -40.02)"/><path class="cls-1" d="M291.64,464.81l2.76.48c2,2.73,3.18,5.83,5.69,8.24,1-1.34.52-2.7.6-3.94s0-2.48,0-3.84l2.11-.88a2.21,2.21,0,0,1,1.59,2.41c0,3.9,0,7.79,0,11.69,0,1.2-.25,2.21-1.55,2.59a2.88,2.88,0,0,1-3.29-1.61q-1.33-2.4-2.73-4.76c-.33-.53-.76-1-1.2-1.58-1.49,1-1.06,2.35-1.24,3.49a16.66,16.66,0,0,0,.11,2c0,2.09-.93,2.71-3.15,2.26C290.29,479.31,290.4,466.94,291.64,464.81Z" transform="translate(-68.33 -40.02)"/><path class="cls-1" d="M115.62,505.58c2-1.28,3.28-1.1,4.47.63,1.08,1.57,2,3.28,3,4.88a21.08,21.08,0,0,0,1.72,2.08l.51-.21v-6.79a2.49,2.49,0,0,1,3.17-1.31,5.64,5.64,0,0,1,.61,1.79q.1,6.39,0,12.79a8.76,8.76,0,0,1-.62,2l-3.29-.44c-1.23-2.08-2.36-4-3.46-5.87-.69-1.2-.67-1.22-2.31-1.89-.81,2.51.48,5.29-.84,7.63-2.14.55-3,.25-3-1.37C115.55,514.83,115.62,510.14,115.62,505.58Z" transform="translate(-68.33 -40.02)"/><path class="cls-1" d="M739,464.47c.87,2.22,2.42,3.79,2.41,5.92-2,1-3,.84-4-.7a29.12,29.12,0,0,1-1.59-2.9c-.46-.91-1-1.63-2.18-1.5-1.08.56-.89,1.58-.94,2.52s-.15,1.72-.2,2.41a2.67,2.67,0,0,1-3.16.56c-1-2.35-.85-14.28.19-16.38,3.23-.35,6.56-.81,9.73.92,2.15,1.17,2.78,4.46,1.32,6.81C740,462.93,739.46,463.7,739,464.47Zm-5.37-2.54a3.35,3.35,0,0,0,3.61-1.64c-.22-2.73-1-3.3-3.74-2.72C732.18,459.66,732.19,460.24,733.58,461.93Z" transform="translate(-68.33 -40.02)"/><path class="cls-1" d="M104.23,520.45c-1.44,1.12-2.46,1.07-3.5-.15V505.45a5.24,5.24,0,0,1,1.69-.7,56.45,56.45,0,0,1,7,.31c3.78.51,4.49,5.18,2.82,7.45-.43.58-.9,1.15-1.39,1.77.06,2.24,1.82,3.78,2.44,5.72-1.12,1.66-1.45,1.7-4,.43-.49-1-1.09-2.2-1.62-3.4s-1.33-1.7-2.86-1Zm.46-12.13v3.42a2.88,2.88,0,0,0,3.8-.16c.91-.83.89-1.53,0-3.2C107.36,507.83,106.16,507.34,104.69,508.32Z" transform="translate(-68.33 -40.02)"/><path class="cls-1" d="M446.19,517.44v-8c0-1.76,0-3.53,0-5.29a2.35,2.35,0,0,1,2.35-2.64,12.78,12.78,0,0,1,6.27.87,6.35,6.35,0,0,1,3.6,3.67,10.5,10.5,0,0,1-.12,8.16,6.1,6.1,0,0,1-4.58,3.81,31.43,31.43,0,0,1-6.14.13C447.16,518.18,446.73,517.74,446.19,517.44Zm4.08-2.47c2.94.39,4.32-.51,4.89-2.89a6.68,6.68,0,0,0-1.43-6.5c-1-.43-2.18-1-3.46,0Z" transform="translate(-68.33 -40.02)"/><path class="cls-1" d="M712.14,462.37a8.32,8.32,0,0,1,2.74-6.65,7,7,0,0,1,11.37,3.86,12.24,12.24,0,0,1-.22,6.73,6.8,6.8,0,0,1-5.82,4.95,6.71,6.71,0,0,1-6.89-3.73A9.68,9.68,0,0,1,712.14,462.37Zm10.8.09a15.76,15.76,0,0,0-1.33-3.87,2.68,2.68,0,0,0-4.9.5,9.9,9.9,0,0,0-.3,6.49,3.13,3.13,0,0,0,3.11,2.33,3,3,0,0,0,2.84-2.36C722.61,464.72,722.69,463.83,722.94,462.46Z" transform="translate(-68.33 -40.02)"/><path class="cls-1" d="M287.71,469.27c-1.6,1.25-2.68.8-3.66-.16a3.44,3.44,0,0,0-3.76-1,8,8,0,0,0-1.2,9c.6,1.09,1.12,1.34,3.61,1.66,1.25-.77,1.25-.77,1.23-2.31-.34-.24-.74-.54-1.16-.82s-.75-.44-1.24-.73l.08-1.58a8.13,8.13,0,0,1,6-.25c1.13,2,.71,4.18.18,6.31a2.58,2.58,0,0,1-1.16,1.25,9.28,9.28,0,0,1-10.24-1.05,4.38,4.38,0,0,1-1.13-1.59c-1.1-3.22-1.36-6.47.13-9.66a6.11,6.11,0,0,1,5.19-3.58,6.75,6.75,0,0,1,6.47,2.53A6.2,6.2,0,0,1,287.71,469.27Z" transform="translate(-68.33 -40.02)"/><path class="cls-1" d="M72.26,514.58l-.43,6.14c-1.37.89-2.39.73-3.47-.58v-3.49l0-9.27a2.51,2.51,0,0,1,1.49-2.75l2.25.8.26,5.11a6.22,6.22,0,0,0,6-.21l.35-4.75c1.69-.8,1.69-.8,3.29,0v14.91c-2.22,1.3-3.3.82-3.46-1.34-.07-.88,0-1.77-.06-2.65a2,2,0,0,0-1.89-2.08A38.78,38.78,0,0,0,72.26,514.58Z" transform="translate(-68.33 -40.02)"/><path class="cls-1" d="M808.62,488.38h3.12c.25.35.4.46.41.59.31,4,.73,8-.25,12-.68,2.76-2.77,3.64-5.17,4.08a19.25,19.25,0,0,1-3.39,0c-.74-.49-1.36-.89-2-1.32a3.89,3.89,0,0,1-1.74-2.69c-.64-4.1-.33-8.2-.24-12.17,1.2-1.13,2.28-.81,3.62-.27v11.28l1.55,1.76c2.33.32,3.47-.35,3.71-2.41.23-1.89.15-3.81.2-5.72C808.53,492,808.57,490.36,808.62,488.38Z" transform="translate(-68.33 -40.02)"/><path class="cls-1" d="M413.52,501.59a2.75,2.75,0,0,1,1.69,3c0,2.57,0,5.15.05,7.73.07,2.92,1.64,3.8,4.64,2.4,1.39-3.82.05-8,.84-12,.93-1.2,2-1.18,3.37-.35a12.57,12.57,0,0,1,.38,2.15c0,2.65.05,5.3,0,7.95-.09,3.71-1.94,5.62-5.68,6-.44.05-.88.14-1.32.16-3.41.2-5.74-2-5.82-4.45-.11-3.45-.26-6.9-.29-10.35C411.35,502.52,412.14,501.75,413.52,501.59Z" transform="translate(-68.33 -40.02)"/><path class="cls-1" d="M826.46,493.06c-2.25.9-3.19-.78-4.43-1.6-2.38-.3-2.44-.27-3.29,1.63.75,1.15,2.08,1.47,3.25,2a18.66,18.66,0,0,1,2.61,1.17,4.86,4.86,0,0,1,2.33,5.1A4.61,4.61,0,0,1,823.2,505a7.69,7.69,0,0,1-8.15-2.59,8.41,8.41,0,0,1-.92-2.43l3.08-.41c3.16,3.13,4.59,3.21,5.82.27a24,24,0,0,0-2-1.35,32.29,32.29,0,0,1-3.54-1.74,6.77,6.77,0,0,1-2.19-2.39,4.09,4.09,0,0,1,2.29-5.79,7.8,7.8,0,0,1,6.43-.08A6.42,6.42,0,0,1,826.4,491C826.73,491.49,826.46,492.41,826.46,493.06Z" transform="translate(-68.33 -40.02)"/><path class="cls-1" d="M697.14,459.31c-2.08.81-3.19-.87-4.52-1.84-2.07-.21-2.07-.21-2.91,1.5a3.38,3.38,0,0,0,2.22,1.89c1.7.63,3.52,1.05,4.74,2.61a4.66,4.66,0,0,1-1.06,6.9c-3.43,2.15-8.69.54-10.22-3.13.86-1.8,1.93-2.09,3.35-.89a9.7,9.7,0,0,0,2,1.61c1.6.72,2.42.16,2.94-2.09a26.91,26.91,0,0,0-2.33-1.55,31.6,31.6,0,0,1-3-1.35,7.05,7.05,0,0,1-2.26-2.32,4.22,4.22,0,0,1,2-5.79c2.75-1.22,5.56-1.37,8.14.59C697.65,456.54,697.83,457.3,697.14,459.31Z" transform="translate(-68.33 -40.02)"/><path class="cls-1" d="M131.92,520.48a15.81,15.81,0,0,1-.25-2c0-3.53,0-7.07,0-10.6,0-2.47.71-3.17,3.14-3.23,2,0,4,0,6,0a2.37,2.37,0,0,1,2.52,1.41l-.74,1.56-6.45.36-.14,2.79,5.34.61.82,1.6c-1.43,2.31-3.86.55-5.56,1.65-1.21,1.59-1.21,1.68,0,3.62h6.06l.5,2.15C141.05,521.74,134.41,521.79,131.92,520.48Z" transform="translate(-68.33 -40.02)"/><path class="cls-1" d="M796.5,493.26c-1.22.53-2.09-.16-3-.85a3.57,3.57,0,0,0-3.48-1l-1.1,1.93c1.09.61,2,1.15,2.94,1.63s2.13.95,3.17,1.48c2,1,2.44,2.86,2.23,4.87s-1.82,3-3.5,3.58c-2.9,1-5.5.09-7.76-1.83a2.48,2.48,0,0,1-.65-3.24l2.33-.16c2.77,2.94,4.19,3.06,5.74.64-.2-1.05-1-1.52-1.91-1.89a29.68,29.68,0,0,1-3.41-1.51c-2.38-1.34-4-3.78-2.35-6.69,2.33-2.78,5.29-2.54,8.22-2A3.4,3.4,0,0,1,796.5,493.26Z" transform="translate(-68.33 -40.02)"/><path class="cls-1" d="M855.56,504.64a2.26,2.26,0,0,1-3.13-.65c-2.22-2.85-2.65-3-6.5-1.85-1,1.38-1.63,3.82-4.61,2.41a5.44,5.44,0,0,1,0-1.8c1.75-4.74,3.57-9.46,5.43-14.34h3.67c1.82,5,3.63,10,5.39,14.95C856,503.7,855.67,504.18,855.56,504.64Zm-6.56-10-.55,0L847,497.54c1.11,1.14,2,1.13,2.88-.16C849.61,496.5,849.31,495.58,849,494.66Z" transform="translate(-68.33 -40.02)"/><path class="cls-1" d="M241.88,481.46a2.84,2.84,0,0,1-3.18-.84c.89-2.41,1.78-4.87,2.7-7.32.8-2.12,1.64-4.23,2.46-6.35a2.65,2.65,0,0,1,2.56-2c1.45,0,2,1.09,2.43,2.21,1.23,3.14,2.42,6.3,3.61,9.46.46,1.23.88,2.48,1.32,3.72-1.63,2.18-2.72,1.84-5.06-1.77-1.18,0-2.55-.13-3.91-.07C243,478.52,243.07,480.47,241.88,481.46Zm4.24-10.06c-.77,1.27-1.41,2.31-.45,3.9l1.8-.54C247.55,473,247.55,473,246.12,471.4Z" transform="translate(-68.33 -40.02)"/><path class="cls-1" d="M84.85,521.25a15.81,15.81,0,0,1-.52-1.82,1.78,1.78,0,0,1,.19-.85c1.62-4.32,3.24-8.64,4.94-13.19l3.17-.94a19.58,19.58,0,0,1,1.5,2.57c1.22,3.14,2.35,6.31,3.52,9.47.47,1.27.95,2.54,1.39,3.72C96.91,522,96,521.66,94,518.39H89C87.86,519.56,87.46,521.49,84.85,521.25Zm6.54-10.38A3.77,3.77,0,0,0,90.8,515l2.44-.5Z" transform="translate(-68.33 -40.02)"/><path class="cls-1" d="M148.9,508.56c-.3,1.27.44,1.88,1.48,2.31s2.18.9,3.24,1.4c2.59,1.21,4,3.41,3.5,5.48s-3,3.9-5.57,3.9a8.44,8.44,0,0,1-6.16-2.51c-.94-.94-1-1.15-.38-2.76,2-1,3.06.49,4.22,1.72,1.41.41,2.74.57,3.77-.75.19-1.72-1-2.1-2.2-2.62-1.66-.75-3.27-1.6-4.47-2.2-1.34-2.27-2.13-4.08-.64-6a3.51,3.51,0,0,1,1.26-1.17,10,10,0,0,1,7.54-.24c1.64.61,2,2.16,2.53,3.57-1.52,1.4-2.06,1.4-3.8.09S150.63,507.38,148.9,508.56Z" transform="translate(-68.33 -40.02)"/><path class="cls-1" d="M537.11,484.65c2.19-.74,8.78-.68,10.88.12,0,.48.08,1,.12,1.58-2,1.67-4.38.64-6.48,1.08-1.21,1.48-1.21,1.48,0,3.23l4.79.38c.59,2.14.24,2.74-1.55,2.87-1.21.09-2.43.08-3.55.11a3.43,3.43,0,0,0,0,3.66c2.07.85,4.44-.36,6.65,1l.23,1.51c-.89,1.14-8.31,1.33-10.93.51C536.53,499,536.43,487,537.11,484.65Z" transform="translate(-68.33 -40.02)"/><path class="cls-1" d="M171.25,509l-1.89,1.06c-.79-.58-1.54-1.12-2.28-1.69-1.34-1-2.37-1-3.92.27a1.83,1.83,0,0,0,1.39,2.15c1.29.53,2.59,1.05,3.85,1.63a4.69,4.69,0,0,1,1.65,7.66,3,3,0,0,1-.31.31c-3,2.53-9.37.94-10.76-2.68a1.86,1.86,0,0,1,0-.62c1.15-1.15,2-1.29,3.22-.47a10.11,10.11,0,0,1,.92.93c1.45,1.37,2.49,1.35,4.21-.08a1.77,1.77,0,0,0-1.15-2.28c-.93-.44-1.88-.83-2.84-1.21a6.28,6.28,0,0,1-4.2-5.17c1.14-3.55,2.65-4.52,6.64-4.28C169.46,504.77,170.61,505.64,171.25,509Z" transform="translate(-68.33 -40.02)"/><path class="cls-1" d="M604.77,500.9a94.78,94.78,0,0,1-10.71.13c-1-2.1-1-14.61,0-16.65a57.37,57.37,0,0,1,10.49,0l.21,1.95c-1.49,1.36-3.08,1-4.6,1-1.18,0-2.4-.1-3.15,1.52.14.45.36,1.11.6,1.85l5.81.36c-.09,1-.15,1.75-.23,2.72-1.37.08-2.51.17-3.66.21-.9,0-1.85,0-2.31.93s-.19,2,.86,2.95l6.43.35C604.57,499.14,604.65,499.81,604.77,500.9Z" transform="translate(-68.33 -40.02)"/><path class="cls-1" d="M703.46,470.83h-3.29a124.19,124.19,0,0,1-.09-15.89c1.84-.94,7.48-1.12,10.42-.4.14.49.3,1.08.5,1.81a5.78,5.78,0,0,1-1.62.87,28.55,28.55,0,0,1-3.07,0c-2.24.06-2.76.8-2.16,3.15,1.51,1.57,3.73.13,5.64,1.31l.2,1.71c-1.16,1.15-2.38.86-3.53.9-2.11.08-2.57.51-2.7,2.58C703.68,468.09,703.58,469.25,703.46,470.83Z" transform="translate(-68.33 -40.02)"/><path class="cls-1" d="M632,470.85h-3.44c-.11-1-.28-1.86-.29-2.71,0-2.58.05-5.16,0-7.73a15.18,15.18,0,0,0-.59-2.85l-4-.52v-2.56a10.45,10.45,0,0,1,1.69-.34c3.09,0,6.18,0,9.28,0,1.21,0,2.18.34,2.37,1.75-.69,2.18-2.9.92-4.5,2.14a17.94,17.94,0,0,0-.34,2.39c0,2.35,0,4.71,0,7.07C632.19,468.47,632.09,469.48,632,470.85Z" transform="translate(-68.33 -40.02)"/><path class="cls-1" d="M526,487.77l-4.7-1.15c.11-.88.2-1.48.26-2,2.21-.67,10.94-.67,13.1,0l.43,1.51c-1,1.6-2.57.92-3.7,1.29-1.21.57-1.26,1.61-1.27,2.66l0,8.17v2a2.53,2.53,0,0,1-3.59.09c-.06-.68-.19-1.47-.2-2.26,0-2.57,0-5.15,0-7.73A24.32,24.32,0,0,0,526,487.77Z" transform="translate(-68.33 -40.02)"/><path class="cls-1" d="M586.51,500.57c-1.43.64-2.45.64-3.46-.33-1-4.09.56-8.52-.83-12.53l-4.27-1c.09-.89.15-1.5.22-2.11a5.75,5.75,0,0,1,1.42-.41q5-.06,9.94,0a1.83,1.83,0,0,1,2,1.67c-.8,1.16-.8,1.16-4.42,1.77a17,17,0,0,0-.38,2.4c-.05,2.79,0,5.59,0,8.39C586.65,499.11,586.57,499.83,586.51,500.57Z" transform="translate(-68.33 -40.02)"/><path class="cls-1" d="M836.52,504.85l-2.76.16a10.67,10.67,0,0,1-.75-2.56c0-2.2.16-4.4.14-6.59,0-1.37-.25-2.73-.39-4.23l-4.14-.65-.52-2.25c2.15-.86,11.42-.82,13.25-.05.35,1.8,0,2.34-1.58,2.56-.78.11-1.58.17-2.49.26C836.2,495.88,837.34,500.27,836.52,504.85Z" transform="translate(-68.33 -40.02)"/><path class="cls-1" d="M255.47,465.78c1.45-1.16,2.53-1.08,3.62.12.49,4-.1,8.21.38,12.12,2.44,1.32,5.47-.63,7.15,2.18a2.11,2.11,0,0,1-2.1,1.39c-3-.13-6.12.58-9-.72Z" transform="translate(-68.33 -40.02)"/><path class="cls-1" d="M433.62,517.46a10.69,10.69,0,0,1-.18-1.38c0-3.74,0-7.49,0-11.24a4.75,4.75,0,0,1,.25-1.72,1.9,1.9,0,0,1,2.23-1.38,1.74,1.74,0,0,1,1.46,1.92c0,2.07,0,4.13,0,6.19v4.59c2.07,1.93,4.47.27,6.64,1.48l.48,1.47C442.72,518.63,435.71,518.66,433.62,517.46Z" transform="translate(-68.33 -40.02)"/><path class="cls-1" d="M519.22,484.53c.83,1.66,1,13.46.3,15.91-1.56.77-1.56.77-3.24-.09a2.66,2.66,0,0,1-.23-.77c0-4.33-.07-8.65,0-13C516.08,484.53,516.82,484.1,519.22,484.53Z" transform="translate(-68.33 -40.02)"/><path class="cls-1" d="M272,480.51c-2,1.39-2.16,1.39-3.76,0,0-4.4,0-8.86,0-13.33a2.24,2.24,0,0,1,2.1-2.4l1.65,1.05Z" transform="translate(-68.33 -40.02)"/><path class="cls-1" d="M427.6,502c2.34-.62,3.14-.12,3.17,2,.07,4.45,0,8.9,0,13.38-1.63,1.26-2.11,1.26-3.67,0,0-4.44,0-8.84,0-13.24A10.29,10.29,0,0,1,427.6,502Z" transform="translate(-68.33 -40.02)"/><path class="cls-1" d="M858.22,488.69c1.2-.68,2.14-.79,3.16.12a7.63,7.63,0,0,1,.23,1.38c0,4.11,0,8.23-.05,12.34,0,.44,0,1-.2,1.27a3,3,0,0,1-1.67,1.1c-.46,0-1.14-.56-1.44-1a3.37,3.37,0,0,1-.28-1.72q0-5.94,0-11.9A11,11,0,0,1,858.22,488.69Z" transform="translate(-68.33 -40.02)"/></g></svg>