<?xml version="1.0" encoding="utf-8"?>
<!-- Generator: Adobe Illustrator 24.2.3, SVG Export Plug-In . SVG Version: 6.00 Build 0)  -->
<svg version="1.1" id="Layer_1" xmlns="http://www.w3.org/2000/svg" xmlns:xlink="http://www.w3.org/1999/xlink" x="0px" y="0px"
	 viewBox="0 0 859 454.6" style="enable-background:new 0 0 859 454.6;" xml:space="preserve">
<style type="text/css">
	.st0{fill:#FFFFFF;}
</style>
<g>
	<path class="st0" d="M549.9,14.4c-3.5-0.2-7.1-0.3-10.6-0.3c-2.1,0-4.2,0.2-6.3,0.2c-3.6,0.1-7.2,0.1-10.8,0.1
		c-4.2-0.1-7.8,3.2-8.1,7.4c-0.1,1.4-0.2,2.7-0.2,4.1c0,10.9,0,21.8,0,32.6c0,18.6,0,37.2,0,55.8c0,15.1,0,30.1,0,45.1
		c0,2-0.1,4-0.4,5.9c-0.7,5.2-3.2,8.7-8.8,9.3c-1.8,0.2-3.6,0.2-5.4,0c-5.8-0.6-8.5-4.2-9-9.9c-0.3-2.8-0.4-5.7-0.4-8.6
		c0-23.9,0-47.8,0-71.6c0-19.8-0.1-39.6-0.1-59.3c0-2-0.4-4.1-1-6c-0.5-1.9-2-3.4-3.9-4c-1.8-0.6-3.7-0.9-5.6-0.9
		c-8-0.1-16,0-24.1,0.1c-1.4,0-2.8,0.3-4.2,0.7c-2.6,0.9-4.4,3.2-4.8,5.9c-0.3,2.2-0.4,4.5-0.4,6.7c0,22.8,0,45.5,0,68.3
		c0,13.9,0.2,27.8,0.2,41.8c0,10.6-0.3,21.3,0.9,31.9c0.4,4,1,8,1.9,11.9c1.1,4.6,2.8,9,5.1,13.1c1.9,3.6,4.3,6.8,7.2,9.7
		c4.6,4.3,10,7.6,16,9.6c6.2,2,12.6,3.1,19,3.3c5.1,0.2,10.2-0.1,15.2-0.8c3.6-0.4,7.3-1.2,10.8-2.2c5.5-1.5,10.7-4.1,15.1-7.7
		c0.6-0.4,1.3-0.6,2-0.8c0.1,1.1,0.3,1.9,0.3,2.6c0,15.4,0,30.8,0,46.3c0,6.9,0,68.7,0,75.6c-1.4,0.7-2.4,2.1-2.4,3.8
		c0,2.3,1.9,4.2,4.2,4.2s4.2-1.9,4.2-4.2c0-1.6-0.9-3-2.2-3.7c0-3.5,0-6.9,0-10.4c0-19.5,0.1-93.9,0-113.4c0-3.4,0.5-6.3,2.6-9.2
		c4.4-6,7-13,8.5-20.3c1.5-7.6,2.2-15.3,2.3-23c0.1-6.9,0.1-13.8,0.1-20.7c0.1-22.1,0.2-44.1,0.3-66.2c0-11,0-22,0-33
		c0-4.3-0.1-8.7-0.3-13C556.7,17.2,553.4,14.6,549.9,14.4z"/>
	<path class="st0" d="M261.9,207c-0.3-2.7-0.6-5.4-1.1-8.1c-0.7-4.3-1.6-8.7-2.2-12.8c-0.7-4.2-1.2-8.4-1.8-12.5
		c-0.8-5.3-1.7-10.6-2.6-16c-1.2-7.3-2.3-14.5-3.4-21.7c-1.1-7.2-2.3-14.3-3.4-21.5c-0.7-4.4-1.5-8.8-2.2-13.2
		c-0.8-4.8-1.5-9.7-2.3-14.5c-1.1-6.9-2.2-13.9-3.4-20.8c-0.8-5-1.7-9.9-2.5-14.9c-0.8-4.7-1.4-9.3-2.2-14c-0.5-3-1.2-6-1.6-9
		c-0.3-2.3-0.8-4.7-1.5-6.9c-1.2-3.9-4.7-6.6-8.8-6.8c-3.3-0.3-6.7-0.3-10.1-0.3c-4.5,0-8.9,0.2-13.4,0.2c-3.5,0-7-0.2-10.4-0.2
		c-4,0-8,0-11.9,0.3c-1.9,0.1-3.7,1-5,2.4c-2.2,2.2-3.2,5-3.8,8c-0.9,4.6-1.6,9.4-2.4,14.1c-0.6,3.3-1.1,6.6-1.7,9.9l-1.2,7.2
		c-0.7,4.3-1.4,8.7-2.2,13c-1.4,7.9-3,15.7-4.4,23.5c-1,5.6-1.8,11.3-2.8,16.9c-0.5,2.8-1,5.5-1.5,8.3c-0.7,4.3-1.4,8.6-2.1,12.9
		c-0.6,3.5-1.3,7.1-1.9,10.6c-0.9,5.2-1.7,10.4-2.5,15.6c-1,6-1.9,11.9-2.9,17.8c-0.8,4.8-1.6,9.6-2.4,14.3
		c-0.9,5.7-1.6,11.3-2.5,16.9c-0.6,3.5,1.6,9.2,6.3,10.2c0.9,0.2,1.8,0.3,2.8,0.3c5,0,9.9-0.1,14.9-0.2c1.1-0.2,2.1,0.2,2.8,1v2.1
		c0,11.9,0,23.9,0,35.8v100.2c0,5.8,0,11.6,0,17.4c-1.4,0.7-2.3,2.1-2.3,3.7c0,2.3,1.9,4.2,4.2,4.2s4.2-1.9,4.2-4.2
		c0-1.6-0.9-3-2.3-3.7c0-20.3,0-60.5,0-80.8c0-24.1,0-48.1,0-72.2c0.1-1.1,0.2-2.2,0.4-3.2c1.1-0.1,1.9-0.2,2.8-0.2
		c5.3-0.2,8.2-2.5,9.1-7.8c0.3-1.5,0.5-3.1,0.7-4.6c0.7-5.7,1.4-11.5,2.1-17.2c0.5-4.2,1.1-8.4,1.7-12.5c0.2-1.1,0.6-2.1,0.9-3.2
		c0.7-0.1,1.4-0.2,2.1-0.3c7.1,0,14.3,0,21.4,0.1c2.2,0,2.8,0.6,3.2,2.8c0.5,3.3,0.9,6.7,1.3,10c0.8,6.4,1.6,12.8,2.4,19.2
		c0.3,2.8,0.6,5.7,1.9,8.3c1.4,2.8,3.7,4.8,7,4.8c9.4,0.2,18.8,0.2,28.2,0.3c0.2,0,0.5,0,0.7,0C258.8,215.7,262.3,211.6,261.9,207z
		 M206.2,135.4c-0.4,0.1-0.9,0.1-1.3,0.1l-11.2,0.1c-1,0.2-2.1-0.2-2.7-1.1c-0.5-2,0.1-4,0.4-6c0.8-5.9,1.6-11.8,2.5-17.7
		c0.6-4.4,1.2-8.8,1.9-13.3c0.9-6.2,1.7-12.5,2.6-18.8c0.2-1.5,0.6-3.1,0.9-4.6c0.2-0.4,0.4-0.8,0.7-1.1c0.3,0.7,0.5,1.4,0.6,2.2
		c0.9,5.6,1.7,11.3,2.5,16.9c0.9,7,1.9,14,2.8,21c0.8,6.2,1.6,12.3,2.4,18.5c0,0.4,0.1,0.7,0.1,1.1
		C208.5,134.5,208,135.2,206.2,135.4z"/>
	<path class="st0" d="M797.4,200.3c0-5.5,0.1-11.1,0-16.6c0-1.7-0.2-3.3-0.6-5c-0.5-2.8-2.5-4.2-5.1-4.7c-1.4-0.3-2.8-0.4-4.3-0.4
		c-11.6,0-23.1,0-34.7,0c-1.6,0-3.2,0-4.8-0.2c-1.5-0.2-2-0.8-2.1-2.3c-0.1-2.6-0.2-5.2-0.2-7.8c0-7.9,0.2-15.8,0.2-23.7
		c0-1.6-0.1-3.1,0-4.7c0.1-1.9,1-2.7,2.9-2.6c0.7,0,1.4,0.1,2,0.1c8.1,0.1,16.3,0.1,24.4,0.1c0.7,0,1.4,0,2.1,0
		c3.7-0.3,6.8-2.9,7.6-6.5c0.2-0.8,0.3-1.7,0.3-2.6c0-8.1,0-16.2,0-24.3c0-1.6,0-3.2-1-4.5c-1.8-2.5-4.6-4-7.7-4c-2.4,0-4.9,0-7.3,0
		c-6.3,0.1-12.7,0.2-19,0.2c-1.7,0.1-3.4-0.1-5.1-0.6c-0.1-0.7-0.2-1.3-0.2-1.9c-0.1-9.6-0.1-19.3-0.1-28.9c0-0.7,0.1-1.4,0.2-2
		c1-0.7,2.2-1,3.4-0.8c10.6-0.1,21.1-0.2,31.7-0.3c3.2,0,6.5-0.1,9.7-0.4c4.5-0.5,7-3.6,7-8.2c0-8.3-0.1-16.5,0-24.8
		c0.1-5.4-3.8-8.7-8.8-8.8c-1.9,0-3.9-0.1-5.8-0.1c-22.8,0-45.6,0.1-68.5,0.1c-2.1,0-4.2,0.2-6.3,0.6c-3.2,0.6-5.7,3.3-5.9,6.6
		c-0.1,2.5,0,5.1,0,7.6c0,5.2-0.2,10.4-0.2,15.7c-0.1,11.2-0.1,22.4-0.1,33.6c0,39.6,0,79.2,0,118.8c0,3.4-0.1,6.7,0.1,10.1
		c0.2,3.7,1.7,6.6,5.5,7.9c1.1,0.4,2.3,0.6,3.5,0.6c13.2,0.1,26.4,0.1,39.6,0.1c9.4,0,18.8,0,28.2,0c1,0,2-0.1,2.9,0.9
		c0,0.5,0.1,1.1,0.1,1.7c0,5.2,0,10.4,0,15.7c0,11,0,22,0,33c0,8.9,0,34.8,0,43.7c0,5.1-0.2,10.2-0.2,15.3c0,2.1,0,4.3,0.1,6.4
		c-1.3,0.7-2.1,2.1-2.1,3.6c0,2.3,1.9,4.2,4.2,4.2s4.2-1.9,4.2-4.2c0-1.6-1-3.1-2.3-3.7c0-0.3,0-0.7,0-1V218.8
		c0-0.7,0.1-1.5,0.2-2.5c0.9-0.2,1.5-0.3,2.2-0.4c0.9-0.1,1.7,0,2.6-0.1c4.1-0.6,7.3-3.5,7.4-8C797.4,205.3,797.4,202.8,797.4,200.3
		z"/>
	<path class="st0" d="M130.7,111.8c0-3.4-0.3-6.7,0-10.1c0.4-3.7-2.6-7.6-5.6-8.2c-1.4-0.3-2.8-0.5-4.2-0.5
		c-8.8,0-17.5,0.2-26.3,0.2c-0.9-0.1-1.9-0.2-2.8-0.5c-0.1-1.5-0.4-2.8-0.4-4.1c-0.1-8.5-0.1-16.9-0.1-25.4c0-1.5,0-2.9,0-4.3
		c0-1.8,0.5-2.3,2.4-2.4h0.8c5-0.1,10.1-0.2,15.1-0.2c7.4-0.1,14.8,0,22.2-0.1c1.6,0,3.2-0.3,4.8-0.3c2.9-0.2,6.4-3.5,6.3-6.8
		c-0.1-0.7,0-1.4,0-2c0-8.1-0.2-16.2,0-24.3c0.1-4.4-4.2-8.7-8.7-8.7c-2.9,0-5.7,0-8.6,0c-12.8,0-25.6,0.1-38.4,0.1
		c-10,0-19.9-0.1-29.9,0c-1.6,0-3.1,0.3-4.5,0.9c-2.3,1.1-4.3,2.8-4.7,5.6c-0.3,1.8-0.4,3.6-0.4,5.4c0,11.1,0.2,22.2,0.2,33.4
		c0,5.8-0.2,11.7-0.2,17.5c0,7.3,0.2,14.5,0.2,21.8c0,6,0,12,0,18.1c0,6,0,12.2,0,18.3c0,4.3-0.2,8.7-0.2,13c0,7.1,0,14.2,0,21.3
		c0,4.7,0.1,9.5,0.1,14.2c0,4.4,0.1,8.8,0.1,13.2c0,3.8,0,7.7,0.1,11.5c0,1.2,0.4,2.3,0.4,3.5c0,2.7,0,5.4,0,8c0,33.8,0,7.5,0,41.3
		c0,31.1,0,22.2,0,53.3c-1.4,0.7-2.3,2.1-2.3,3.7c0,2.3,1.9,4.2,4.2,4.2s4.2-1.9,4.2-4.2c0-1.7-1-3.1-2.4-3.8c0-0.2,0-0.5,0-0.7
		c0-25.8,0-71.6,0-97.4c0-28.5,0,62.9,0,34.4c0-11,0-22,0-33c0-0.8-0.1-1.6,0.9-2.3c1.1,0.1,2.2,0.3,3.4,0.2c2.7,0.1,5.3,0,8,0
		c6.2,0,12.3,0,18.5,0c5,0,8.3-3.3,8.5-8.3c0-2.4,0-4.7,0-7.1c0-3.9,0-7.8,0-11.8c0-17.2,0-34.4,0-51.6c0.1-0.9,0.2-1.9,0.5-2.8
		c1-0.1,1.8-0.3,2.6-0.3c7.7,0,15.4,0,23.1,0c1.7,0,3.5,0,5.2-0.1c3.5-0.3,7.5-3.6,7.6-6.8C130.7,122,130.7,116.9,130.7,111.8z"/>
	<path class="st0" d="M435.8,189.1c0-2.7,0-5.3-0.2-8c-0.5-5.2-3.9-7.7-8.8-7.8h-1.5c-10.3,0-20.5,0-30.8-0.1c-2.5,0-5-0.3-7.8-0.4
		c-0.3-0.9-0.5-1.7-0.7-2.6c-0.1-1.7,0-3.4,0-5c-0.1-21.3-0.2-42.6-0.3-64c0-6.5,0-12.9,0-19.4c0-12.6,0-25.1,0-37.7
		c0-6.3,0-12.7-0.1-19c0.1-1.8-0.2-3.6-0.8-5.3c-1.2-3.2-4.3-5.3-7.7-5.3c-9.3-0.1-18.5-0.1-27.8,0c-4.8,0.1-8,3.4-8.1,8.2
		c0,1.8,0,3.6,0,5.4v80.8c-0.1,25.5-0.1,51,0,76.5c0,7.5,0.1,15,0.3,22.5c0.1,3.3,2.1,5.7,5,7.1c1.7,0.7,3.6,1,5.4,1
		c6,0.1,11.9,0,17.9,0h29.9c5.2,0,10.4,0,15.7,0c1,0.1,2,0.2,2.9,0.4c0.1,0.9,0.2,1.6,0.2,2.3c0,26.7,0,53.3,0,80
		c0,9.5,0,63.1,0,72.7c-1.3,0.7-2.2,2.1-2.2,3.7c0,2.3,1.9,4.2,4.2,4.2c2.3,0,4.2-1.9,4.2-4.2c0-1.6-0.9-3-2.2-3.7
		c0-36.2,0-116.4,0-152.7c0-0.7,0.1-1.5,0.1-2.3c0.7-0.2,1.4-0.3,2.1-0.4c1.4-0.1,2.7,0,4.1-0.1c2.8-0.1,5.3-2,6.1-4.6
		c0.6-2.1,0.9-4.2,0.9-6.4c0.1-3.2-0.1-6.5-0.2-9.7C435.8,193.1,435.8,191.1,435.8,189.1z"/>
	<path class="st0" d="M656.1,317.8c-0.5-1.5-1-2-2.3-2c-1.3,0-1.7,0.3-2.2,1.8c-1.3,3.5-2.6,7-3.9,10.5c-0.3,0.8-0.5,1.6-1.7,1.6
		l-1.4-0.9c-2-0.3-3.9,0.3-5.8-0.4c-0.5-1.1-0.5-2.4,0.2-3.3c1.7-1.1,3.7,0.3,5.5-1.2c-0.1-0.5-0.2-1-0.3-1.6l-5.6-0.4v-3
		c0.7-0.2,1.5-0.4,2.3-0.5c0.9-0.1,1.9,0,2.8,0c0.9,0.1,1.7-0.5,1.9-1.4c-0.3-0.9-1.3-1.4-2.2-1.2c-2.2,0.1-4.3,0.1-6.5,0.3
		c-0.5,0.1-1.1,0.4-1.5,0.7v14.1c0.6,0.2,1.3,0.4,1.9,0.5c1.5,0,3,0,4.5,0c1.1,0,2.2-0.2,3.3-0.2c0.8-0.1,1.6-0.1,2.4,0
		c0.9,0.3,1.9,0.1,2.5-0.6l0.9-2c1.8-0.6,3.8-0.5,5.6,0.1c1.2,2.9,2.2,3.3,3.9,1.5c-0.5-1.4-1-2.8-1.5-4.3
		C658.1,323.1,657,320.5,656.1,317.8z M654.9,325c-0.8,0.8-1.5,0.5-2.4-0.1c-0.1-0.6-0.2-1.1-0.3-1.7l1.6-2.3
		C654.9,322.4,655.3,323.6,654.9,325z"/>
	<path class="st0" d="M765,351.5c-0.7,2.1-1.2,4.3-1.9,6.4c-0.2,0.5-0.4,1-0.6,1.5c-0.9-0.2-1.5-0.9-1.7-1.8
		c-0.6-1.9-1.1-3.8-1.6-5.7c-0.3-1.2-0.9-2.2-2.3-2.3l-2.2,0.7c-3.3-1.2-6.5-0.6-9.5-0.6c-0.8,0.4-1.3,1.3-1.2,2.3c0,3.7,0,7.3,0,11
		c0,1.5,0.5,2.1,2,2.1c2.1,0.1,4.2,0.1,6.3,0c0.8-0.1,1.6-0.3,2.4-0.5c-0.1-1.3-1.3-2.2-2.5-2.1c-1.1,0-2.2,0.1-3.4,0
		c-0.2,0-0.4,0-0.5-0.1c-0.9-0.3-1.4-1.2-1.2-2.1c0.1-0.5,0.2-0.9,0.4-1.4c1.7-1.2,3.7,0.1,5.4-1.2c-0.1-0.6-0.2-1.2-0.3-1.7
		c-1.8-0.7-3.8,0.3-5.4-1.1c0-0.5-0.2-1.2-0.2-1.7c1.1-1.1,2.2-1.1,3.6-1.2c1.3-0.1,2.6-0.3,4-0.4c1.2,0,1.4,1,1.7,2
		c1.1,3.2,2.2,6.3,3.3,9.5c0.8,2.3,2.1,2.7,4.3,1.4c1.5-4.2,3-8.3,4.4-12.5c0.1-0.6,0.2-1.1,0.2-1.7
		C766.6,349.5,765.6,349.8,765,351.5z"/>
	<path class="st0" d="M168.8,389.6c-0.2,1.2-0.3,2.3-0.5,3.5c-0.2,0.9-0.3,2-1.7,2.4c-1.2-2.6-0.6-5.7-2.5-8h-1.7
		c-1.7,2.5-1.2,5.6-2.9,8.5c-0.4-0.7-0.8-1.4-1.1-2.1c-0.3-1.4-0.5-2.9-0.8-4.4c-0.3-2-1.1-2.5-3.2-1.6c-0.1,0.5-0.1,1,0,1.5
		c0.8,3.7,1.7,7.4,2.5,11.1c0.4,1.7,0.9,2.5,2.1,2.5s1.9-0.8,2.3-2.5c0.1-0.2,0.1-0.5,0.1-0.7c0.2-1.2,0.5-2.3,0.8-3.5
		c0.2-0.8,0.6-1.5,1.8-1.3c0.8,2.5,0.6,5.4,2.1,7.6c2.1,0.5,3,0,3.4-1.9c0.6-2.6,1.2-5.2,1.7-7.8c0.3-1.2,0.5-2.3,0.7-3.5
		c0.1-0.6,0.1-1.1,0.1-1.7l-1.4-0.7C169.7,387.5,169,388.5,168.8,389.6z"/>
	<path class="st0" d="M245.9,337.2C245.8,337.2,245.8,337.2,245.9,337.2c-1-0.1-1.7,0.6-1.8,1.5c0,0.4,0,0.7,0,1.1
		c0,1.3,0,2.6,0,3.9c0,0.7,0,1.4-1.1,1.6c-1.7-2.6-3.4-5.3-5-7.8c-2.5-0.9-3.4-0.3-3.4,2.1c0,3.7,0,7.3,0,11c0,0.6,0.2,1.3,0.3,1.9
		c2.2,0.7,2.9,0.2,2.9-1.8c0-1.4,0-2.7,0-4.1c0-0.8,0.2-1.6,1.3-1.8c2.1,2.4,3.1,5.6,5.5,8.1l2.4-0.3c0.2-0.8,0.3-1.6,0.3-2.3
		c0-3.8,0-7.6,0-11.3C247.3,338.1,246.7,337.4,245.9,337.2z"/>
	<path class="st0" d="M707.9,315.5l-2.2,0.8c-0.7,2.6,0.1,5.2-0.5,7.7c-1.4-0.8-1.5-0.9-2.1-2c-0.9-1.5-1.9-3.1-2.8-4.6
		c-1-1.7-2-1.9-3.9-1.1c-0.6,1.7-0.5,13.1,0.1,14.7h2.3c0.1-0.8,0.2-1.4,0.2-2c0-1.5,0-2.9,0-4.3c0-0.7,0-1.4,0.9-1.8
		c0.5,0.5,1,1,1.5,1.6c1.1,1.7,2.1,3.5,3,5.1c0.9,1.6,2.1,1.9,4,0.8c0.1-0.2,0.1-0.4,0.2-0.6c0-4.2,0.1-8.3,0-12.5
		C708.5,316.7,708.3,316.1,707.9,315.5z"/>
	<path class="st0" d="M137,390.1c0-1.1,0-2-1.1-2.8l-1.8,0.1c-0.2,0.7-0.3,1.5-0.3,2.2c0,1.4,0.1,2.7,0,4.1
		c-0.1,0.8-0.3,1.5-0.5,2.2c-0.5-0.4-0.7-0.5-0.8-0.7c-1.4-2.1-2.7-4.3-4-6.5c-1-1.6-1.5-1.8-4-1.1c0,4.9-0.2,9.7,0,14.7l2.3,0.5
		c1.4-2.7,0.2-5.7,0.9-8.4c0.8-0.1,1.6,0.4,1.9,1.1c0.5,0.9,0.9,1.8,1.5,2.6c1.1,1.5,1.6,3.4,3.4,4.6l1.9-0.1
		c0.3-0.7,0.6-1.4,0.7-2.1c0-2.2,0-4.5,0-6.7C137,392.7,137,391.4,137,390.1z"/>
	<path class="st0" d="M457,391.7h-2c-1,1.4-0.5,2.7-0.7,4.1c-0.2,1.4,0.4,2.8-0.6,4.3c-0.6-0.6-1.2-1.2-1.7-1.9
		c-1-1.7-2.1-3.5-3-5.1c-0.9-1.6-1.8-1.9-4-1.1c-0.3,4.3-0.1,8.8-0.1,13.2c0.1,0.6,0.3,1.2,0.5,1.8h2c1.2-2.8-0.1-5.8,0.9-8.9
		c0.7,0.7,1.3,1.4,1.9,2.2c1.2,1.8,2.2,3.7,3.4,5.5c0.7,1.1,1.7,1.6,3.3,0.9c0.2-0.7,0.4-1.3,0.5-2c0-0.5,0-1-0.1-1.5
		c0-3.3,0.1-6.7,0.1-10C457.5,392.8,457.3,392.2,457,391.7z"/>
	<path class="st0" d="M500.8,351.4c-1.7-0.3-1.7-0.3-2.8,0.9c0,1.1,0,2.4,0,3.6s0.3,2.5-0.5,3.9c-0.6-0.6-1.2-1.2-1.7-1.8
		c-1.1-1.7-2.1-3.5-3-5.1c-0.9-1.6-1.7-1.9-3.7-1.3c-0.7,1.5-0.7,12.9-0.1,14.7c0.8,0.5,1.7,0.4,2.4-0.3c0.6-2.5-0.2-5.1,0.7-8
		c0.6,0.5,1.2,1.2,1.7,1.8c1.1,1.6,2.1,3.3,3,4.9c1.1,1.8,1.5,2,3.9,1.6c0.2-0.6,0.4-1.2,0.4-1.9c0.1-3.5,0.1-7.1,0-10.6
		C501.2,352.9,501,352.2,500.8,351.4z"/>
	<path class="st0" d="M598.9,351.3C598.9,351.3,598.9,351.3,598.9,351.3c-0.8-0.4-1.8-0.1-2.2,0.7c-0.4,2.5,0.3,5-0.5,7.7
		c-0.3-0.2-0.5-0.4-0.7-0.7c-1.4-2.1-2.8-4.3-4.2-6.4c-1-1.6-1.9-1.9-3.8-1.1c-0.5,1.4-0.6,12.4-0.1,14.5c0.8,0.6,1.9,0.5,2.5-0.3
		c0.7-2.4-0.3-5,0.6-7.4c1.2-0.1,1.5,0.6,1.9,1.3c1,1.8,2.1,3.6,3.1,5.3c1,1.7,2.8,1.8,4.2,0.3c0-4,0-8.1,0-12.2
		C599.8,352.4,599.8,351.7,598.9,351.3z"/>
	<path class="st0" d="M442,398.2c1.1-2.2,0.2-4.8-2-5.9c-2.8-1.3-5.8-1-8.7-0.4c-0.1,0-0.1,0.1-0.2,0.2c-0.1,0.1-0.2,0.3-0.2,0.5
		c0,4.2-0.1,8.3,0,12.5c0.1,0.7,0.3,1.5,0.7,2.1c2-0.1,2.4-0.5,2.5-2.2c0.1-1-0.3-2.1,0.6-3.2h2c0.6,1.2,1.2,2.4,1.9,3.6
		c0.9,1.7,1.7,2,3.4,1.5c0.4-0.7,0.3-1.5-0.1-2.1c-0.4-0.6-0.7-1.3-1.1-2c-1-2-1-2,0.4-3.6C441.6,398.9,441.8,398.6,442,398.2z
		 M438.8,397.5c-1,1.5-2.4,1.3-4,1.1v0c-0.9-1.2-1-2.8-0.2-4.1c1.4-0.4,2.7-0.7,3.8,0.5C439.1,395.7,439.3,396.7,438.8,397.5z"/>
	<path class="st0" d="M632.3,318.6c-0.7-1.8-2.5-2.9-4.4-2.8c-1.7,0-3.3,0-5,0c-0.5,0-1,0.1-1.5,0.3c-0.5,2-0.5,13.5,0.1,14.7
		c1.6,0.5,1.6,0.5,2.9-0.7c0-0.8,0-1.8,0-2.8c-0.1-0.8,0.5-1.5,1.2-1.6c0.8-0.2,1.5,0.3,1.8,1c0.5,1,1.1,2.1,1.6,3.1
		c0.8,1.5,2,1.7,3.6,0.7c-0.1-2.1-2.3-3.5-2.2-5.8c0.4-0.5,0.8-1,1.1-1.5C632.5,321.8,633.1,320.4,632.3,318.6z M628.7,322.2
		c-0.8,0.9-2.5,1-4.1,0.1c-0.2-1.4-0.7-2.9,0.8-4.1l2.9,0.5C629.4,320.1,629.5,321.3,628.7,322.2z"/>
	<path class="st0" d="M541,359.1c1.3-1.4,1.7-3.4,0.9-5.2c-0.7-1.7-2.4-2.9-4.3-2.8c-1.7,0-3.4,0-5,0c-0.5,0.1-1,0.2-1.5,0.3
		c-0.6,2.3-0.5,13.4,0.3,14.9l2.3-0.2c0.2-1.7,0.4-3.2,0.6-4.8c1.8-0.7,2.3-0.5,3,0.7c0.6,1,1,2.1,1.6,3.1c0.8,1.4,2.2,1.5,3.4,0.3
		c-0.2-2-2.5-3.3-2.1-5.6L541,359.1z M538.2,357.8L538.2,357.8c-1.4,0.4-2.8,0.9-4.1-0.3c0.2-1.3-0.3-2.7,0.9-3.8
		c1.2,0.1,2.7-0.3,3.5,0.9C539.2,355.6,539.1,357,538.2,357.8z"/>
	<path class="st0" d="M509.5,351.2c-0.7-0.1-1.5,0-2.2-0.1c-2.6-0.2-3.2,0.3-3.2,3c0,3.5,0,6.9,0,10.4c0,0.5,0.1,1,0.2,1.5
		c0.5,0.2,1.1,0.4,1.6,0.5c1.5,0.1,3,0.1,4.5-0.1c2-0.2,3.8-1.4,4.7-3.2c0.8-1.8,1.1-3.7,0.9-5.6C515.8,354.1,513,351.2,509.5,351.2
		z M511.8,362.6c-0.5,0.8-1.4,1.3-2.3,1.3c-1.3,0.1-2-0.4-2-1.8c0-2.2,0-4.3,0-6.5c0-1.5,0.7-2,2.1-1.8c0.6,0.1,1.2,0.3,1.8,0.5h0
		C513.3,357.1,513.4,360.3,511.8,362.6z"/>
	<path class="st0" d="M608.7,351.2c-1.4-0.1-2.7-0.1-4.1-0.1c-0.5,0.1-1.1,0.2-1.6,0.4c-0.8,4.7-0.2,9.4-0.4,14.4
		c0.7,0.3,1.3,0.5,2,0.6c0.9,0.1,1.9,0,2.8,0c0.2,0,0.3,0,0.5,0c3.7-0.1,6.7-3.2,6.6-7c0-0.8-0.1-1.6-0.1-2.4
		C614.1,354,611.7,351.6,608.7,351.2z M611.1,361.4c-0.4,1.4-1.6,2.4-3,2.5c-1.4,0.2-2.2-0.3-2.2-1.8c0-2.1,0-4.2,0-6.3
		c0-1.6,0.8-2.2,2.4-1.9c0.5,0.1,1.1,0.3,1.6,0.5h0C611.7,356.6,611.7,359,611.1,361.4z"/>
	<path class="st0" d="M202.8,387.2c-0.5,0-1,0-1.5,0c-2.2,0-2.6,0.5-2.6,2.7c0,3.5,0,7.1,0,10.6c0,0.5,0.1,1,0.2,1.5
		c1.2,1.2,2.6,0.9,3.9,0.9c2.1,0.1,4.1-0.7,5.6-2c1.9-1.7,2.3-4.1,2.2-6.5C210.4,389.8,206.6,386.7,202.8,387.2z M206.5,398.5
		c-1,1.6-2.6,2.1-4.6,1.1c0-1.7,0-3.4,0-5.1c0-0.7,0-1.5-0.1-2.2c-0.2-0.8,0.1-1.6,0.6-2.2c2.2-0.5,3.5,0.2,4.4,2
		C207.9,394.1,207.8,396.6,206.5,398.5z"/>
	<path class="st0" d="M777.7,349.5c-3.3-0.3-5.4,0.8-6.7,3.9c-0.5,1.3-0.8,2.7-1.1,4.1l0.2,0c0,0.6,0,1.3,0.1,1.9
		c0.4,2.5,1.7,4.6,4,5.5c4,1.4,7.6,0,8.9-4.5c0.5-2,0.5-4.1-0.1-6.1C782.4,351.8,780.3,349.9,777.7,349.5z M780.4,357.4
		c-0.3,1.3-0.6,2.4-1,3.6c-0.4,1.2-1.4,1.4-2.5,1.5c-1.1,0.2-2.2-0.3-2.6-1.3c-1.1-2.5-1.1-5.3,0-7.7c0.5-1,1.6-1.5,2.7-1.3
		c1-0.1,2,0.5,2.4,1.5C779.8,354.9,780.1,356.2,780.4,357.4L780.4,357.4z"/>
	<path class="st0" d="M316.9,346l3,2.3l-0.9,1.9c-3.7,0.5-5.3-0.7-5.5-4c0-1,0-2,0.1-3c0-1.5,1.1-2.9,2.5-3.4
		c1.5-0.5,2.5,0.3,3.4,1.4s1.4,1.1,2.7,0.5c0.6-1.3-0.1-2.2-0.9-3c-2.5-2.3-6.3-2.3-8.8-0.1c-2.4,2.3-2.5,5.3-2.1,8.3
		c0.1,2.1,1.2,4,3,5.1c2.1,1.3,4.3,1.1,6.5,0.6c1.2-0.3,2.2-1.1,2.8-2.2c0.7-1.6,0.8-3.4,0.3-5C320.6,344.2,318.1,344.3,316.9,346z"
		/>
	<path class="st0" d="M688.7,323c-1.3,0.1-1.6,0.7-1.1,2.2l2,0.6v2.2c-2.4,1.1-4.6,0.7-5.3-1.1c-0.9-2.2-0.9-4.7,0-6.9
		c0.2-0.4,0.4-0.7,0.7-1c1.2-1.2,3.1-1.2,4.3,0c0.4,0.4,0.7,0.8,1,1.2c1.5,0.2,1.5,0.2,2.4-0.6c0-1.5-0.9-2.8-2.3-3.3
		c-4.1-1.9-8.6-0.3-9.7,4.5c-0.5,2.2-0.4,4.5,0.4,6.6c0.7,1.8,1.9,3.4,3.9,3.7c1.6,0.2,3.2,0.2,4.8,0c1.4-0.1,2.7-1,3.3-2.3
		c0-1.7,0.3-3.5-0.2-5.2C691.5,322.6,690,323,688.7,323z"/>
	<path class="st0" d="M117.5,394.4c0.3-0.6,0.6-1.2,1-1.8c0.8-1.1,1.8-2.2,2.7-3.3c0.7-0.9,0.6-1.1-0.4-2.1
		c-1.3-0.1-2.6,0.6-3.2,1.8c-0.9,1.5-2.1,2.8-3.6,3.8c-1.3-1.6,0.2-3.7-1.4-5.2h-1.9c-0.3,0.6-0.4,1.2-0.5,1.9
		c0,4.4-0.3,8.8,0.3,13.3l2.6,0.2c0.2-1.3,0.3-2.4,0.4-3.5c0.2-1.5,0.3-1.7,2.2-2c0.5,0.8,1,1.7,1.6,2.5c0.5,0.8,1.2,1.6,1.9,2.3
		c0.9,0.8,1.5,0.8,2.8,0c-0.3-1.5-0.9-2.8-1.9-3.9C119.2,397.2,118.5,395.9,117.5,394.4z"/>
	<path class="st0" d="M149,387.8c-3-1.7-6.9-0.5-8.5,2.5c-0.8,1.5-1.2,3.2-1.1,4.9c-0.1,1.6,0.2,3.1,1.1,4.4c0.5,1,1.2,1.8,2.1,2.4
		c2.9,1.9,6.8,1.2,8.7-1.7c2-3.2,1.8-6.6,0.4-9.8C151.1,389.3,150.2,388.4,149,387.8z M149.2,397.2c-0.2,0.9-0.7,1.7-1.4,2.4
		c-0.3,0.3-0.6,0.5-1,0.6c-1.5,0.5-3.2-0.3-3.7-1.8c-0.8-2.2-0.8-4.6,0-6.7c0.6-1.8,2.5-2.3,4.7-1.4h0
		C149.7,392.3,149.7,394.7,149.2,397.2z"/>
	<path class="st0" d="M219.1,395.9l3,2.2c0,1.2-0.3,1.8-1.1,2.1c-0.2,0.1-0.4,0.2-0.6,0.2c-1.9,0.5-3.8-0.7-4.3-2.6
		c-0.3-1.7-0.4-3.5-0.1-5.2c0.5-2.9,3.4-3.8,5.5-1.8c0.3,0.3,0.5,0.5,0.8,0.8c0.6,0.6,1.6,0.7,2.2,0.1c0.4-0.7,0.2-1.6-0.3-2.3
		c-2.5-3.8-8.9-3-10.5,0.5c-1.2,2.8-1.4,6-0.5,8.9c0.4,1.2,1.2,2.2,2.2,2.9c2.8,2,6.4,1.7,9.6-0.9c0.1-1.9,0.5-3.9-0.2-6.1
		C222.9,395.1,220.9,393.9,219.1,395.9z"/>
	<path class="st0" d="M424.2,393.7c-0.3-0.8-0.7-1.5-1.2-2.2l-2.7,0.2c-1.7,4.6-3.4,8.8-5,13.2c-0.7,1.8,0.2,2.5,2.4,2
		c0.2-0.5,0.4-0.9,0.7-1.4c0.4-0.6,0.9-1.1,1.6-1.4c2-0.9,4.4-0.1,5.4,1.8c0.8,1.2,1.2,1.3,3,1c0.1-0.7,0-1.4-0.1-2.1
		C427.1,401.1,425.7,397.4,424.2,393.7z M422.8,401.2l-2.6-0.6c0.5-1.4,0.8-2.4,1.1-3.3C423.2,397.9,423.8,399.3,422.8,401.2z"/>
	<path class="st0" d="M483.7,351.4c-0.7,0.4-1,1.1-0.9,1.9c0,0.3,0,0.6,0,0.9c0,2.2,0,4.4,0,6.5c0.1,1.1-0.3,2.3-1.3,3
		c-0.4,0.3-1,0.4-1.5,0.4c-1.6,0-2.9-1.3-2.9-2.9c0.1-2.7,0-5.3,0-8c-0.1-1.8-0.6-2.2-2.8-1.8c-0.2,0.6-0.3,1.3-0.4,2
		c0,2.4,0,4.9,0,7.3c0.1,3.6,1.7,5.5,5.3,6c4,0.6,6.9-1.9,6.9-5.9c0-2.4,0-4.7,0-7.1c0-0.6-0.1-1.2-0.1-1.7
		C485.5,351.2,484.5,351,483.7,351.4z"/>
	<path class="st0" d="M334,339.9c-0.4-0.9-0.9-1.8-1.5-2.6h-2.3c-0.4,0.9-0.9,1.7-1.3,2.6c-1.3,3.5-2.6,7-3.9,10.5
		c-0.3,0.8-0.6,1.5,0.1,2.3c2.7,0.9,2.7-1.9,4.3-3h4.6c0.4,0.6,0.7,1.2,1.1,1.9c0.7,1.3,1.3,1.5,3.1,0.9c0-0.8-0.1-1.6-0.3-2.4
		C336.6,346.6,335.3,343.3,334,339.9z M332,346.8c-1,0.4-1.7,0-2.1-1.2l0.8-2.7l1.5,0.2c0.2,0.7,0.3,1.1,0.5,1.6
		C333,345.6,333,346.4,332,346.8z"/>
	<path class="st0" d="M90.8,393c-0.5-1.4-1.1-2.9-1.7-4.3c-0.3-0.9-1.1-1.4-2-1.4c-1,0.2-1.8,0.9-2.1,1.8c-1.4,3.8-2.8,7.5-4.2,11.3
		c-0.2,0.6-0.3,1.3-0.3,2c3.1,1.6,3-1.4,4.1-2.5c0.1-0.1,0.3-0.1,0.4-0.2c2.4-0.2,4.9-0.7,6.1,2.4c0.4,1,1.2,1,2.8,0.3
		c-0.1-0.8-0.3-1.6-0.5-2.4C92.5,397.7,91.7,395.3,90.8,393z M85.9,396.7c-0.9-1.7,0.5-2.7,0.9-4l0.6-0.1l1.1,2.9
		C87.7,397.1,87.7,397.1,85.9,396.7z"/>
	<path class="st0" d="M46.8,334.1c-0.8-2.1-1.4-2.3-3.8-1.6c-0.4,0.7-0.8,1.5-1.1,2.2c-1.4,3.7-2.8,7.4-4.2,11.1
		c-0.1,0.4-0.1,0.9,0,1.3c3,1.7,3.1-1.3,4.3-2.4c0.5-0.1,0.9-0.2,1.3-0.2c2.1-0.2,4.1-0.2,5,2.3c0,0.1,0.1,0.2,0.2,0.3
		c0.5,0.7,1.4,0.8,2.1,0.3c0.5-0.8,0.5-1.8,0.1-2.6C49.5,341.3,48.1,337.7,46.8,334.1z M45.3,341.7h-1.7c-0.8-1.8-0.5-2.8,0.9-4.1
		C45.9,338.6,46.2,340.4,45.3,341.7z"/>
	<path class="st0" d="M580.5,353.2c-0.8-2.1-1.5-2.4-3.9-1.7c-2.1,4.5-3.6,9.4-5.5,14.4c0.6,0.2,1.2,0.4,1.9,0.4c1.8,0,1.7-2,3-3
		c0.9,0,1.8,0,2.7,0c1.3-0.2,2.5,0.5,2.9,1.7c0.6,1.4,1.1,1.4,2.8,1c0.6-1.2,0-2.3-0.4-3.3C582.9,359.6,581.7,356.4,580.5,353.2z
		 M579.1,360.8l-1.9-0.1c-0.7-2-0.5-2.8,1.2-4.1C579.4,357.7,579.6,359.3,579.1,360.8z"/>
	<path class="st0" d="M816.1,362.5c-0.7-1.5-0.7-2.6,0.1-3.6c1.7-1.1,4,0.6,5.6-1.4l-0.9-1.5l-4.4-0.2c-0.8-0.8-1-2-0.4-3
		c1.9-0.5,4-0.6,6-0.3c0.3-0.6,0.6-1.2,0.8-1.6c-0.5-0.9-1.4-1.3-2.4-1.2c-1.8,0-3.6,0-5.4,0c-1-0.1-1.9,0.3-2.5,1.2l0,13.7
		c1.5,0.9,8.2,1.1,10,0.3c0.5-0.9,0.2-1.5-0.5-2.3H816.1z"/>
	<path class="st0" d="M190.7,389.8c2-0.3,4.1,0.6,5.9-0.7c-0.3-1.7-0.7-2.1-2.5-2c-1.8,0.1-3.6,0.1-5.4,0.2
		c-0.6,0.1-1.3,0.1-1.9,0.3c-0.8,2.2-0.8,13.5,0.1,15.4c3.2-0.2,6.5,0.6,9.7-0.5c-0.1-1.7-0.4-2-1.7-2.1c-1.2,0-2.4,0-3.5,0
		c-0.1,0-0.3,0-0.4,0c-1-0.2-1.6-1.1-1.5-2.1c0.1-0.6,0.3-1.2,0.5-1.8l5-0.4c0.2-0.3,0.4-0.7,0.5-1c0.1-0.3,0.1-0.5,0.1-0.8
		c-1.2-0.9-2.5-0.5-3.7-0.6c-1-0.1-1.9-0.2-2.2-1.3c0,0,0,0,0,0C189.2,391.3,189.7,390.2,190.7,389.8z"/>
	<path class="st0" d="M553.4,358.4c-1.2-0.6-2.4-1.1-3.6-1.6c0,0,0,0,0,0c-1-0.2-1.6-1.3-1.4-2.3c1.4-1.4,2.5-1.5,3.9-0.4
		c0.4,0.3,0.7,0.7,1.1,0.9c1,0.7,1.5,0.6,2.7-0.5c-0.1-0.4-0.3-0.9-0.5-1.3c-1.9-3-6.7-2.9-8.5-1.8c-0.7,0.4-1.3,1-1.6,1.7
		c-1,1.9-0.2,4.3,1.8,5.3c1.4,0.8,2.8,1.4,4.2,2c0.9,0.5,1.7,1,1.7,2.2c-1.8,1.8-3.3,1.8-5.1,0.1c-0.6-0.5-1.3-1-1.9-1.5l-1.3,1.1
		c0.1,1.3,0.9,2.5,2,3.1c2.1,1.3,4.7,1.4,7,0.4c2.8-1.3,3.3-4.1,1.6-6.2C554.8,359.4,554.2,358.8,553.4,358.4z"/>
	<path class="st0" d="M412.5,404.6c-1.1-0.1-2.2-0.1-3.4,0c-1,0.2-1.9-0.4-2.3-1.2c-0.5-1-0.1-2.3,0.9-2.8c1.1-0.1,2.3-0.1,3.5-0.2
		c1-0.1,1.7-0.5,1.5-1.8c-1.4-1.5-3.5-0.1-5-0.9c-1-1.4-1-1.6-0.1-3.4c0.9,0,2-0.1,3-0.1c1,0,2-0.1,3.2-0.2c0.1-0.8,0.2-1.4,0.2-1.9
		c-1.9-0.8-8.5-0.8-10-0.1c-0.5,1.6-0.4,13.2,0.2,14.8c3.2,0.6,6.6,0.6,9.8,0C414.1,405.1,413.8,404.7,412.5,404.6z"/>
	<path class="st0" d="M273.5,350.3c-1.3-0.1-2.5,0-3.8-0.1c-1.6-0.1-2.2-0.8-2.2-2.2s0.6-1.9,2.2-1.9c1,0,2.1,0,3.3,0
		c0.2-0.8,0.3-1.5,0.5-2.3l-5.1-0.6c-1-1.3-1-2.2,0-3.2c1.9-0.7,4.1,0.3,6.2-0.9c-0.1-0.6-0.1-1.1-0.2-1.7c-3.3-0.5-6.3-0.1-9.6,0
		c-0.1,0.9-0.2,1.4-0.2,2c-0.1,3.7-0.2,7.4-0.2,11.1c0,1.6,0.7,2.4,2.4,2.4c1.9,0,3.8,0.1,5.8,0c0.8-0.1,1.5-0.3,2.2-0.5
		c-0.1-0.8-0.2-1.4-0.3-1.9C274.1,350.4,273.8,350.3,273.5,350.3z"/>
	<path class="st0" d="M285.5,344.8c-1.2-0.6-2.4-1-3.6-1.5c-1.6-0.7-1.9-1.4-1.2-3c2.1-1,2.3-0.9,3.9,0.5c0.8,0.7,1.6,1.4,2.8,0.7
		c0.5-1.4,0.5-1.4-0.2-2.2c-2-2.5-5.5-3-8.5-1.2c-0.4,0.2-0.8,0.5-1.1,0.9c-1.3,1.6-1.1,4,0.5,5.3c0.9,0.7,2,1.3,3,1.7
		c0.6,0.3,1.3,0.4,1.9,0.7c1.6,0.8,1.8,1.9,0.7,3.5c-1,0.5-2.2,0.4-3.2-0.2c-0.9-0.7-1.7-1.4-2.5-2.2l-1.4,0.6
		c-0.5,1.5,0.3,2.3,1.2,3c1.7,1.5,4.1,2,6.3,1.5c1.9-0.3,3.4-1.7,3.8-3.6C288.3,347.3,287.2,345.5,285.5,344.8z"/>
	<path class="st0" d="M233.2,389.8c1,0,2,0,3,0c0.9,0.1,1.8-0.3,2.5-1l-0.8-1.6H231c-2.4,0-2.8,0.4-2.8,2.7c0,3.5,0,7.1,0,10.6
		c0,0.6,0.1,1.2,0.2,1.7c0.4,0.2,0.7,0.5,0.9,0.5c2.6,0,5.2,0.1,7.8,0c1.1,0,1.3-0.6,1.1-2.2c-0.6-0.1-1.2-0.2-1.7-0.3
		c-0.9,0-1.8,0-2.8,0c-1,0-1.9-0.1-2.3-1.1c-0.5-1.1-0.1-2.3,0.9-2.9l4.7-0.2l0.4-1.9c-0.4-0.2-0.8-0.4-1.2-0.6c-1-0.1-2,0-3-0.1
		c-1,0-1.9-0.8-1.9-1.9C231.3,390.5,231.9,389.9,233.2,389.8z"/>
	<path class="st0" d="M359.9,339.7c0.7,0.1,1.5,0.1,2.2,0.1c0.7-0.1,1.4-0.3,2-0.6c-0.1-0.7-0.2-1.2-0.3-1.9c-3.1-0.2-6.2-0.2-9.2,0
		c-0.2,0.4-0.4,0.8-0.5,1.3c0,4.3,0,8.6,0,12.9c0,0.4,0.3,0.8,0.5,1.2c2.7,0.3,5.5,0.3,8.2,0.1c1.2,0,1.4-0.7,1-2.2
		c-2-0.9-4.4,0.4-6.5-1v-3.2c1.4-0.1,2.6-0.1,3.8-0.2c1.5-0.1,1.9-0.6,1.7-2.1c-0.8-0.9-1.7-0.4-2.6-0.5c-1-0.1-1.9-0.3-2.7-0.4
		C356.8,340.6,357.6,339.6,359.9,339.7z"/>
	<path class="st0" d="M523.2,353.6c4.3,0.4,4.5,0.3,5.6-1.3c-0.2-0.7-1-1.2-1.7-1.1c-2.4,0-4.8,0-7.3,0.1c-0.5,0.1-0.9,0.3-1.3,0.6
		c-0.1,0.2-0.1,0.5-0.2,0.8c0,4.1,0.1,8.2,0.2,12.3c0.1,0.4,0.2,0.9,0.3,1.3c0.2,0.1,0.4,0.2,0.7,0.3c2.7,0,5.3,0,8,0
		c0.5,0,0.9-0.4,1.4-0.6c-0.1-1.1-1.1-1.9-2.2-1.9c-1,0-2,0.1-3,0c-0.6-0.1-1.3-0.3-1.9-0.5c-0.5-1.3-0.2-2.7,0.9-3.6
		c0.7,0,1.6,0,2.5,0c1,0,2,0.2,2.6-1.1c-0.4-1.4-1.6-1.4-2.6-1.5c-1.1-0.1-2.2-0.1-3.1-0.2C521.3,354.8,521.4,354.5,523.2,353.6z"/>
	<path class="st0" d="M806.5,351.8c-0.6,2.1-1.1,4.2-1.7,6.3c-0.2,0.4-0.3,0.7-0.6,1.1l-1.4-0.3c-0.2-0.8-0.4-1.4-0.5-2.1
		c-0.5-1.8-1.1-3.7-1.6-5.5c-0.3-0.9-1.1-1.6-2.1-1.6c-0.8-0.1-1.3,0.2-1.5,1.2c1.4,4.2,2.9,8.4,4.3,12.5c0.5,1.5,0.9,1.8,2.2,1.8
		c1.2,0.2,2.4-0.7,2.6-1.9c0.3-0.9,0.5-1.8,0.8-2.7c1.1-3.1,2.2-6.2,3.3-9.3c0.1-0.3,0.1-0.7,0-1C808.3,349.4,807,349.9,806.5,351.8
		z"/>
	<path class="st0" d="M258.7,339.2c-0.6,1.9-1.1,3.8-1.7,5.7c-0.2,0.8-0.4,1.7-1.7,2c-0.3-0.6-0.6-1.1-0.8-1.7
		c-0.6-1.9-1.1-3.8-1.7-5.7c-0.3-0.7-0.6-1.4-1.1-2.1h-2.6c0,0.9,0.1,1.7,0.3,2.6c1.2,3.4,2.4,6.9,3.6,10.3c0.3,1.1,1,2,1.9,2.6
		c1.8,0.1,2.7-0.6,3.2-2.2c0.2-0.8,0.5-1.7,0.7-2.5c1-3,2.1-6,3.1-8.9c0.1-0.5,0.2-1,0.2-1.5C260.1,337,259.3,337.3,258.7,339.2z"/>
	<path class="st0" d="M99.1,391.3c0.8-1.5,2.6-2,4.1-1.2c0.5,0.4,0.9,0.8,1.3,1.3c1,1.1,1.4,1.1,3.2,0.4c-0.1-0.7-0.2-1.3-0.5-1.9
		c-1.4-1.9-3.2-3.1-5.7-2.8c-2.7,0.3-4.7,1.6-5.5,4.2c-0.7,2.2-0.8,4.5-0.3,6.8c0.2,1.1,0.8,2,1.5,2.8c2.4,2.7,6.5,2.9,9.1,0.5
		c1-0.8,1.8-1.9,1.1-3.4c-1.1-0.5-2.5-0.1-3.1,1c-0.7,1.1-2,1.6-3.2,1.2c-1.3-0.3-2.2-1.4-2.3-2.7c-0.2-1.8-0.2-3.6,0-5.4
		C98.9,391.9,99,391.6,99.1,391.3z"/>
	<path class="st0" d="M36.4,333.9l-0.5-1.7l-8.8,0c-0.9,1.8-1.1,6.4-0.7,13.3c0.1,0.8,0.3,1.5,0.5,2.2l1.9-0.1c1.3-1.9,0-4,1-5.6
		c1.7-1.4,3.9-0.2,5.7-1.2v-1.5c-1.8-1.4-4.1,0.3-5.8-1.4c-0.5-0.9-0.3-2,0.4-2.8C32,334,34.3,335.4,36.4,333.9z"/>
	<path class="st0" d="M290,337.2l-0.4,1.8c1.1,1.5,2.8,0.3,4.1,1.5c0.2,0.8,0.3,1.7,0.3,2.5c0,2.4,0,4.7,0,7.1
		c0,0.7,0.1,1.5,0.1,2.1c2,1.3,3.1,0.8,3.2-1.4c0-0.2,0-0.4,0-0.6c0-2.4,0-4.8,0-7.3c0-2.8,0.5-3.3,3.4-3.2c0.1,0,0.3,0,0.4-0.1
		c0.8-0.6,0.9-1.4,0.1-2.5H290z"/>
	<path class="st0" d="M347.7,337.2c-2,0-4.1,0-6.1,0.1c-1.4,0.1-1.6,0.3-1.7,2.1l4.1,0.9c0.1,0.7,0.2,1.5,0.3,2.2c0,2.5-0.1,5,0,7.4
		c0.1,0.9,0.2,1.8,0.4,2.8h2.6c0.1-0.9,0.2-1.7,0.2-2.4c0-2.6,0-5.2,0-7.8c0-0.7,0.1-1.5,0.2-2.2c0.3-0.2,0.4-0.3,0.6-0.3
		c0.7-0.1,1.4-0.1,2-0.2c1.5-0.1,1.8-0.7,1.1-2.6H347.7z"/>
	<path class="st0" d="M568.1,351.1c-2.9,0-5.8,0-8.6,0c-0.5,0-0.9,0.1-1.4,0.3c-0.1,0.3-0.2,0.5-0.3,0.8c0,0.4,0.1,0.7,0.2,1
		c0.7,0.2,1.4,0.4,2.1,0.5c1.7,0.2,2.1,0.6,2.1,2.3c0,1.6,0,3.2,0,4.8v4.8c1.2,1.1,2.1,1.1,3.2,0.2c0-0.5,0.1-1.2,0.1-1.9
		c0-2.5,0-5.1,0-7.6c0-0.9-0.1-1.8,0.9-2.4l2.7-0.1l1.1-1.3C570,351.4,569,350.9,568.1,351.1z"/>
	<path class="st0" d="M395.8,404.4c-0.7-0.6-1-1.5-0.9-2.4c0-2.7,0.1-5.5,0-8.2c0-2.1-1.1-2.7-3.3-1.5c0,4.6-0.1,9.4,0.1,14.3
		c0.5,0.3,1,0.5,1.5,0.6c2.2,0.1,4.5,0.1,6.7,0.1c1,0,1.7-0.6,1.7-2C399.8,403.9,397.7,405,395.8,404.4z"/>
	<path class="st0" d="M68.5,344.5c0-1.8-0.1-3.8-0.1-5.6c0-2.2,0.5-4.3-0.5-6.6l-2.2-0.3c-0.2,0.9-0.4,1.8-0.5,2.7
		c-0.1,3.6-0.1,7.2-0.1,10.8c-0.1,0.9,0.4,1.8,1.2,2.3h8.3l0.4-1.9C73,344.4,70.6,346,68.5,344.5z"/>
	<path class="st0" d="M182.4,400.3c-1.3,0-2.6,0-4.1,0c-0.4-0.7-0.6-1.5-0.8-2.3c-0.1-2.8,0-5.6,0.1-8.4c0.1-2.1-0.9-2.8-2.9-1.9
		c-0.6,1.8-0.6,13,0,14.6c1.9,1,8,0.9,9.5-0.3C184,400.5,183.7,400.3,182.4,400.3z"/>
	<path class="st0" d="M668.6,328.6c-1.1,0-2.1,0.1-3.1-1.1v-2c0-2.6,0-5.1,0-7.6c0-0.9,0-1.8-1.2-2.3l-1.7,0.5
		c-0.3,4.9-0.1,9.7-0.1,14.6l0.4,0.1c0.1,0.1,0.2,0.2,0.3,0.2c2.6,0.1,5.2,0.1,7.8,0.1c0.5,0,1-0.5,1.6-0.9
		c-0.4-0.7-0.6-1.1-0.9-1.6H668.6z"/>
	<path class="st0" d="M56.5,344.4c-0.1-0.8-0.2-1.6-0.3-2.4c0-2.4,0-4.8,0-7.3c0-0.8-0.2-1.6-0.2-2.5l-2.3-0.2
		c-0.2,0.7-0.3,1.3-0.4,2c0,3.8,0,7.6,0,11.3c-0.1,0.8,0.3,1.7,0.9,2.2h8.3l0.4-2C60.8,344.6,58.6,345.8,56.5,344.4z"/>
	<path class="st0" d="M789.1,361.7v-3.3c0-2.4,0.1-4.7,0-7.1c0-0.1,0-0.2,0-0.3c-0.1-0.8-0.9-1.3-1.7-1.2c-1,0.1-1.5,0.7-1.5,1.8
		c0,4,0,7.9,0,11.9c0,0.4,0.1,0.8,0.2,1.2c2.3,0.9,4.8,0.3,7.1,0.5c0.9,0.2,2-0.1,2.6-0.8c-0.1-0.5-0.3-1-0.5-1.6
		C793.2,362.2,791,363.3,789.1,361.7z"/>
	<path class="st0" d="M676.2,315.8C676.2,315.8,676.2,315.8,676.2,315.8c-0.9-0.1-1.6,0.6-1.7,1.4c0,0.2,0,0.4,0,0.6
		c0,3.4,0,6.8,0,10.2c0.1,1,0.2,1.9,0.4,2.9c1.1,0.3,1.8,0.6,2.8-0.4c0-0.5,0.1-1.1,0.1-1.7c0-3.5,0-7.1,0-10.6c0-0.4,0-0.7-0.1-1.1
		C677.7,316.4,677,315.8,676.2,315.8z"/>
	<path class="st0" d="M231,337.4l-2.1-0.1c-0.2,0.7-0.4,1.4-0.5,2.1c0,3.7-0.1,7.4,0,11.2c0.1,0.7,0.3,1.5,0.5,2.2
		c2,0.2,2.5-0.1,2.5-1.6c0.1-4.1,0-8.2,0-12.3C231.4,338.3,231.2,337.9,231,337.4z"/>
	<path class="st0" d="M304.7,337.7c-0.1,0.7-0.2,1.5-0.2,2.3c-0.1,3.6-0.1,7.2-0.1,10.8c0.1,0.7,0.2,1.4,0.4,2l2.2,0.2
		c0.2-0.6,0.4-1.2,0.5-1.8c0-4,0.1-7.9,0-11.9C307.5,337.5,306.7,337.1,304.7,337.7z"/>
	<path class="st0" d="M299.2,317.7c0-1.6-0.9-3-2.3-3.7c0-17.8,0-35.7,0-53.5c0-23.5,0-17,0-40.5c0-0.7-0.1-1.5,0-2.2
		c0-0.1,0-0.1,0-0.2c0-1,0.9-1.8,1.9-1.7c0.9,0,1.7,0,2.6,0h10.5c1.5,0,3-0.5,4.2-1.4c2.4-1.9,3.9-4.8,4-7.9c0-1.2,0-2.4,0-3.5
		c0-6.4-0.1-12.8-0.1-19.2c0-22.6,0-45.2,0-67.7c0-16.7-0.2-33.4-0.2-50.2c0-3.9,0.2-7.8,0.2-11.7C320,44,320,33.9,320,23.7
		c0-1.8-0.5-3.6-1.4-5.1c-0.7-1.5-1.9-2.6-3.3-3.4c-1.9-0.8-3.9-1.1-6-1.1c-5.5,0-11.1,0.2-16.6,0.2c-2.7,0-5.4-0.1-8,0
		c-5,0.1-8.5,3.6-8.6,8.6c-0.1,13.3-0.2,26.6-0.3,39.9c0,2,0.2,4.1,0.2,6.2c0,7,0,13.9,0,20.9c0,26.2,0.1,52.5,0.1,78.7
		c0,12.7,0.2,25.4,0,38.1c-0.1,5.5,5.1,9.5,9.3,9.2c1.7-0.1,3.5-0.1,5.2,0c0.9,0.1,1.8,0.3,2.7,0.5V314c-1.4,0.7-2.3,2.1-2.3,3.7
		c0,2.3,1.9,4.2,4.2,4.2C297.4,321.9,299.2,320,299.2,317.7z"/>
	<path class="st0" d="M666.6,294.5c-0.1-4.1-0.1-8.2-0.1-12.3c0-6.3,0,7.3,0,1c0-5.9,0.2-11.8,0.2-17.7c0-1.7-0.2-3.5-0.2-5.2
		c0-3.3,0.2-6.6,0.2-9.9c0-5.4,0-10.8,0-16.2c0-5.1-0.1-10.3-0.2-15.5c0-0.7,0-1.4,0-1.8c0.5-0.8,1.4-1.2,2.3-1.1
		c3.5-0.1,7,0,10.4-0.1c0.7,0,1.3,0,2-0.2c4.3-1,7-5.3,6-9.6c-0.5-2.1-1-4.2-1.7-6.3c-1.4-4.6-2.9-9.1-4.5-13.8
		c-1.5-4.7-3.1-9.4-4.7-14.1c-2.3-6.8-4.5-13.5-6.8-20.3c-2.1-6.2-4.3-12.4-6.4-18.7c-0.8-2.2-0.4-3.3,1.7-4.7
		c1.2-0.7,2.3-1.5,3.4-2.3c2.2-1.6,4.1-3.4,6-5.3c2.7-3.5,4.9-7.4,6.3-11.5c2.2-6.4,3.4-13.1,3.6-19.9c0.3-7,0.2-13.9,0.1-20.9
		c-0.1-4.1-0.4-8.2-0.8-12.3c-0.6-6.2-1.8-12.3-4.7-17.9c-2-4.2-4.7-8.1-7.9-11.4c-4.5-4.4-9.9-7.8-15.9-9.8
		c-5.7-1.8-11.7-2.8-17.8-2.8c-6.6-0.1-13.3-0.1-20-0.1c-11,0-22,0.1-33,0c-3.8,0-7.8,3.5-8.1,7.3c-0.1,0.8-0.2,1.6-0.2,2.4
		c-0.1,8-0.2,15.9-0.3,23.9c0,5.8,0,11.5,0,17.3c0,14.4,0,28.9,0,43.3c0,6.8,0,13.5,0,20.3c0,22.2,0,44.4,0,66.6
		c0,4.4,0.1,8.8,0.4,13.2c0.1,1.3,0.5,2.5,1.1,3.7c1.5,2.6,4.3,4.2,7.3,4c7.9,0,15.8,0,23.7,0c1,0,2,0,3-0.1
		c2.3-0.1,4.5-1.2,5.9-3.1c1.3-1.8,2-4,1.9-6.3c0.1-10,0.3-20,0.3-30c0-5.5-0.2-11.1-0.2-16.6c0-6.5,0.2-13,0.3-19.6
		c0-0.8,0-1.5,0.1-2.2c0.1-1.1,0.7-1.8,1.5-1.9c1,0,1.4,0.6,1.7,1.4c0.1,0.2,0.1,0.5,0.2,0.7c1.5,5.4,3.1,10.7,4.6,16.1
		c1.8,6.8,3.5,13.7,5.4,20.5c1.6,5.9,3.3,11.7,5,17.6c0.7,2.6,1.4,5.3,2.2,7.9c1.2,3.6,2.4,7.2,3.8,10.7c1.1,2.8,3.8,4.7,6.8,4.7
		c3,0.2,6.1,0.1,9.1,0.1c0.9,0,1.8,0.2,2.8,0.3c0.1,0.9,0.3,1.6,0.3,2.2c0,22.3,0,44.6,0,67c0,9.8,0-0.5,0,9.3
		c-1.3,0.7-2.2,2.1-2.2,3.6c0,2.3,1.9,4.2,4.2,4.2s4.2-1.9,4.2-4.2C668.8,296.6,667.9,295.2,666.6,294.5z M637.7,100.2
		c-1.6,1.2-3.5,2-5.5,2.1c-3.7,0.3-7.4,0.4-11.2,0.3c-1.6,0-2.4-1.1-2.4-2.9c-0.1-3.4-0.1-6.8-0.1-10.3c0-3.6,0-7.2,0-10.8h0.1
		c0-6.8,0-13.7,0-20.5c0-2.6,0.4-3,3-3.3c4.7-0.7,9.5-0.3,14,1.1c2.1,0.6,3.8,2.3,4.3,4.5c0.8,2.9,1.2,5.8,1.2,8.8
		c0.1,7.3,0.3,14.5,0.3,21.8C641.3,94.5,640.5,97.8,637.7,100.2z"/>
</g>
</svg>
