<svg id="Layer_1" data-name="Layer 1" xmlns="http://www.w3.org/2000/svg" viewBox="0 0 846.81 479.01"><defs><style>.cls-1{fill:#fff;}</style></defs><path class="cls-1" d="M756.22,149.24a14.76,14.76,0,0,0-.23,1.86q0,22.62,0,45.24c0,14.74.08,29.49.1,44.23q0,4.88-.15,9.74c-.16,5.23-3.21,8.43-8.47,8.51-9.17.14-18.33.19-27.5.06-5.93-.09-9-3.52-9-9.1,0-3.65,0-7.3-.06-10.95-.13-15.48.09-31,0-46.43-.05-17.92,0-35.83,0-53.74q0-33.87.07-67.74c0-1.67,0-3.33.05-5,0-5.1,2.74-9.26,9.16-9.05,5.83.19,11.66.06,17.49.07,2.84,0,5.67.06,8.5,0a9.67,9.67,0,0,1,8.84,4.68c3.39,5.33,6.71,10.69,10,16.06q7.83,12.6,15.63,25.23c4.72,7.63,9.38,15.3,14.15,22.9,3.63,5.77,7.4,11.45,11.1,17.18q7.35,11.43,14.7,22.86a11.17,11.17,0,0,0,.81,1.05c1.35-.68,1-1.86,1-2.85,0-6.08,0-12.17,0-18.25,0-9.58.08-19.16.1-28.74,0-9,0-18,0-26.95,0-2.82.1-5.64.09-8.46,0-4.48-.16-9-.1-13.43a22,22,0,0,1,.72-5.67,7.53,7.53,0,0,1,6-5.35,12.21,12.21,0,0,1,2.49-.22c8.24,0,16.48-.06,24.73,0a10,10,0,0,1,7.12,2.53A6.69,6.69,0,0,1,866,64.31c.08,6.15.13,12.31.19,18.46,0,4.17.12,8.33.11,12.5,0,8.32-.13,16.65-.14,25,0,5.74.18,11.49.16,17.24-.09,26.65-.25,53.31-.34,80,0,9.67-.08,19.33.08,29,.07,4-.49,7.63-4,10.84a22.41,22.41,0,0,1-9.22,1.5c-3.5,0-7,0-10.49,0-4.07,0-8.14,0-12.21-.11-1.41.3-1.25,1.45-1.24,2.54q.06,11.24.13,22.46.28,59.37.58,118.74.2,37.86.43,75.73c0,2.58-.06,5.17,0,7.75a30.2,30.2,0,0,0,.54,3.75c.74.46,1.24.75,1.71,1.08,3.23,2.32,4.44,7.41,2.57,10.79A8.67,8.67,0,0,1,824,505.87c-6-2-6.86-10.66-3-14.33a3.33,3.33,0,0,1,1-.76c2.46-.94,2.95-2.93,2.91-5.26-.1-5.66-.22-11.32-.27-17-.08-11.24-.09-22.49-.17-33.74-.12-15-.32-30-.41-45-.11-16.5-.12-33-.2-49.49-.12-27.33-.29-54.66-.35-82a13.47,13.47,0,0,0-2-7.33c-4.87-7.84-9.66-15.73-14.56-23.55-3-4.72-6.1-9.33-9.08-14-6.93-11-13.8-22-20.73-32.91-6-9.41-12-18.79-18-28.19-.4-.63-.67-1.34-1.08-2a12.11,12.11,0,0,0-1.2-1.38Z" transform="translate(-44.94 -56.67)"/><path class="cls-1" d="M615.32,452.81a23.29,23.29,0,0,0,.25-2.48q0-31.62,0-63.24c0-9.75,0-19.49.06-29.23,0-5.24,0-10.48,0-15.72,0-8.57.15-17.15.17-25.72,0-5.49-.15-11-.15-16.46,0-6.16.14-12.32.15-18.48,0-3.16-.16-6.32-.17-9.49q0-17,0-34c0-7.4,0-14.8,0-22.2a8.82,8.82,0,0,0-1.59-5.14c-4.57-6.84-9-13.75-13.59-20.61a27,27,0,0,0-2.38-2.87,5,5,0,0,0-4-1.67c-2.67,0-5.33-.1-8-.09a9.2,9.2,0,0,0-2,.43c-.06.84-.14,1.49-.14,2.14q0,29.37,0,58.74a41.54,41.54,0,0,1-.27,4.73c-.57,4.9-3.43,7-8.24,7.35-2.73.19-5.49.09-8.24.09-6.5,0-13,0-19.5,0a11.66,11.66,0,0,1-6.77-2.19c-2.84-2-3.36-5-3.34-8.21,0-8.91.19-17.82.23-26.72q.09-18.12.08-36.24c0-12-.11-24-.1-36q0-29.49.16-59c0-8.33.14-16.66,0-25a8.85,8.85,0,0,1,9.29-8.87c10,.13,20-.11,30-.07,12.41.06,24.81.36,37.22.32a94.84,94.84,0,0,1,14.42,1.12,88.13,88.13,0,0,1,24.85,7.12,53,53,0,0,1,29,31.91,76.51,76.51,0,0,1,3.67,30.52A69.86,69.86,0,0,1,683.08,144a46.6,46.6,0,0,1-4.81,10.66c-2.84,4.57-5.85,9-10.08,12.58a61.37,61.37,0,0,1-10.55,7.5,45.54,45.54,0,0,1-10.8,4.42,17.3,17.3,0,0,0-1.9.72,7.46,7.46,0,0,0,.64,1.79c4,5.71,8.14,11.33,12,17.1s7.8,12,11.7,18q7.75,11.92,15.52,23.82c1.54,2.37,3.1,4.72,4.61,7.11a7.19,7.19,0,0,1-5.88,10.93c-2.49.17-5,.2-7.49.21-8.25,0-16.5-.08-24.74.07-4.44.09-7.51-2-9.76-5.44-6-9.2-11.83-18.49-17.76-27.72a5,5,0,0,0-2.26-1.81c-.06,1-.18,1.9-.18,2.85q0,46.25,0,92.49,0,45.62,0,91.24c0,12.91,0,25.83-.05,38.74,0,2.19.53,3.72,2.51,5,3.24,2.06,4.54,7.51,2.86,10.7a8.76,8.76,0,0,1-10.57,4.37,7.8,7.8,0,0,1-5.88-7.52c-.24-3.48.84-6.6,4.33-8.29A5.62,5.62,0,0,0,615.32,452.81ZM584,145a11.45,11.45,0,0,0,2.07.46c3.32.05,6.66.05,10,.05h17.49A49.85,49.85,0,0,0,627.11,144c6.92-1.92,11-6.37,13-13.14a31,31,0,0,0,.84-13.59c-1.28-8.45-6.68-14.87-16.05-15.86-2.06-.22-4.15-.31-6.22-.33q-16.23-.14-32.46-.21c-1.05,0-2,.18-2.24.78Z" transform="translate(-44.94 -56.67)"/><path class="cls-1" d="M255.26,258.84c-1.23-.09-2-.21-2.85-.21q-14.25,0-28.49,0c-6.33,0-12.65.07-19,0-3.23,0-6.22-1-7.63-4.25a14.89,14.89,0,0,1-1.29-5.8c-.08-18.08,0-36.16,0-54.24,0-17.83,0-35.66,0-53.49,0-7.25.28-14.49.31-21.73,0-6.42-.18-12.83-.21-19.24,0-10.91-.08-21.83,0-32.74,0-3.64,1.06-7.07,4.59-8.81a14.43,14.43,0,0,1,5.78-1.18c4.91-.14,9.83,0,14.74,0Q260.11,57.06,299,57c6.59,0,13.17-.06,19.75.1,2.53.06,5.19.12,7.26,2.07a7.36,7.36,0,0,1,2.52,4.71c1,8.9.27,17.81.38,26.71a28,28,0,0,1-.31,4,6.1,6.1,0,0,1-5.33,5.72,23.89,23.89,0,0,1-4.23.31q-35.75,0-71.49,0h-6.43a11.49,11.49,0,0,0-.56,2.45q0,15.12,0,30.25a9.45,9.45,0,0,0,.28,1.51,26.16,26.16,0,0,0,3.07.31q16.12,0,32.25-.14l27.74-.12c.84,0,1.67,0,2.5,0,5.58.35,8.28,3.07,8.52,8.42.14,3.08.05,6.17.05,9.25,0,5.08-.14,10.17,0,15.24.19,6-3.13,8.84-9.37,9.15-4.49.22-9,0-13.5,0H241.3c-.64.24-1,.91-1,2,0,11.09,0,22.17.08,33.25a20.52,20.52,0,0,0,.32,2.56,23.17,23.17,0,0,0,2.34.26c10.42,0,20.83-.06,31.25-.07,6.07,0,12.14.1,18.21,0,8.32-.08,16.64-.31,25-.38a15.31,15.31,0,0,1,8,1.62,6.07,6.07,0,0,1,3.15,4.25,16.83,16.83,0,0,1,.37,3.47c0,8.41.09,16.82.06,25.23,0,3.63-2.53,7.91-6.81,8.75a38,38,0,0,1-7.43.5c-7.24,0-14.49.11-21.74.14-9.66,0-19.33,0-29,.08-.89,0-1.78.13-3,.23-.15,2.37-.37,4.58-.4,6.79-.12,11.16-.16,22.33-.27,33.49q-.25,26.37-.56,52.73-.24,22.25-.45,44.49c0,2.75-.18,5.49-.16,8.23a27.55,27.55,0,0,0,.45,3.55,7,7,0,0,1,4.65,4.59c2.11,6.65-2,12.16-8.37,12.08-4.14-.06-8.59-4.22-8-8.46.25-2,0-4,1.48-5.64a8,8,0,0,1,2-1.8,3.82,3.82,0,0,0,2.21-3.82c.08-10.08.24-20.16.33-30.24.1-12.33.11-24.67.23-37,.1-10.49.29-21,.45-31.48q.3-19.62.63-39.23C255.29,264.5,255.26,261.86,255.26,258.84Z" transform="translate(-44.94 -56.67)"/><path class="cls-1" d="M463.34,221H431.91a32.71,32.71,0,0,0-.38,3.31c-.08,7.08-.09,14.17-.17,21.25-.15,11.74-.35,23.49-.5,35.23q-.28,23.25-.51,46.48-.21,19.38-.4,38.74c0,1.05.17,2.1.24,3,5.77,3,5.9,7.34,5.13,10.78a8.07,8.07,0,0,1-7.56,6.17,8.39,8.39,0,0,1-8.94-5.75c-1.56-4.15.07-7.73,5.18-11.3a22.89,22.89,0,0,0,.37-2.88c.11-15.33.16-30.66.29-46,.1-12.16.3-24.33.47-36.49s.36-24.15.52-36.23q.17-11.37.27-22.74c0-1.05-.14-2.1-.24-3.5-8.17-.19-16.12,0-24.2,0a12.86,12.86,0,0,0-1.23,2.2c-1.16,3.55-2.24,7.13-3.38,10.69-1.89,6-3.71,11.92-5.76,17.82a9.58,9.58,0,0,1-9.4,6.89c-8.41.12-16.81.24-25.22.24a19.57,19.57,0,0,1-5.64-.86,7.25,7.25,0,0,1-4.52-8.63c1.34-4.37,2.78-8.71,4.26-13,2.76-8.11,5.59-16.2,8.4-24.29,2.12-6.12,4.29-12.23,6.37-18.37,2.28-6.69,4.48-13.4,6.72-20.11q3.27-9.81,6.53-19.64c1.71-5.21,3.33-10.45,5.09-15.64,2.16-6.38,4.45-12.71,6.63-19.08,2.13-6.22,4.18-12.46,6.27-18.7l4.68-14C403.12,81,404.91,75.5,406.82,70c1-2.81,2.08-5.6,3.31-8.31a6.92,6.92,0,0,1,6.46-4.28c10.83-.61,21.65-.45,32.47,0,3.71.16,5.93,2.41,7.52,5.37a35.59,35.59,0,0,1,2.44,6c2.19,6.81,4.24,13.67,6.44,20.48,1.67,5.14,3.53,10.22,5.24,15.34s3.26,10.14,4.91,15.2c1.58,4.82,3.19,9.63,4.78,14.45,1.71,5.22,3.41,10.43,5.14,15.64,1.85,5.61,3.74,11.21,5.58,16.82,1.06,3.24,2.06,6.5,3.1,9.74,1.16,3.65,2.31,7.3,3.51,10.93,1.72,5.22,3.5,10.41,5.23,15.62q2.9,8.76,5.76,17.53,3,9.14,5.84,18.3c1,3.08,1.83,6.2,2.75,9.3.74,2.49,1,4.94-.7,7.17a8.71,8.71,0,0,1-7.16,3.48c-5.9.13-11.82.11-17.73.07-3.24,0-6.49-.2-9.73-.34-4.49-.19-8.12-3.37-9.56-8.17-2.16-7.16-4.47-14.29-6.7-21.43C464.93,226.38,464.19,223.83,463.34,221Zm-48.88-41.29c3,.53,34.08.27,35.91-.36a9.74,9.74,0,0,0-.12-2.07c-.4-1.52-.94-3-1.42-4.51-2.34-7.19-4.69-14.38-7-21.58-1.09-3.41-2.05-6.86-3.16-10.25-1.35-4.1-2.79-8.16-4.21-12.24-.4-1.13-.67-2.37-2-3C431.14,129.27,414.1,177.81,414.46,179.69Z" transform="translate(-44.94 -56.67)"/><path class="cls-1" d="M109.11,259c0,75.72,0,151,0,226.33a10.91,10.91,0,0,0,.4,2c2.75,1.45,5.1,3.31,5.49,6.62a9.92,9.92,0,0,1-2.11,7.71c-2.32,2.93-10.12,3.31-12.67,0a9.85,9.85,0,0,1-2.13-8.15c.52-3,2.67-4.87,5.32-6.34V259a26.39,26.39,0,0,0-3.27-.4c-5.41,0-10.82.2-16.23.2s-10.83-.14-16.25-.19c-4.49,0-9,.14-13.47-.07a19.14,19.14,0,0,1-5.77-1.42,4.83,4.83,0,0,1-2.9-3.55,18.09,18.09,0,0,1-.59-4.18Q45,199,45.12,148.67q0-14.86.06-29.74.09-26.36.23-52.71c0-6,3.49-9.34,9.52-9.32,9.16,0,18.32,0,27.48.1C86.89,57,89,58.74,90,63a14.58,14.58,0,0,1,.43,3.21c0,14.5,0,29,0,43.49q0,37.5,0,75,0,13.62,0,27.25a19.46,19.46,0,0,0,.35,2.61,10.26,10.26,0,0,0,1.46.23c7.24-.07,14.49-.19,21.73-.2,4.07,0,8.14.22,12.21.22,3,0,6-.26,9-.24,4.66,0,9.31.23,14,.32,1.67,0,3.33-.06,5,0,5,0,9.94.07,14.91.08a6,6,0,0,1,4.37,2.1,6.94,6.94,0,0,1,2.14,5.13c0,9.59,0,19.17,0,28.75,0,3.92-1.66,6-5.44,7a19.88,19.88,0,0,1-4.68.6c-12.33.05-24.66,0-37,.05q-8.25,0-16.49.09A25.15,25.15,0,0,0,109.11,259Z" transform="translate(-44.94 -56.67)"/><path class="cls-1" d="M782.21,517.79l2.63-.21c3.16,2.7,3.94,7.09,7,9.69l.6-.29c0-2.22,0-4.45,0-6.68s.59-2.62,3.13-2.41c.21.42.69.92.68,1.42-.11,5.29.51,10.61-.27,16.09h-3.6l-5.87-9.52c-1.42,1.54-.93,3.17-1,4.66s0,3,0,4.77h-3.37C781.26,532.93,781.25,520.07,782.21,517.79Z" transform="translate(-44.94 -56.67)"/><path class="cls-1" d="M634,496.33V479.15h3.86l5.91,9.6c1.42-1.39.7-3,.8-4.46s0-3.12,0-4.52c1.44-1,2.57-1.09,3.88-.25v16.64l-3.33.62c-3-2.93-3.94-7.07-6.89-9.7l-.61.17v9.08Z" transform="translate(-44.94 -56.67)"/><path class="cls-1" d="M843.21,528.19q1.47,3.34,2.93,6.63c-2.48,1.22-3.54,1-4.61-.93-.65-1.16-1.18-2.38-1.8-3.55s-1.44-1.57-2.92-.8c-.21,1.76-.44,3.68-.7,5.8l-3,.27c-.81-2.1-.94-15.14-.18-17.72,3.34-.54,6.81-.83,10.11.53,2.71,1.1,3.62,5,2,7.47C844.6,526.58,844,527.19,843.21,528.19Zm-6.76-3.36c1.84,1.43,2.1,1.43,4.62.23a2.87,2.87,0,0,0-.22-3.88l-3.24-.51C836.08,522,836.62,523.44,836.45,524.83Z" transform="translate(-44.94 -56.67)"/><path class="cls-1" d="M819.43,535.43l-2.68.17c-.61-5.83-.19-11.44-.32-17.23a7.79,7.79,0,0,1,2.2-.7,40.06,40.06,0,0,1,6.94.38,5.16,5.16,0,0,1,3,8.53c-.42.51-.88,1-1.34,1.49.26,2.63,2.84,4.38,2.64,7.09-2.29.87-3.39.51-4.39-1.37a28.08,28.08,0,0,0-1.65-3.06A11.59,11.59,0,0,0,822,529C819.13,530.54,821.4,533.4,819.43,535.43Zm5.46-10.12c1.2-1.93,1.23-2.89.15-3.78a3.15,3.15,0,0,0-4.45.34v3.37C822.43,526,822.43,526,824.89,525.31Z" transform="translate(-44.94 -56.67)"/><path class="cls-1" d="M582.64,479.37a12.64,12.64,0,0,1,2.22-.47c1.82-.06,3.66,0,5.48,0a5.37,5.37,0,0,1,4.88,2.89c1.23,2.2.67,4.16-.57,6.08-.36.55-.8,1-1.39,1.8l3,6.09c-1.56,1-1.56,1-4,.44-.64-1.21-1.36-2.6-2.09-4-.91-1.7-1.32-1.86-3.6-1.24-.08,1.62-.17,3.33-.26,5-1.25,1-2.35.73-3.64-.07Zm9.08,6.44c.49-3.36-1.44-4.6-5.13-3.22v3.67C588.8,487.85,589.14,487.82,591.72,485.81Z" transform="translate(-44.94 -56.67)"/><path class="cls-1" d="M94.25,527.06a28.94,28.94,0,0,1-3.18.33,6.67,6.67,0,0,1-5.42-2.62c-2.88-3.57-2.77-10.09.3-13.44a7.49,7.49,0,0,1,12.24,2.11C99.94,517.5,99.4,524.22,94.25,527.06Zm-4.37-14.51a7.84,7.84,0,0,0,.35,11.29h2.51a8.22,8.22,0,0,0,.31-11.29Z" transform="translate(-44.94 -56.67)"/><path class="cls-1" d="M445.81,406.6c-2.92,1.54-1.21,4.48-2.79,6.34h-2.48a8.2,8.2,0,0,1-.55-2.18c.18-5.11-.44-10.24.32-15.57l2.37-.17c2.15,1.84.42,4.2,1.43,6.45a19.27,19.27,0,0,0,2.07-1.73c.83-.92,1.55-1.94,2.3-2.94,1.18-1.58,2.71-2.07,5-1.53a6,6,0,0,1-.54,1.9c-.91,1.29-2,2.44-3,3.69-1.43,1.87-1.48,2.6-.24,4.49,1.1,1.67,2.28,3.27,3.35,4.95a13.18,13.18,0,0,1,.93,2.14c-2.41,1-3.53.78-4.78-.91S447,408.29,445.81,406.6Z" transform="translate(-44.94 -56.67)"/><path class="cls-1" d="M847.11,535.37c1.16-3.31,2.08-6,3.09-8.76s2.11-5.4,3.31-8.45l3.2-.68c2.89,5,4.16,10.38,6.3,15.38a11.7,11.7,0,0,1,.43,2.58h-3c-.76-1.05-1.53-2.11-2.23-3.09-4.16-1.07-5.16-.67-7.7,3.24ZM854.94,524c-.46,1.51-.82,2.71-1.18,3.91,1.19,1.17,2.21,1.06,3.38-.09C856.71,526.55,856.76,525.1,854.94,524Z" transform="translate(-44.94 -56.67)"/><path class="cls-1" d="M422.68,412.91h-3.62c-.85-4.17-3.93-3.64-7.18-3.32L409.56,413h-2.81a13.9,13.9,0,0,1,.37-3c1.42-4,2.92-8,4.45-11.92a26.91,26.91,0,0,1,1.41-2.79c2.67-.49,3.46-.1,4.22,2,1.61,4.36,3.23,8.72,4.82,13.09C422.28,411.09,422.42,411.88,422.68,412.91Zm-6.31-7c-.52-1.73-.88-2.92-1.4-4.61-1.28,1.61-2.13,2.73-1.72,4.61Z" transform="translate(-44.94 -56.67)"/><path class="cls-1" d="M277.58,437.16h3.81c.09,4.7.17,9.14.24,13.24,1.27,1.43,2.37,2,3.83,1.36a3.31,3.31,0,0,0,2-3.42c0-2.82,0-5.65.07-8.48,0-.81.12-1.62.21-2.7h3.05c.24.4.49.61.49.82a117.92,117.92,0,0,1-.23,11.9c-.38,3.5-2.82,5.05-6.81,5.19-3.24.12-5.8-1.5-6.44-4.71C276.94,446.11,277.42,441.79,277.58,437.16Z" transform="translate(-44.94 -56.67)"/><path class="cls-1" d="M435.57,395.89c.67,1.2,2.28,2.1,1.74,4.07-1.65.85-2.9.47-4.19-.83-1.65-1.68-2.92-1.49-4.57.38a2.43,2.43,0,0,0,1.85,2.34c.93.36,1.85.73,2.77,1.13a10.12,10.12,0,0,1,1.78.87c3.77,2.58,3.45,6.94-.64,8.92-2.78,1.35-7.47.3-9.35-2.18a11.06,11.06,0,0,1-1-2.12c2.14-1.65,2.58-1.53,5.6,1.46h2.74c1.58-1.82,1.41-2.84-.65-3.76-1.21-.55-2.48-1-3.68-1.53a5.64,5.64,0,0,1-3.42-4,4.31,4.31,0,0,1,2.91-5.11A9.84,9.84,0,0,1,435.57,395.89Z" transform="translate(-44.94 -56.67)"/><path class="cls-1" d="M320.76,446.31c-2.13,1.56-4.52.1-6.53,1.22a3.32,3.32,0,0,0,0,3.83l7.21.79c.8,1.61.19,2.58-.89,2.62-3.3.14-6.61,0-9.92-.07-.26,0-.52-.37-.9-.67V437.18c4-.6,7.84-.27,11.8-.19.14.91.23,1.51.33,2.13-2.34,1.82-5.08.17-7.34,1.24-.94,1.45-.94,1.45-.42,3.4l6,.36C320.36,444.9,320.57,445.62,320.76,446.31Z" transform="translate(-44.94 -56.67)"/><path class="cls-1" d="M133.19,526.39a3,3,0,0,1-4.05,0L128,524.05a10.36,10.36,0,0,0-6.06-.16c-.44,1-.82,1.79-1.18,2.57-1.16.89-2.31.83-3.82.25.44-3.11,2-5.76,3-8.61s2-5.58,3.14-8.53h3.86Zm-9.93-7.08c1.9,1.43,1.9,1.43,3.28-.1l-1.25-3.51h-.63C124.2,516.88,123.74,518.06,123.26,519.31Z" transform="translate(-44.94 -56.67)"/><path class="cls-1" d="M244.83,453.68c-1.52,1.53-2.61,1.71-3.88.53a18,18,0,0,1-1.62-2.19c-.57-.73-1.18-1.44-2-2.45l-2.85,4.79-2.94.7c-1.29-1.07-.85-1.8-.33-2.65,1.26-2.05,2.42-4.15,3.76-6.47l-4.57-8.29c3.07-1.49,3.76-1,6.81,4.08,2.42-.51,2.13-3.44,4.46-4.75l3.12.2a23.64,23.64,0,0,1-1,2.6c-.73,1.31-1.52,2.58-2.34,3.83a3.84,3.84,0,0,0,0,4.64C242.62,450,243.66,451.77,244.83,453.68Z" transform="translate(-44.94 -56.67)"/><path class="cls-1" d="M801.4,535.68l-2.66-.27a10.37,10.37,0,0,1,.19-2.47q2.36-6.56,4.87-13.07a3.34,3.34,0,0,1,3.43-2.33c.48.54,1.45,1.2,1.8,2.09,1.86,4.7,3.57,9.46,5.3,14.2a5.44,5.44,0,0,1,0,1.5l-2.92.28-2.4-3.56h-5.14C803.11,533.2,802.32,534.34,801.4,535.68Zm6.88-7.83c-.45-1.26-.84-2.39-1.27-3.63-2,.84-2.11,2.28-2,3.9A2.1,2.1,0,0,0,808.28,527.85Z" transform="translate(-44.94 -56.67)"/><path class="cls-1" d="M891.53,518.39c0,2-1,2.45-2.44,2.45h-5.27c-.09,1.29-.15,2.26-.2,3,2.26,1.71,5.5-.79,6.9,2.33-.77,1-.77,1-6.11,1.72-1.27,1.7-1.28,1.91-.21,4.27,2.31,1.08,5.12-.41,7.55,1.26-.2.68-.37,1.27-.59,2a74.05,74.05,0,0,1-11,.07c-.82-2-1-14.64-.27-17.43,3.14-1.1,6.55-.36,9.89-.45C890.36,517.59,891,518.14,891.53,518.39Z" transform="translate(-44.94 -56.67)"/><path class="cls-1" d="M257.73,444.18v2.62l-3,.25-2.85.24c-1.11,1.29-1,2.53-.41,4.18,1.69.13,3.48.31,5.27.41,1.54.09,1.54.06,2.58,1.46a1.89,1.89,0,0,1-2.11,1.65c-2.5,0-5,0-7.49-.07a12.42,12.42,0,0,1-2.61-.7V437.51a6.12,6.12,0,0,1,1.7-.6c2.74-.06,5.49-.07,8.23,0a2,2,0,0,1,2.27,2.12c-2.17,2.18-5.24.15-8,1.44l-.18,3.24Z" transform="translate(-44.94 -56.67)"/><path class="cls-1" d="M602.7,485.78l6.53.36v2.64l-6.55.6v4c2,.08,3.76.13,5.55.21,2,.08,2.15.24,2.43,2.22-2.17,1.34-9.87,1.35-11.91,0V479.62c2.16-.95,9-1.05,11.86-.19v2.3l-7.91.48Z" transform="translate(-44.94 -56.67)"/><path class="cls-1" d="M217.81,455a9.57,9.57,0,0,1-.79-2.48c-.06-4.41,0-8.83,0-13.24a12.89,12.89,0,0,1,.41-2.11,69.26,69.26,0,0,1,11.62-.08l-.25,2.76-7.59.35-.48,2.89c2.2,1.76,4.57.24,6.86,1.32l.26,2.42-6.77.64c-.08,1.32-.15,2.43-.23,3.92l7.53.68,1,1.37c-.18.38-.23.72-.4.8a5.76,5.76,0,0,1-2,.73C224,455,221.11,455,217.81,455Z" transform="translate(-44.94 -56.67)"/><path class="cls-1" d="M149,509.78c3.94-.92,7.58-.23,11.55-.48.12,1,.23,1.81.38,3l-7.33.3c-.91,1.5-.74,2.59.16,3.43,2,1.2,4.56-.65,6.14,1.48-.23,1.73-1.33,2-2.71,2s-2.66-.39-3.95.59v3.85h7.3l.63,2.37c-1.88,1-8.78,1.23-12,.45C148.68,521.25,149.16,515.65,149,509.78Z" transform="translate(-44.94 -56.67)"/><path class="cls-1" d="M663.26,493.94c.12.71.23,1.39.4,2.46-4.09.24-7.88.71-12.07-.13-.05-5.71-.25-11.29.11-17.1a58.62,58.62,0,0,1,11.85-.09c-.11,1.06-.19,1.87-.3,3h-7c-.94,2-.94,2,.09,3.57,1.84,1,4.17-.53,6.11,1.27-.2.62-.4,1.27-.62,2l-6.17.45v3.83C658.08,494.13,660.56,493.22,663.26,493.94Z" transform="translate(-44.94 -56.67)"/><path class="cls-1" d="M110.4,523.72c2.2-3,2.88-3.26,4.75-2.19a5,5,0,0,1-3.83,5.52c-5.73,1.34-9.37-1.15-10.24-7.33a10.94,10.94,0,0,1,1.17-7.24c2.33-4,9.18-4.68,12-1a15.87,15.87,0,0,1,1.42,3c-2.44,1.58-2.71,1.47-5.17-1.82a15.32,15.32,0,0,0-2-.28c-1.84,0-2.84.72-3.11,2.55a29.34,29.34,0,0,0-.24,5C105.19,523.17,107.51,524.78,110.4,523.72Z" transform="translate(-44.94 -56.67)"/><path class="cls-1" d="M275.08,442l-1.19,1.27a3,3,0,0,1-2.78-1.62c-1.77-2.61-4.83-2.32-6,.65a9.92,9.92,0,0,0,.91,9.09h4.16c1.31-1.26,1.91-3.61,4.34-2.39a4.34,4.34,0,0,1-2.08,5.1,7.27,7.27,0,0,1-10.71-3.16c-1.73-3.78-1.85-7.8.77-11.38a6.35,6.35,0,0,1,6.53-2.76C271.84,437.27,274.39,438.29,275.08,442Z" transform="translate(-44.94 -56.67)"/><path class="cls-1" d="M617,482.17v4l6,.42c.22.7.41,1.29.62,1.93-2,1.52-4.19.45-6.25,1.21-1.54,1.91-.15,4.45-1,6.58-1.24.94-2.34.57-3.6-.34v-16.4c2-.9,8.9-1,11.32-.19.09.18.3.4.3.61a16.37,16.37,0,0,1-.18,1.79Z" transform="translate(-44.94 -56.67)"/><path class="cls-1" d="M301.9,454.84c-2.91-.07-3.4-.49-3.43-2.69,0-3,0-6,0-9a22.55,22.55,0,0,0-.44-2.89l-4.75-.55c.07-1,.12-1.77.19-2.73h14c.13.86.24,1.61.39,2.63l-5,.73a19,19,0,0,0-.34,2.4c-.05,3.07,0,6.15-.07,9.23A21.54,21.54,0,0,1,301.9,454.84Z" transform="translate(-44.94 -56.67)"/><path class="cls-1" d="M877.45,520.1l-5.35,1.19c0,3.42,0,6.63,0,9.85,0,1.37-.16,2.75-.26,4.29h-2.9c-1.27-1.87-.76-3.8-.72-5.67s.16-4,.11-6a13.65,13.65,0,0,0-.66-2.67l-4.17-.53c-.12-.83-.24-1.69-.35-2.48,2.43-.73,10.3-.82,14-.21C877.23,518.52,877.33,519.24,877.45,520.1Z" transform="translate(-44.94 -56.67)"/><path class="cls-1" d="M137.59,512.56l-2.61-.15-2.15-.23-.27-2.07c2.63-1.16,12.59-1,14.66.15-.4,3.35-3.53,1.46-5.3,2.76-.84,4.36.18,9-.57,13.78h-3.7c0-2.58-.05-4.88-.06-7.18S137.59,515.16,137.59,512.56Z" transform="translate(-44.94 -56.67)"/><path class="cls-1" d="M71.44,509.63H75c.06,4.68.12,9.2.19,14.07l7.64.65.17,2.39a32.42,32.42,0,0,1-11.46.08C71.29,521.13,71.49,515.6,71.44,509.63Z" transform="translate(-44.94 -56.67)"/><path class="cls-1" d="M627.25,478.76l3.18.55c.25,5.75.11,11.27,0,16.58-1.5,1-2.59,1.34-3.73-.12C627,490.32,626.12,484.7,627.25,478.76Z" transform="translate(-44.94 -56.67)"/></svg>