<svg id="Layer_1" data-name="Layer 1" xmlns="http://www.w3.org/2000/svg" viewBox="0 0 855.92 491.33"><defs><style>.cls-1{fill:#fff;}</style></defs><g id="POUubd.tif"><path class="cls-1" d="M239.23,234.34a27.44,27.44,0,0,0-.54,3.64c-.07,5.36-.06,10.73-.06,16.09q0,73.47.07,146.93c0,27.66.14,15.32.16,43a4.59,4.59,0,0,0,1.59,3.55,6.85,6.85,0,0,1,2.07,7.21,7,7,0,0,1-9,4.36,6.7,6.7,0,0,1-4-8.84,9.6,9.6,0,0,1,2.3-3.28,4.51,4.51,0,0,0,1.53-3.81c-.11-6.27-.26-12.54-.26-18.81,0-59.18,0-78.36,0-137.53,0-15.8.07-31.59.08-47.39,0-1.56-.15-3.13-.24-4.86-1.26-.2-2.27-.45-3.3-.51a97.81,97.81,0,0,1-14.13-2,46.08,46.08,0,0,1-23-11.85,46.69,46.69,0,0,1-14.2-28.16,122.78,122.78,0,0,1-1.2-16.93q0-28.33-.07-56.68-.16-41.83-.39-83.66c0-2.56.25-5.12.47-7.67a3.74,3.74,0,0,1,3.4-3.66,16.35,16.35,0,0,1,2.7-.26q13.62,0,27.22,0c3.15,0,4.78,1.41,5.19,4.51a54.46,54.46,0,0,1,.58,7q.07,44.1.08,88.19c0,18.07,0,36.13.15,54.19a46.44,46.44,0,0,0,1.18,11c1.65,6.49,5.65,11.2,12.4,12.84a21,21,0,0,0,16-2.25c4.52-2.65,6.62-7,7.34-11.93a78.49,78.49,0,0,0,.68-11.06q0-64.62-.1-129.23,0-7.93.15-15.87a16.23,16.23,0,0,1,.57-3.78c.62-2.38,1.87-3.36,4.35-3.57.9-.07,1.81-.08,2.72-.07l23.82,0c.6,0,1.21,0,1.81,0,3.2.17,5,1.87,5.17,5.13.23,4,.49,8,.5,12,.06,26.9,0,53.81.08,80.71,0,18.21.23,36.42.2,54.64,0,7.7-.4,15.44-2.7,22.87-4.74,15.31-14.46,26.07-29.62,31.69A69.92,69.92,0,0,1,242.6,234C241.63,234,240.67,234.18,239.23,234.34Z" transform="translate(-46.54 -21.55)"/><path class="cls-1" d="M620.52,465.23c1,1,1.78,1.78,2.5,2.66a7,7,0,0,1-1.74,10.27c-3.53,2.2-8.28-.15-9.67-3.78-1.08-2.83-.19-5.26,1.59-7.35a5.47,5.47,0,0,0,1.3-3.93c-.09-40.06-.18-60.11-.25-100.17q-.11-60.66-.16-121.32c0-1.89,0-3.78-.16-5.66-.15-2.11-1-3-3.11-3.19a24.64,24.64,0,0,0-2.72-.06c-10.51,0-21,0-31.54,0a41,41,0,0,1-5.83-.59,3.85,3.85,0,0,1-3.39-3.24,58.74,58.74,0,0,1-1.09-9.41c-.12-15.8-.08-31.59-.08-47.39q0-67,0-134c0-3.16.27-6.34.55-9.49s2-4.79,5-5.13c1.2-.13,2.42-.11,3.63-.12l84.63,0a17.08,17.08,0,0,1,2.26.08,4.84,4.84,0,0,1,4.49,4.35,24.89,24.89,0,0,1,.47,4c.08,5.29.12,10.58.07,15.87a34.46,34.46,0,0,1-.51,5c-.48,3.1-2.17,4.55-5.41,4.6-1.88,0-3.77-.12-5.66-.11-13.31,0-26.62.09-39.93.19a49.81,49.81,0,0,0-6.33.48,4.7,4.7,0,0,0-4.4,4.9c-.07,2.34,0,4.69,0,7,0,8.39,0,16.78,0,25.17,0,2.64-.38,5.27-.41,7.91,0,3.61,1.19,5.17,4.7,5.8a32,32,0,0,0,5.63.39c9.6.09,19.2.1,28.8.2a10.53,10.53,0,0,1,3.33.6c2,.71,3.43,2.06,3.52,4.28.21,4.67.36,9.35.39,14,0,2.41-.28,4.82-.41,7.23-.26,4.82-1.39,5.9-6.28,5.9-7.48,0-15,0-22.46,0q-5.22,0-10.43.11a14.83,14.83,0,0,0-2.48.28c-3.06.56-3.79,1.41-3.8,4.58,0,11.18,0,22.37-.05,33.56,0,5.29-.14,10.58-.12,15.87,0,3.89,1.28,5.1,5.22,5.09,11.12,0,22.23-.12,33.35-.13,6.65,0,13.31.17,20,.06,3,0,4.65,1.86,5,4.47A95.05,95.05,0,0,1,669,223.8c-.08,1.28-.23,2.56-.32,3.84-.24,3.53-1.8,5.06-5.3,5.07-11.27,0-22.54,0-33.81,0a55.83,55.83,0,0,0-6.33.36c-2.46.28-3.11,1.07-3.12,3.56,0,5.44,0,10.88,0,16.33q.06,47.16.14,94.33c.08,43,.19,66,.29,109Z" transform="translate(-46.54 -21.55)"/><path class="cls-1" d="M109.2,234.5V395.1c.67.75,1.27,1.42,1.85,2.11,2.85,3.38,2.74,7.41-.27,10.12A6.2,6.2,0,0,1,103,408a6.94,6.94,0,0,1-3.17-7.2c.46-2.28,1.9-3.89,3.59-5.55,0-83.44.11-76.94-.51-160.73-1.35-.25-2.41-.54-3.48-.64A54.52,54.52,0,0,1,79,228.41c-11.72-6.08-19.46-15.58-23.53-28.06a68.12,68.12,0,0,1-3.35-23.21c.11-3.81,1.84-5.78,5.7-5.93,8.3-.32,16.62-.6,24.93-.61,4.75,0,6.67,2.67,6.93,6.23.12,1.66.08,3.33.25,5a63.79,63.79,0,0,0,1.13,9c1.72,7,6.35,10.54,13.54,10.76a23.53,23.53,0,0,0,8-1.27c5.75-1.87,8.48-6.26,9.21-11.82.88-6.74.6-13.52-3.13-19.53a49.94,49.94,0,0,0-6.87-8.95c-5.06-5.07-10.41-9.88-15.78-14.63C90,140,83.7,134.92,77.72,129.49c-10.36-9.4-18.4-20.41-22.55-33.94a69.5,69.5,0,0,1-2.54-28.67,52.72,52.72,0,0,1,6.62-20.55C65.92,34.82,75.58,27,88.47,23.54a67.7,67.7,0,0,1,22.26-1.78A51.48,51.48,0,0,1,130.53,27c12.52,6.27,20.72,16.1,24.18,29.76a71.51,71.51,0,0,1,2.06,19.76,21.1,21.1,0,0,1-.59,4,3.82,3.82,0,0,1-3.32,3,25,25,0,0,1-4,.53c-6.88.12-13.76.12-20.64.25-4.88.09-7.76-1.32-8.16-7.63a88.73,88.73,0,0,0-1-10.58c-1.57-8.47-8.71-10.92-15.48-9.95-8.68,1.24-12,7.08-12.84,14.43-1.22,10,2.37,18.68,8.58,26.38,5.82,7.22,12.74,13.31,19.79,19.26,7.57,6.38,15.26,12.61,22,19.89C148.4,144,154,152.79,157,163.17a66.26,66.26,0,0,1,2.29,21.75A52.94,52.94,0,0,1,155,204c-5.94,13.56-15.94,22.71-30,27.31a61.16,61.16,0,0,1-13.08,2.62C111.05,234,110.27,234.27,109.2,234.5Z" transform="translate(-46.54 -21.55)"/><path class="cls-1" d="M371.31,335.07a33.84,33.84,0,0,1,3.13,3.84,6.69,6.69,0,0,1-10.84,7.78,6.81,6.81,0,0,1-.72-8.2c.73-1.14,1.67-2.14,2.68-3.41V249.29c0-29.33,0,21.34,0-8,0-2.17-.24-4.34-.39-6.81-1.52-.21-2.82-.42-4.14-.56a63.86,63.86,0,0,1-16.35-3.49c-14.11-5.34-23.39-15.4-28.41-29.5a57.57,57.57,0,0,1-2.81-15.77c-.17-2.72-.37-5.43-.38-8.15q0-46.49,0-93a99.39,99.39,0,0,1,1.81-20.74c3.75-17.61,13.27-30.71,30.25-37.75,6.58-2.73,13.54-3.5,20.62-3.68,8.37-.21,16.63.31,24.57,3.23,15.13,5.57,25.14,16,29.68,31.54a85.48,85.48,0,0,1,3.07,26.67c0,.83-.21,1.65-.24,2.48-.15,3.14-2.14,4.81-5.27,5.18a38,38,0,0,1-4.53.19c-6.73,0-13.46,0-20.19,0a12.5,12.5,0,0,1-3.53-.6,4.57,4.57,0,0,1-3.27-4.66c-.08-2.34,0-4.69-.09-7a47,47,0,0,0-1.8-12.74c-1.51-4.93-4.82-9.44-12.14-9.7a24,24,0,0,0-10,1.42,12.32,12.32,0,0,0-7.33,7.55,41.25,41.25,0,0,0-2.14,14.27q-.12,44-.15,88c0,6,.19,12.09.39,18.13a20,20,0,0,0,1.67,7.47,12.87,12.87,0,0,0,9.62,7.84,20.55,20.55,0,0,0,12.45-1.17,13.4,13.4,0,0,0,8.19-10.63,44.27,44.27,0,0,0,.5-5.87c.12-3.24.12-6.49.22-9.74a9.44,9.44,0,0,1,.36-2.23c.72-2.72,2-3.76,4.8-3.91,1-.06,2.11,0,3.17,0,7.11-.1,14.21-.21,21.32-.29,1.36,0,2.72,0,4.08.13a3.7,3.7,0,0,1,3.35,2.64,10.71,10.71,0,0,1,.61,2.4c.22,2.18.49,4.37.5,6.56,0,8.12-.65,16.18-3.37,23.88-4.85,13.79-14.44,22.95-28.15,27.82A66.16,66.16,0,0,1,375.48,234c-.83.08-1.65.16-2.47.28a3.67,3.67,0,0,0-.86.36c-.93,1.6-.72,3.38-.72,5.08,0,8.09,0,16.18,0,24.27,0,72.18-.08-5.63-.12,66.56Z" transform="translate(-46.54 -21.55)"/><path class="cls-1" d="M852.55,425c.8.94,1.55,1.78,2.24,2.68a6.81,6.81,0,0,1,1.48,6.15,6.41,6.41,0,0,1-6.79,4.53,6.34,6.34,0,0,1-6-5.76c-.19-2.26.11-4.41,1.73-6.12a5.26,5.26,0,0,0,1.36-3.93c0-11,0-21.92,0-32.88,0-29.7.12.59.13-29.11q0-57.93-.09-115.87c0-3.31-.22-6.62-.36-10.21-1.56-.2-2.87-.42-4.19-.53a50.42,50.42,0,0,1-17.05-4.29c-11.46-5.23-19.16-14-23.62-25.66a66.66,66.66,0,0,1-4.36-25.29,20.29,20.29,0,0,1,.42-4,4.14,4.14,0,0,1,3.42-3.5,34.29,34.29,0,0,1,4.7-.66q9.28-.33,18.58-.48a21,21,0,0,1,4.94.55,5.07,5.07,0,0,1,4.21,5c.24,3,.19,6,.51,9a42.86,42.86,0,0,0,1.37,7.55c1.53,5.18,5.13,8.15,10.45,9.18a20.88,20.88,0,0,0,10.5-.87,12.18,12.18,0,0,0,8.52-9.21,29.72,29.72,0,0,0-3.76-23.69c-3.71-5.89-8.64-10.7-13.81-15.23-8.07-7.08-16.39-13.85-24.47-20.92A79.75,79.75,0,0,1,803.33,107a63.21,63.21,0,0,1-6.59-24.32c-.19-2.94-.45-5.89-.38-8.83.29-10.77,2.87-20.93,8.83-30,7.2-11,17.19-18.13,30.17-20.7,11-2.18,22-2.07,32.71,1.35a45.85,45.85,0,0,1,23.28,16.14,45,45,0,0,1,8,19,72.52,72.52,0,0,1,1.13,17.14,13.67,13.67,0,0,1-.66,3.53,4.18,4.18,0,0,1-3.57,3.09,46.51,46.51,0,0,1-5.63.58c-6.35.1-12.71,0-19.06.14-4.16.1-6.73-2.5-6.85-6.71a53.71,53.71,0,0,0-1.28-11.23c-1.84-7.58-8.16-11-15.67-10a25.86,25.86,0,0,0-2.89.56c-5.26,1.41-8.3,5-9.67,10.11-2.32,8.68-.41,16.72,3.84,24.38a50.26,50.26,0,0,0,9.61,12.27c5.61,5.28,11.28,10.5,17.12,15.52,8.44,7.26,16.74,14.62,23.37,23.65,6.2,8.45,10.73,17.65,12.38,28.11,2,12.71.75,25-4.85,36.69-5.52,11.52-14.77,18.89-26.65,23.15A59.17,59.17,0,0,1,855.3,234a20.75,20.75,0,0,0-2.64.63c-.2,16.82,0,33.5,0,50.18s0,33.41,0,50.11,0-26.75,0-10.12,0,33.41,0,50.11S852.55,408.31,852.55,425Z" transform="translate(-46.54 -21.55)"/><path class="cls-1" d="M736,234.7c-.14,2.36-.37,4.54-.38,6.71,0,7.94,0,15.87,0,23.81q0,20.07,0,40.13c0,42.86,0,5.72,0,48.57,0,15.65.16,1.3.13,16.94a8.89,8.89,0,0,0,2.49,6.71c2.7,2.83,2.67,6,.37,8.77a6.69,6.69,0,0,1-7.19,2.05,6.45,6.45,0,0,1-4.43-6c-.1-2.66.4-3.81,3.18-7.24,0-20.67,0-11.52,0-32.38S730,350.93,730,330s0-11.72,0-32.58.4-41.69-.3-62.73c-1.64-.27-3-.53-4.27-.69a50.87,50.87,0,0,1-20.54-6.65c-11.48-7-18.7-17.09-22.07-30.05a80.9,80.9,0,0,1-2.52-17.91,17.29,17.29,0,0,1,.54-4.69,4.49,4.49,0,0,1,4.24-3.51c2.63-.25,5.26-.53,7.9-.63,5.37-.18,10.73-.23,16.1-.36s7.67,2.12,7.74,7.44A60,60,0,0,0,718,190.46c1.06,4.6,3.45,8.26,8,10a19.61,19.61,0,0,0,11.6.58c6-1.4,10-4.58,11.08-13.13,1.23-10.18-2.08-18.93-9.12-26.27-3.92-4.08-7.91-8.12-12.11-11.91-7.07-6.38-14.39-12.48-21.5-18.8a80.85,80.85,0,0,1-19-24.07,62,62,0,0,1-6.15-19.32,95.39,95.39,0,0,1-1.14-14.2c.14-11.83,3.18-22.85,10.46-32.41C698,30.59,708.34,24.25,721.27,22.5c10.12-1.36,20.28-1.46,30.06,1.87,15.95,5.43,26.53,16.15,30.54,32.73a58.5,58.5,0,0,1,1.53,20.47,11.07,11.07,0,0,1-.36,2c-.9,2.8-2.33,4-5.27,4.11-3.55.19-7.1.33-10.65.38-3.85.06-7.71,0-11.57,0-4.39-.07-6.75-2-7.65-6.22-.32-1.54-.26-3.15-.47-4.71a61.06,61.06,0,0,0-1.28-8.25c-1.41-5.18-5-8.12-10.34-8.85a17.83,17.83,0,0,0-8.71.92c-4.57,1.68-7.13,5.21-8.48,9.67-2.29,7.56-1,14.78,2.35,21.77a55.59,55.59,0,0,0,12.83,16.85c6.41,6,13.11,11.63,19.7,17.4a158.27,158.27,0,0,1,17.15,16.81A62.11,62.11,0,0,1,785,170c1.92,12.11,1,24-3.91,35.33-6,14-16.73,22.66-31.28,26.65-3.48,1-7.11,1.38-10.66,2.06C738.17,234.21,737.16,234.45,736,234.7Z" transform="translate(-46.54 -21.55)"/><path class="cls-1" d="M498.62,234.53c-.14,1.64-.38,3.12-.38,4.6q0,24.15,0,48.29c0,59.78,0,19.56,0,79.34q0,8.28,0,16.56c0,.6.07,1.2.1,1.83.79.93,1.62,1.81,2.36,2.76a6.69,6.69,0,0,1-3.39,10.73c-4.52,1.43-9.39-3-8.42-7.7.41-2,1-2.92,3.38-5.48,0-82.9,0-65.79,0-148.68a11.92,11.92,0,0,0-.47-2.19c-1.51-.23-3-.53-4.46-.66a54.55,54.55,0,0,1-20.21-5.46A48.37,48.37,0,0,1,445,205.34a54.52,54.52,0,0,1-5-23.29q-.37-47.38-.41-94.77a133.25,133.25,0,0,1,1-18.53c2.69-19.36,11.95-34.28,30.25-42.67a49.22,49.22,0,0,1,12.86-3.5,75.67,75.67,0,0,1,18.77-.5c16.2,1.46,29.24,8.7,38.41,22.29,4.21,6.24,6.19,13.37,7.25,20.78a111.24,111.24,0,0,1,.67,19.22,11.3,11.3,0,0,1-.56,3.1,4.08,4.08,0,0,1-3.6,3c-2.7.27-5.41.55-8.12.6-6.35.1-12.7.08-19,.1-.38,0-.76,0-1.14,0-3-.21-4.23-1.48-4.32-4.41s-.13-6.05-.16-9.07a44.4,44.4,0,0,0-1.54-11.64c-1.12-3.95-3.11-7.47-7.2-8.72a19.5,19.5,0,0,0-17,2.12c-3.72,2.4-5.24,6.21-5.84,10.33a88.45,88.45,0,0,0-.92,11.73c-.12,13.67-.09,27.35-.08,41q0,28.8.12,57.59a64.67,64.67,0,0,0,.84,10.12c1,6.17,5.37,10.15,11.54,11.13a20.75,20.75,0,0,0,9.84-.81c5.65-1.86,8.59-6.1,9.28-11.75.55-4.47.47-9,.67-13.56,0-1,0-2,.11-2.94a4.6,4.6,0,0,1,4.87-4.37q12.81-.13,25.63-.21a15.66,15.66,0,0,1,1.81.08c2.35.23,3.71,1.19,4.15,3.48a44,44,0,0,1,.93,8.07c0,6.58-.26,13.17-2.1,19.54-4.72,16.38-15,27.43-31.47,32.46A65.46,65.46,0,0,1,502.21,234C501.16,234.08,500.13,234.3,498.62,234.53Z" transform="translate(-46.54 -21.55)"/><path class="cls-1" d="M388.83,382.54v-7c-1.72,2.11-1,5.48-4.46,6.81-1-2.37-1.94-4.52-2.86-6.67l-.58.09v6.77l-2.61.13c-.63-1.6-.82-14.65-.31-17.54a2.73,2.73,0,0,1,3.32,0l3.5,9.17.49,0q1.68-4.73,3.36-9.43h3c.88,2,1,15.54.18,17.73Z" transform="translate(-46.54 -21.55)"/><path class="cls-1" d="M361.09,365l3-.61c1.45,3.49,2.82,6.79,4.41,10.6.82-2.27,1.46-4.06,2.11-5.85.36-1,.67-2,1.11-3,.85-1.86,1.51-2.05,3.85-1.05.37,5.7,0,11.51-.14,17.45h-2.52c-1.16-2.41,0-5-1-7.43-.6,1.73-1.19,3.46-1.8,5.19-.48,1.33-.49,1.33-2.32,1.77-.84-2-1.69-4-2.78-6.6-.79,2.55-.2,4.84-.92,7.05h-2.93C361,376.81,361.1,371.12,361.09,365Z" transform="translate(-46.54 -21.55)"/><path class="cls-1" d="M503,430.55l.88,2.29c-1.22,1.79-1.26,1.79-4.52-.33l-2.11.22a5.19,5.19,0,0,1-5.38-3,13.12,13.12,0,0,1-.32-11.59,6.39,6.39,0,0,1,6.25-3.67,6.59,6.59,0,0,1,6.09,4.64,14.46,14.46,0,0,1-.41,10.18C503.3,429.69,503.16,430.12,503,430.55Zm-2.44-4.27a9.28,9.28,0,0,0,0-5.47,4.93,4.93,0,0,0-1.54-2.15,2.5,2.5,0,0,0-3.77.5c-1.59,2.1-1.58,7.4.21,9.19.68.68,1.28,1.53,2.51.94-.46-1.1-1.67-2-.83-3.31C498.34,424.94,499.42,425.67,500.56,426.28Z" transform="translate(-46.54 -21.55)"/><path class="cls-1" d="M476,415.05c1.95-.8,2.56-.7,3.51.77,1.18,1.83,2.26,3.73,3.4,5.6a9.47,9.47,0,0,0,1.54,2c.55-2.79.18-5.6.43-8.37a3.2,3.2,0,0,1,3.57-.07v17.28l-2.74.45-6.05-9.32c-.38,3.24,0,6-.23,9.05l-3.09.24C475.73,431,475.53,418.78,476,415.05Z" transform="translate(-46.54 -21.55)"/><path class="cls-1" d="M594.24,495V512.2c-2.09.7-2.67.59-3.6-.87-1-1.66-2-3.39-2.95-5.08-.41-.71-.86-1.39-1.48-2.39-1.1,3,.12,5.91-.93,8.69h-2.65c-.6-1.61-.82-12.37-.37-17.33,1.87-1.11,2.62-1,3.67.7s2,3.54,3,5.29a7.59,7.59,0,0,0,2,2.31v-8.19C592.6,494.3,592.6,494.3,594.24,495Z" transform="translate(-46.54 -21.55)"/><path class="cls-1" d="M533.74,414.72a12.59,12.59,0,0,1,7.85.55c3.2,1.44,3.75,6.4,1.13,9.16-.46.49-1,.91-1.52,1.4,1.06,2.2,2.77,4,3.26,6.74l-3.49.18c-1.13-1.92-2.18-3.73-3.23-5.54l-.42,0c-.13,1.72-.27,3.44-.41,5.29h-3.12C532.9,430.27,532.87,417.13,533.74,414.72Zm6.74,7.1v-3.28l-3.15-.58v4.77Z" transform="translate(-46.54 -21.55)"/><path class="cls-1" d="M97.56,434.1v8.45l-2.84.17a6.58,6.58,0,0,1-.56-1.74c0-5,0-10,0-15a7.24,7.24,0,0,1,.27-1.31h2.28l5.52,9.08.52-.18v-8.73l3.12-.16v17.79h-2.61l-5.13-8.43Z" transform="translate(-46.54 -21.55)"/><path class="cls-1" d="M609.88,494.79a12.35,12.35,0,0,1,8.82.69c2.21,1.15,2.19,3.47,2.1,5.58a4.68,4.68,0,0,1-2,3.87,6,6,0,0,0-.81.84c.93,2.28,2.86,4.06,3.28,6.78H617.7c-1.14-2-2.34-4-3.54-6.07l-.54.09c-.08,1.89-.17,3.77-.27,6l-3.17.15C609.52,510.74,609.35,498.8,609.88,494.79Zm7.31,6.85c.17-3.2-.65-3.86-3.48-3.35v4.5Z" transform="translate(-46.54 -21.55)"/><path class="cls-1" d="M161,433.88v8.62h-2.7c-.68-1.89-.83-14.87-.22-17.71l2.3-.14c1.83,3.05,3.59,6,5.34,8.9l.51-.14v-8.68l3.12-.15v17.91a6.13,6.13,0,0,1-1.15.21,8,8,0,0,1-1.26-.17c-1.77-2.89-3.56-5.83-5.35-8.77Z" transform="translate(-46.54 -21.55)"/><path class="cls-1" d="M875.49,454.84c1.63-.89,3.47-.41,5.23-.38,2.24,0,4.29.77,5,3.12.78,2.54.71,5.09-1.35,7.17a8.73,8.73,0,0,1-1.07.83c1,2.43,2.72,4.31,3.39,7H883l-3.71-6.41c-.9,2.35-.12,4.41-.72,6.43h-2.81C875,470.77,874.77,457.92,875.49,454.84Zm7.13,6.27c0-.69-.11-1.41-.15-1.95a3.17,3.17,0,0,0-3.47-.9v3.92C880.92,462.53,880.92,462.53,882.62,461.11Z" transform="translate(-46.54 -21.55)"/><path class="cls-1" d="M459.59,424a51.44,51.44,0,0,1,1-5.28,5.7,5.7,0,0,1,5.31-4.22,6.17,6.17,0,0,1,6.49,3.21,12.54,12.54,0,0,1,.19,11.74c-1.27,2.63-3.72,3.35-6.46,3.24a5.38,5.38,0,0,1-5.24-3.61A47,47,0,0,1,459.59,424Zm8.84,4.78c1.63-2,2.18-6.45,1.12-8.65-.77-1.6-1.73-2.1-3.84-2a3.75,3.75,0,0,0-1.93,3.15,18.65,18.65,0,0,0,0,4.29C464.09,428.35,465.49,429.27,468.43,428.8Z" transform="translate(-46.54 -21.55)"/><path class="cls-1" d="M286,484v8.34l-2.55.37c-.76-1.84-.94-15.28-.26-18.14l2.34.17c1.8,3.08,3.54,6.05,5.29,9,.76-2.89.24-5.79.55-8.64a2.25,2.25,0,0,1,3-.25v17.68l-2.27.19-5.64-8.91Z" transform="translate(-46.54 -21.55)"/><path class="cls-1" d="M200,492.45l-2.44.12c-.61-1.82-.71-15.33-.19-17.78a1.91,1.91,0,0,1,2.78.94c1,1.68,2,3.38,3,5.07a17.5,17.5,0,0,0,2,2.86c.47-2.87.13-5.75.37-8.5a2,2,0,0,1,3.09,0v17c-1.91.88-2.51.75-3.45-.79s-1.89-3.25-2.85-4.88c-.45-.76-.95-1.5-1.66-2.63C199.8,486.81,200.63,489.51,200,492.45Z" transform="translate(-46.54 -21.55)"/><path class="cls-1" d="M858.88,463.62a40,40,0,0,1,.74-4.66,6.18,6.18,0,0,1,6.92-4.52,6,6,0,0,1,5.82,5.56,30.26,30.26,0,0,1,0,7.18c-.81,5.35-6.06,6.62-9.6,4.84-2.5-1.26-3.25-3.61-3.65-6.12a15.49,15.49,0,0,1,0-2.26Zm5.92-5.47c-2.94,2.75-2.95,8.12-.1,10.67,2.38.27,3.13,0,3.74-1.53a10.24,10.24,0,0,0,.44-6.42C868.29,458.67,867.36,458.07,864.8,458.15Z" transform="translate(-46.54 -21.55)"/><path class="cls-1" d="M238.74,487v5.51h-3.22c-.59-1.65-.69-14.56-.18-17.38,2.41-1.39,7.28-.75,9,1.18a6.64,6.64,0,0,1,.14,8c-.42.53-.91,1-1.41,1.55.54,2.32,2.73,4,2.81,6.7h-3.22c-.49-.92-1-1.91-1.55-2.88s-1.11-1.9-1.67-2.85Zm3.77-6.29-.95-2.49h-2.94c.08,1.52.15,2.82.21,4C240.55,482.84,241.63,482.53,242.51,480.7Z" transform="translate(-46.54 -21.55)"/><path class="cls-1" d="M359.08,373.78a46.66,46.66,0,0,1-1,5,5.34,5.34,0,0,1-5.19,4c-2.86.18-5.2-.85-6.27-3.48a14.81,14.81,0,0,1,.15-11.87c1-2.31,3.23-2.86,5.46-3,3.35-.15,5.25,1.3,6.09,4.55C358.69,370.51,358.82,372.1,359.08,373.78Zm-3.57-.09a35.37,35.37,0,0,0-.81-3.89,2.57,2.57,0,0,0-4.84-.12,9.89,9.89,0,0,0-.13,7.68,2.57,2.57,0,0,0,2.69,1.68,2.37,2.37,0,0,0,2.35-1.76C355.1,376.15,355.26,375,355.51,373.69Z" transform="translate(-46.54 -21.55)"/><path class="cls-1" d="M211.06,492.6c-.47-6-.17-11.92-.25-18.07,2.91-.25,5.35-.3,7.69.7a5,5,0,0,1,2.81,3.11,16.49,16.49,0,0,1,.12,10.21,5.29,5.29,0,0,1-4.07,3.84A18.55,18.55,0,0,1,211.06,492.6Zm3.42-3.77c2.22.07,3.13-.29,3.63-1.57a9.42,9.42,0,0,0,.09-7.06c-.63-1.61-1.74-2.1-3.72-1.74Z" transform="translate(-46.54 -21.55)"/><path class="cls-1" d="M709.13,422.61h-3a11.36,11.36,0,0,1-.28-1.79c0-4.46,0-8.91,0-13.37,0-2.69.51-3.13,3.26-3.06a25.67,25.67,0,0,1,3.37.35,4,4,0,0,1,3.45,3.46c.48,2.5.43,5-1.74,6.89a5.74,5.74,0,0,0-.61.73c.35,2.34,2.71,4,2.5,6.73h-2.92l-3.07-5.45h-.43C709.48,418.87,709.32,420.63,709.13,422.61ZM712.49,412c.57-3.4-.17-4.2-2.9-3.6v4.18Z" transform="translate(-46.54 -21.55)"/><path class="cls-1" d="M73.81,442.58H70.9a3.46,3.46,0,0,1-.45-1.08c0-5.48.06-11,.1-16.55,3.06-.84,5.8-.86,8.31.62s2.81,5.87.86,8.53c-.44.61-1,1.16-1.54,1.87.54,1,1.1,2.1,1.63,3.16s.94,2,1.62,3.36l-3.45.27c-.62-1.1-1.22-2.12-1.79-3.15s-1-1.94-1.56-2.9l-.51.1ZM74.15,428v4.6L77,432a2.94,2.94,0,0,0-.56-3.82Z" transform="translate(-46.54 -21.55)"/><path class="cls-1" d="M297.07,492.64V474.81a5.87,5.87,0,0,1,1.57-.42,38,38,0,0,1,4.27.33c2.83.38,4.35,2.23,5,4.84a16.28,16.28,0,0,1-.06,8.26c-.71,2.62-2.25,4.47-5,4.78A53.75,53.75,0,0,1,297.07,492.64Zm6.15-3.82a7.07,7.07,0,0,0,.7-.9,10.31,10.31,0,0,0,.45-7.89c-.47-1.6-2-2.08-4-1.56v10.35Z" transform="translate(-46.54 -21.55)"/><path class="cls-1" d="M507,414.79h3.25v12.67c.87,1.48,1.81,1.7,3,1.38,1.16-.69,1.2-1.84,1.21-3,0-2.79,0-5.59,0-8.38,0-.81.15-1.62.25-2.7H518a15.6,15.6,0,0,1,.43,2.72c0,3.25-.2,6.49-.3,9.73-.17,5.71-5.81,6.44-8.85,4.71a5.63,5.63,0,0,1-2.12-2.75,11,11,0,0,1-.42-3.56c-.08-2.57-.12-5.14-.09-7.7A25.62,25.62,0,0,1,507,414.79Z" transform="translate(-46.54 -21.55)"/><path class="cls-1" d="M136.92,442.33l-2.73.32c-.77-1.87-1-13.52-.41-17.59.87-.75,1.81-.81,3.06.07v6.19l4.42.58.44-6.83,2.44-.75a9.91,9.91,0,0,1,.74,2.46c.05,4.61,0,9.22,0,13.83a12.15,12.15,0,0,1-.43,2l-3-.27v-6.31a4.82,4.82,0,0,0-4.55-.15Z" transform="translate(-46.54 -21.55)"/><path class="cls-1" d="M114.17,439.4c1.56-.34,2.23-1.33,2.59-2.91l-2.36-1.05v-2.93h5a6.75,6.75,0,0,1,.63,2.17,19,19,0,0,1-.66,4.44,4.57,4.57,0,0,1-4.16,3.62c-2.44.22-4.57-.4-5.76-2.71a13.46,13.46,0,0,1-1.2-9.46,13.68,13.68,0,0,1,1.71-4.14c1.26-2,3.37-2.18,5.46-1.72A4.15,4.15,0,0,1,119,428.5l-2.12,1.13c-1.24-.53-1.77-1.94-3.19-1.48C110.56,430.81,110.74,437.34,114.17,439.4Z" transform="translate(-46.54 -21.55)"/><path class="cls-1" d="M629.25,509.33c1.31-.42,2.43-1.05,2.32-2.93l-1.9-1.11v-2.8h4.52c1.62,2.69.73,7.74-1.63,9.51-2.63,2-7.47.48-8.67-2.94a15.17,15.17,0,0,1,.29-11.68c1-2.22,2.82-3.09,5.4-2.83s3.83,1.2,4.58,3.85l-2,1.14c-1.36-.44-2-2-3.5-1.38C625.4,500.79,625.69,507.78,629.25,509.33Z" transform="translate(-46.54 -21.55)"/><path class="cls-1" d="M580.08,509v3.63c-3.21.22-6.26.11-9.51.07a7.23,7.23,0,0,1-.57-1.92c0-4.83,0-9.65,0-14.48a8.7,8.7,0,0,1,.25-1.35,6.19,6.19,0,0,1,2-.57c2.43.1,4.93-.43,7.53.48-.07,1.08-.13,2-.2,3.12h-5.69c-.07,1.32-.13,2.44-.19,3.7L578,502c.09,1.05.16,2,.26,3.17l-4.48.72V509Z" transform="translate(-46.54 -21.55)"/><path class="cls-1" d="M763.39,408.53l-2.34,1.06-1.79-1.42a2.19,2.19,0,0,0-2.9,1.53,11.38,11.38,0,0,0-.19,7.53c.38,1.41,1.45,2.11,2.47,1.84a2.22,2.22,0,0,0,1.73-2.66l-1.87-1.07v-2.79l4.88-.31a9.71,9.71,0,0,1,.66,2.5,16.91,16.91,0,0,1-.54,4c-.83,2.91-2.72,4.12-5.74,4s-4.4-2.25-5.13-5.18a17.16,17.16,0,0,1,0-8.06c.89-3.77,3.64-5.62,7.16-4.73C761.75,405.28,762.31,405.83,763.39,408.53Z" transform="translate(-46.54 -21.55)"/><path class="cls-1" d="M794.09,419c.07,1.35.13,2.4.2,3.69-3.36.08-6.38.43-9.61-.31V404.79c3.09-.76,6.18-.45,9.45-.21v3.3l-5.82.31c-.08,1.15-.14,2.22-.22,3.47l4,.33a2.9,2.9,0,0,1-.09,3.49l-3.72.37V419Z" transform="translate(-46.54 -21.55)"/><path class="cls-1" d="M841.74,469.75H837l-1.15,3-2.86-.13c0-2.54,3.85-15.85,5.29-18.12l3.06.19c1.65,6,3.25,11.73,4.85,17.48C843.64,473.05,843.42,472.92,841.74,469.75Zm-1.06-3.59a11.12,11.12,0,0,0-1.45-5.44c-.46,1.73-.92,3.46-1.44,5.44Z" transform="translate(-46.54 -21.55)"/><path class="cls-1" d="M656.84,494.89c3.33-1,6.36-.36,9.6-.49V498h-5.32c-.82,2-.82,2,0,3.71l3.26.29c1,1,.76,2.08.38,3.37l-4.14.53v2.91l6,.28v3.52h-9.48C656.68,506.65,657.06,500.82,656.84,494.89Z" transform="translate(-46.54 -21.55)"/><path class="cls-1" d="M730.78,422.58l-2.74.18-1.83-3h-4.62l-.78,2.57-3,.44a12,12,0,0,1,.13-2.4c1.24-4.58,2.52-9.14,3.82-13.71a19.93,19.93,0,0,1,.86-2.08h3C727.62,410.47,729.27,416.35,730.78,422.58Zm-5.22-6.43c-.47-1.86-.84-3.3-1.21-4.73h-.56c-.42,1.5-.85,3-1.34,4.74Z" transform="translate(-46.54 -21.55)"/><path class="cls-1" d="M607,494.84v3.05l-6,.3c0,1.2.1,2.26.15,3.48l4.26.34c.16.9.31,1.79.41,2.44-1.29,2-3.21.76-4.79,1.64,0,.72-.08,1.58-.13,2.71l6.4.28v3.49H598c-.59-1.67-.8-15.47-.27-17.9A23.45,23.45,0,0,1,607,494.84Z" transform="translate(-46.54 -21.55)"/><path class="cls-1" d="M90.52,435.5l-3.76.32V439H92c.94,1.87.94,1.87.27,3.65H83.73A4.55,4.55,0,0,1,83,441c0-5.13,0-10.27.08-15.4a1.77,1.77,0,0,1,.15-.42c1.66-1.08,6.66-1.11,9.07,0l-.15,2.73-5.11.26a3.48,3.48,0,0,0-.24,3.52l3.69.37Z" transform="translate(-46.54 -21.55)"/><path class="cls-1" d="M274,474.45l2.84.32c1.68,6,3.29,11.66,5,17.74l-2.9.18-1.79-2.91h-4.26c-.41.8-.89,1.71-1.47,2.83l-2.22.11C268.74,490.57,272.26,477.07,274,474.45Zm-.29,12,3-.39c-.49-1.81-.91-3.33-1.32-4.85l-.57,0C274.45,482.77,274.11,484.33,273.67,486.41Z" transform="translate(-46.54 -21.55)"/><path class="cls-1" d="M183.49,474.73h3.23c.05,1.2.12,2.17.14,3.13,0,2.87,0,5.75.13,8.61.12,2,.7,2.37,2.76,2.29a3.47,3.47,0,0,0,1.49-3.32c-.05-2.64-.05-5.29-.07-7.93v-2.39c1.1-.93,2.06-.76,3.28-.11,0,2.85,0,5.78,0,8.71,0,1.29.05,2.58-.08,3.85-.35,3.57-2.3,5.24-5.87,5.15-2.86-.07-4.79-2.12-4.93-5.41-.11-2.26-.06-4.53-.08-6.8Z" transform="translate(-46.54 -21.55)"/><path class="cls-1" d="M749.37,415.27l-4.49.61v3h5.64c.1,1.36.19,2.42.28,3.69h-9.28c-.48-5.92-.17-11.74-.16-17.75a18.5,18.5,0,0,1,9,.07v3l-5.42.27v3.46l4.25.4C749.27,413.07,749.31,413.93,749.37,415.27Z" transform="translate(-46.54 -21.55)"/><path class="cls-1" d="M844.32,455.48c1.08-1.15,2.16-1.08,3.6-.69,1.08,3.33,2.19,6.8,3.45,10.71,1.73-3.82,2-7.66,3.54-11.19l2.73.33c.25,2.2-3.34,15.48-4.89,18l-3.13-.24C847.79,466.57,846,461,844.32,455.48Z" transform="translate(-46.54 -21.55)"/><path class="cls-1" d="M530.81,428.87v3.75h-9.13C521,431,520.77,418,521.36,415c1.67-.91,7.09-.89,9.33.1v2.76c-1.05.07-2,.16-3,.19s-1.79,0-3,0c-.1,1.29-.18,2.35-.28,3.59l4.38.44v3.35l-4.23.47v3Z" transform="translate(-46.54 -21.55)"/><path class="cls-1" d="M654.3,509v3.6H644c-1.15-1.44-.67-2.74,0-4,1.42-2.66,2.93-5.27,4.4-7.91.35-.64.66-1.31,1.18-2.32l-5-.51c-.06-1-.11-1.76-.17-2.67.47-.29.9-.8,1.32-.79,2.9.06,5.86-.51,8.64.45a3.24,3.24,0,0,1-.39,3.35c-1.59,2.74-3.19,5.48-4.77,8.22-.35.62-.65,1.26-1.15,2.24Z" transform="translate(-46.54 -21.55)"/><path class="cls-1" d="M830.68,458a4.58,4.58,0,0,1-.62.75,6.56,6.56,0,0,1-.91.52c-3.42-1.9-4-1.87-4.92.26.82,1.19,2.3,1.27,3.47,1.87a6.2,6.2,0,0,1,3.14,8.34c-.84,2.05-2.47,3-5.08,3s-4.64-1.27-5.28-3.18a6.33,6.33,0,0,1,0-1.81l2.4-.3a17.47,17.47,0,0,0,1.44,1.18,13.26,13.26,0,0,0,1.5.76,2.5,2.5,0,0,0,2.32-2.39,12.51,12.51,0,0,0-1.63-1.39c-1.1-.66-2.3-1.14-3.4-1.8-2.09-1.27-2.87-3.06-2.36-5.14a5.26,5.26,0,0,1,4.94-4.24C828.27,454.31,829.64,455.25,830.68,458Z" transform="translate(-46.54 -21.55)"/><path class="cls-1" d="M682.19,417.85l1.87-.58,3.18,2.09c1.45-.25,2.34-.7,2.54-2.35a14.64,14.64,0,0,0-1.8-1.56c-.81-.52-1.76-.84-2.62-1.3-2.22-1.17-3.3-3-3-5.1A5.29,5.29,0,0,1,687,404.5c2.39-.36,4.05.54,5.42,3.15l-1.5,1.73c-3.3-2.09-3.7-2.09-5,0,.7,1.19,2,1.37,3.17,1.9,3.1,1.45,4.39,3.85,3.82,7.15a5.14,5.14,0,0,1-5.12,4.26,5.4,5.4,0,0,1-5.68-3.55A4.68,4.68,0,0,1,682.19,417.85Z" transform="translate(-46.54 -21.55)"/><path class="cls-1" d="M57.1,428.09l-2,1.11c-1.12-.91-2.23-1.85-3.68-1.07-.38.21-.55.8-.8,1.19.74,1.31,2,1.57,3,2.08,1.58.76,3.06,1.59,3.77,3.37a5.74,5.74,0,0,1-2.16,7.15,6.15,6.15,0,0,1-7.64-1.15c-.43-.51-.76-1.1-1.12-1.62.33-1.59,1.37-1.71,2.53-1.57,3.34,2.39,4.12,2.36,5.52-.48-.8-.62-1.63-1.34-2.54-1.92s-2.15-1.11-3.13-1.79a4.21,4.21,0,0,1-1.8-4.56,4.91,4.91,0,0,1,3.26-4,5.08,5.08,0,0,1,5.48,1A10.4,10.4,0,0,1,57.1,428.09Z" transform="translate(-46.54 -21.55)"/><path class="cls-1" d="M782.09,422.69c-3.12,0-6.13.07-9.13,0a1.63,1.63,0,0,1-1.57-2.23,9.76,9.76,0,0,1,1-2.29c1.46-2.72,3-5.42,4.44-8.13.24-.44.41-.93.76-1.74l-5-.24v-3.4a35,35,0,0,1,9.49,0,3.52,3.52,0,0,1-.32,3.73c-1.44,2.57-2.9,5.12-4.34,7.69-.39.69-.73,1.42-1.29,2.56l5.67.29C782.83,420,782.58,421.16,782.09,422.69Z" transform="translate(-46.54 -21.55)"/><path class="cls-1" d="M224,492.72v-18a20.6,20.6,0,0,1,8.84.09v3l-5.54.36v3.38l4.11.44c.09,1,.17,1.91.23,2.65-1.24,1.6-2.92.58-4.35,1.31v2.81l5.85.35c.1,1.11.19,2,.3,3.17C230.33,493.09,227.37,492.63,224,492.72Z" transform="translate(-46.54 -21.55)"/><path class="cls-1" d="M154.79,435.28l-2.4.35-1.91.25v2.93l5.43.3.23,3.59c-3.09.06-5.9.12-9-.1-.23-5.94,0-11.64-.12-17.23,2.05-1.29,6.56-1.41,8.89-.32v2.83l-5.41.32v3.45l4,.39Z" transform="translate(-46.54 -21.55)"/><path class="cls-1" d="M250.8,479.88c1,.47,2.08,1,3.16,1.45,3.9,1.67,5.26,5.68,3.06,9.1-2.08,3.24-7.78,3.06-9.58-.34a9.36,9.36,0,0,1-.51-2.26l2.27-.36,3,2c1.41-.23,2.39-.63,2.47-1.93.07-1.15-.8-1.74-1.7-2.18s-2-.81-2.89-1.29c-3.06-1.53-3.26-4.38-2-7.18,1.07-2.41,4.7-3.19,7.12-1.73a2.8,2.8,0,0,1,1.66,2.52,1.54,1.54,0,0,1-1.53,1.62C252.28,477.34,251.51,477.4,250.8,479.88Z" transform="translate(-46.54 -21.55)"/><path class="cls-1" d="M458.26,418.51l-3.05,1.55a5,5,0,0,0-.61-1c-1.66-1.56-3.07-1.22-4,.94a10.59,10.59,0,0,0-.31,6.23,24.24,24.24,0,0,0,.81,2.56l2.83.3,2.45-2.19,2,1.85c-.74,2.84-2.74,3.63-5,4s-4.23-.23-5.38-2.4c-2.29-4.3-2.1-8.71-.18-13a4.78,4.78,0,0,1,5.25-2.75A5.76,5.76,0,0,1,458.26,418.51Z" transform="translate(-46.54 -21.55)"/><path class="cls-1" d="M341.92,376.85l1.95,1.82a5.13,5.13,0,0,1-4.52,4c-2.5.45-4.5-.39-5.54-2.54a14.14,14.14,0,0,1-.12-12.87,4.62,4.62,0,0,1,5-2.73c2.19.29,4.09,1.13,4.72,3.87l-2.32,1.48c-1-1-1.73-2.29-3.47-1.69a3.61,3.61,0,0,0-1.58,2.94,45.78,45.78,0,0,0,0,5,3,3,0,0,0,1.66,2.77c1.25.53,2.15-.18,2.95-1.09A7.72,7.72,0,0,1,341.92,376.85Z" transform="translate(-46.54 -21.55)"/><path class="cls-1" d="M269.51,474.51c.07,1.26.12,2.25.18,3.41l-3.41.33c-.41,4.5.09,9.07-.16,13.54-.83,1.14-1.84,1-3.22.67a17.55,17.55,0,0,1-.36-2.46c-.06-3.16,0-6.33-.08-9.49a19,19,0,0,0-.27-2.19l-3.49-.49c-.06-1-.12-1.93-.2-3.21A68.49,68.49,0,0,1,269.51,474.51Z" transform="translate(-46.54 -21.55)"/><path class="cls-1" d="M700.65,422.55h-2.87c-.68-2.39-.29-4.72-.36-7s0-4.65,0-7.18l-3.68-.45v-3.38c3.61-.06,7.08-.49,10.66.21v3.18l-3.26.32C700.47,412.92,701.15,417.67,700.65,422.55Z" transform="translate(-46.54 -21.55)"/><path class="cls-1" d="M410.74,365.13v2.74l-3.49.43c-.07,1.19-.17,2.36-.18,3.54,0,2.79.07,5.58,0,8.38a13.69,13.69,0,0,1-.47,2.38h-2.7a16,16,0,0,1-.37-2.34c-.05-3.09,0-6.19-.06-9.29,0-.87-.17-1.75-.27-2.67l-3.3-.35c-.12-.89-.24-1.75-.4-2.83a10.17,10.17,0,0,1,2.11-.75C405.49,364,409.38,364.33,410.74,365.13Z" transform="translate(-46.54 -21.55)"/><path class="cls-1" d="M736,408.31v14.2h-3.23V408.28l-3.59-.29c-.8-1.09-.61-2.12,0-3.35a47.29,47.29,0,0,1,10.44,0v3.27Z" transform="translate(-46.54 -21.55)"/><path class="cls-1" d="M128.15,442.56h-2.8c-.08-.85-.22-1.64-.22-2.43,0-3.17,0-6.35,0-9.52a14,14,0,0,0-.41-2.35l-3.29-.32L121,425a6.76,6.76,0,0,1,2.11-.63c3,.14,6-.48,9,.52v3l-3.47.38a18.35,18.35,0,0,0-.31,2.33c0,3.09,0,6.19,0,9.29C128.4,440.7,128.25,441.5,128.15,442.56Z" transform="translate(-46.54 -21.55)"/><path class="cls-1" d="M65.53,442.3l-2.93.33c-.1-1.06-.24-1.85-.25-2.65,0-3.17,0-6.33-.06-9.5a19.37,19.37,0,0,0-.3-2.23l-3.36-.34L58.48,425c2.32-.93,8.84-.81,10.78.21l-.21,2.67-3.4.43c0,2.32-.09,4.55-.11,6.78S65.53,439.62,65.53,442.3Z" transform="translate(-46.54 -21.55)"/><path class="cls-1" d="M640.91,512.53h-2.82c-.73-1.78-1-14.09-.44-17.44a2.5,2.5,0,0,1,3.26-.12Z" transform="translate(-46.54 -21.55)"/><path class="cls-1" d="M766,404.64h3.17V422.5H766C765.81,416.48,766,410.66,766,404.64Z" transform="translate(-46.54 -21.55)"/><path class="cls-1" d="M394.56,365.11a2.11,2.11,0,0,1,3-.12c.63,2.09.55,15.84-.15,17.6h-2.5C394.27,380.89,394.06,368.19,394.56,365.11Z" transform="translate(-46.54 -21.55)"/></g></svg>